<?xml version="1.0" encoding="utf-8" standalone="no"?>
<!DOCTYPE svg PUBLIC "-//W3C//DTD SVG 1.1//EN"
  "http://www.w3.org/Graphics/SVG/1.1/DTD/svg11.dtd">
<svg xmlns:xlink="http://www.w3.org/1999/xlink" width="460.8pt" height="345.6pt" viewBox="0 0 460.8 345.6" xmlns="http://www.w3.org/2000/svg" version="1.1">
 <metadata>
  <rdf:RDF xmlns:dc="http://purl.org/dc/elements/1.1/" xmlns:cc="http://creativecommons.org/ns#" xmlns:rdf="http://www.w3.org/1999/02/22-rdf-syntax-ns#">
   <cc:Work>
    <dc:type rdf:resource="http://purl.org/dc/dcmitype/StillImage"/>
    <dc:date>2023-03-13T21:03:17.396320</dc:date>
    <dc:format>image/svg+xml</dc:format>
    <dc:creator>
     <cc:Agent>
      <dc:title>Matplotlib v3.5.1, https://matplotlib.org/</dc:title>
     </cc:Agent>
    </dc:creator>
   </cc:Work>
  </rdf:RDF>
 </metadata>
 <defs>
  <style type="text/css">*{stroke-linejoin: round; stroke-linecap: butt}</style>
 </defs>
 <g id="figure_1">
  <g id="patch_1">
   <path d="M 0 345.6 
L 460.8 345.6 
L 460.8 0 
L 0 0 
z
" style="fill: #ffffff"/>
  </g>
  <g id="axes_1">
   <g id="patch_2">
    <path d="M 37.96625 303.685 
L 450 303.685 
L 450 27.6 
L 37.96625 27.6 
z
" style="fill: #ffffff"/>
   </g>
   <g id="patch_3">
    <path d="M 56.695057 303.685 
L 65.613536 303.685 
L 65.613536 274.469656 
L 56.695057 274.469656 
z
" clip-path="url(#pdeda0fcda2)" style="fill: #044b7f"/>
   </g>
   <g id="patch_4">
    <path d="M 65.613536 303.685 
L 74.532016 303.685 
L 74.532016 303.685 
L 65.613536 303.685 
z
" clip-path="url(#pdeda0fcda2)" style="fill: #044b7f"/>
   </g>
   <g id="patch_5">
    <path d="M 74.532016 303.685 
L 83.450495 303.685 
L 83.450495 245.254312 
L 74.532016 245.254312 
z
" clip-path="url(#pdeda0fcda2)" style="fill: #044b7f"/>
   </g>
   <g id="patch_6">
    <path d="M 83.450495 303.685 
L 92.368975 303.685 
L 92.368975 69.962249 
L 83.450495 69.962249 
z
" clip-path="url(#pdeda0fcda2)" style="fill: #044b7f"/>
   </g>
   <g id="patch_7">
    <path d="M 92.368975 303.685 
L 101.287454 303.685 
L 101.287454 40.746905 
L 92.368975 40.746905 
z
" clip-path="url(#pdeda0fcda2)" style="fill: #044b7f"/>
   </g>
   <g id="patch_8">
    <path d="M 101.287454 303.685 
L 110.205933 303.685 
L 110.205933 99.177593 
L 101.287454 99.177593 
z
" clip-path="url(#pdeda0fcda2)" style="fill: #044b7f"/>
   </g>
   <g id="patch_9">
    <path d="M 110.205933 303.685 
L 119.124413 303.685 
L 119.124413 186.823624 
L 110.205933 186.823624 
z
" clip-path="url(#pdeda0fcda2)" style="fill: #044b7f"/>
   </g>
   <g id="patch_10">
    <path d="M 119.124413 303.685 
L 128.042892 303.685 
L 128.042892 128.392937 
L 119.124413 128.392937 
z
" clip-path="url(#pdeda0fcda2)" style="fill: #044b7f"/>
   </g>
   <g id="patch_11">
    <path d="M 128.042892 303.685 
L 136.961372 303.685 
L 136.961372 245.254312 
L 128.042892 245.254312 
z
" clip-path="url(#pdeda0fcda2)" style="fill: #044b7f"/>
   </g>
   <g id="patch_12">
    <path d="M 136.961372 303.685 
L 145.879851 303.685 
L 145.879851 186.823624 
L 136.961372 186.823624 
z
" clip-path="url(#pdeda0fcda2)" style="fill: #044b7f"/>
   </g>
   <g id="patch_13">
    <path d="M 145.879851 303.685 
L 154.798331 303.685 
L 154.798331 157.60828 
L 145.879851 157.60828 
z
" clip-path="url(#pdeda0fcda2)" style="fill: #044b7f"/>
   </g>
   <g id="patch_14">
    <path d="M 154.798331 303.685 
L 163.71681 303.685 
L 163.71681 274.469656 
L 154.798331 274.469656 
z
" clip-path="url(#pdeda0fcda2)" style="fill: #044b7f"/>
   </g>
   <g id="patch_15">
    <path d="M 163.71681 303.685 
L 172.63529 303.685 
L 172.63529 303.685 
L 163.71681 303.685 
z
" clip-path="url(#pdeda0fcda2)" style="fill: #044b7f"/>
   </g>
   <g id="patch_16">
    <path d="M 172.63529 303.685 
L 181.553769 303.685 
L 181.553769 245.254312 
L 172.63529 245.254312 
z
" clip-path="url(#pdeda0fcda2)" style="fill: #044b7f"/>
   </g>
   <g id="patch_17">
    <path d="M 181.553769 303.685 
L 190.472248 303.685 
L 190.472248 303.685 
L 181.553769 303.685 
z
" clip-path="url(#pdeda0fcda2)" style="fill: #044b7f"/>
   </g>
   <g id="patch_18">
    <path d="M 190.472248 303.685 
L 199.390728 303.685 
L 199.390728 303.685 
L 190.472248 303.685 
z
" clip-path="url(#pdeda0fcda2)" style="fill: #044b7f"/>
   </g>
   <g id="patch_19">
    <path d="M 199.390728 303.685 
L 208.309207 303.685 
L 208.309207 303.685 
L 199.390728 303.685 
z
" clip-path="url(#pdeda0fcda2)" style="fill: #044b7f"/>
   </g>
   <g id="patch_20">
    <path d="M 208.309207 303.685 
L 217.227687 303.685 
L 217.227687 274.469656 
L 208.309207 274.469656 
z
" clip-path="url(#pdeda0fcda2)" style="fill: #044b7f"/>
   </g>
   <g id="patch_21">
    <path d="M 217.227687 303.685 
L 226.146166 303.685 
L 226.146166 303.685 
L 217.227687 303.685 
z
" clip-path="url(#pdeda0fcda2)" style="fill: #044b7f"/>
   </g>
   <g id="patch_22">
    <path d="M 226.146166 303.685 
L 235.064646 303.685 
L 235.064646 303.685 
L 226.146166 303.685 
z
" clip-path="url(#pdeda0fcda2)" style="fill: #044b7f"/>
   </g>
   <g id="patch_23">
    <path d="M 235.064646 303.685 
L 243.983125 303.685 
L 243.983125 274.469656 
L 235.064646 274.469656 
z
" clip-path="url(#pdeda0fcda2)" style="fill: #044b7f"/>
   </g>
   <g id="patch_24">
    <path d="M 243.983125 303.685 
L 252.901604 303.685 
L 252.901604 245.254312 
L 243.983125 245.254312 
z
" clip-path="url(#pdeda0fcda2)" style="fill: #044b7f"/>
   </g>
   <g id="patch_25">
    <path d="M 252.901604 303.685 
L 261.820084 303.685 
L 261.820084 303.685 
L 252.901604 303.685 
z
" clip-path="url(#pdeda0fcda2)" style="fill: #044b7f"/>
   </g>
   <g id="patch_26">
    <path d="M 261.820084 303.685 
L 270.738563 303.685 
L 270.738563 274.469656 
L 261.820084 274.469656 
z
" clip-path="url(#pdeda0fcda2)" style="fill: #044b7f"/>
   </g>
   <g id="patch_27">
    <path d="M 270.738563 303.685 
L 279.657043 303.685 
L 279.657043 303.685 
L 270.738563 303.685 
z
" clip-path="url(#pdeda0fcda2)" style="fill: #044b7f"/>
   </g>
   <g id="patch_28">
    <path d="M 279.657043 303.685 
L 288.575522 303.685 
L 288.575522 303.685 
L 279.657043 303.685 
z
" clip-path="url(#pdeda0fcda2)" style="fill: #044b7f"/>
   </g>
   <g id="patch_29">
    <path d="M 288.575522 303.685 
L 297.494002 303.685 
L 297.494002 303.685 
L 288.575522 303.685 
z
" clip-path="url(#pdeda0fcda2)" style="fill: #044b7f"/>
   </g>
   <g id="patch_30">
    <path d="M 297.494002 303.685 
L 306.412481 303.685 
L 306.412481 274.469656 
L 297.494002 274.469656 
z
" clip-path="url(#pdeda0fcda2)" style="fill: #044b7f"/>
   </g>
   <g id="patch_31">
    <path d="M 306.412481 303.685 
L 315.33096 303.685 
L 315.33096 303.685 
L 306.412481 303.685 
z
" clip-path="url(#pdeda0fcda2)" style="fill: #044b7f"/>
   </g>
   <g id="patch_32">
    <path d="M 315.33096 303.685 
L 324.24944 303.685 
L 324.24944 303.685 
L 315.33096 303.685 
z
" clip-path="url(#pdeda0fcda2)" style="fill: #044b7f"/>
   </g>
   <g id="patch_33">
    <path d="M 324.24944 303.685 
L 333.167919 303.685 
L 333.167919 303.685 
L 324.24944 303.685 
z
" clip-path="url(#pdeda0fcda2)" style="fill: #044b7f"/>
   </g>
   <g id="patch_34">
    <path d="M 333.167919 303.685 
L 342.086399 303.685 
L 342.086399 303.685 
L 333.167919 303.685 
z
" clip-path="url(#pdeda0fcda2)" style="fill: #044b7f"/>
   </g>
   <g id="patch_35">
    <path d="M 342.086399 303.685 
L 351.004878 303.685 
L 351.004878 303.685 
L 342.086399 303.685 
z
" clip-path="url(#pdeda0fcda2)" style="fill: #044b7f"/>
   </g>
   <g id="patch_36">
    <path d="M 351.004878 303.685 
L 359.923358 303.685 
L 359.923358 303.685 
L 351.004878 303.685 
z
" clip-path="url(#pdeda0fcda2)" style="fill: #044b7f"/>
   </g>
   <g id="patch_37">
    <path d="M 359.923358 303.685 
L 368.841837 303.685 
L 368.841837 303.685 
L 359.923358 303.685 
z
" clip-path="url(#pdeda0fcda2)" style="fill: #044b7f"/>
   </g>
   <g id="patch_38">
    <path d="M 368.841837 303.685 
L 377.760317 303.685 
L 377.760317 303.685 
L 368.841837 303.685 
z
" clip-path="url(#pdeda0fcda2)" style="fill: #044b7f"/>
   </g>
   <g id="patch_39">
    <path d="M 377.760317 303.685 
L 386.678796 303.685 
L 386.678796 274.469656 
L 377.760317 274.469656 
z
" clip-path="url(#pdeda0fcda2)" style="fill: #044b7f"/>
   </g>
   <g id="patch_40">
    <path d="M 386.678796 303.685 
L 395.597275 303.685 
L 395.597275 303.685 
L 386.678796 303.685 
z
" clip-path="url(#pdeda0fcda2)" style="fill: #044b7f"/>
   </g>
   <g id="patch_41">
    <path d="M 395.597275 303.685 
L 404.515755 303.685 
L 404.515755 303.685 
L 395.597275 303.685 
z
" clip-path="url(#pdeda0fcda2)" style="fill: #044b7f"/>
   </g>
   <g id="patch_42">
    <path d="M 404.515755 303.685 
L 413.434234 303.685 
L 413.434234 303.685 
L 404.515755 303.685 
z
" clip-path="url(#pdeda0fcda2)" style="fill: #044b7f"/>
   </g>
   <g id="patch_43">
    <path d="M 413.434234 303.685 
L 422.352714 303.685 
L 422.352714 274.469656 
L 413.434234 274.469656 
z
" clip-path="url(#pdeda0fcda2)" style="fill: #044b7f"/>
   </g>
   <g id="patch_44">
    <path d="M 422.352714 303.685 
L 431.271193 303.685 
L 431.271193 274.469656 
L 422.352714 274.469656 
z
" clip-path="url(#pdeda0fcda2)" style="fill: #044b7f"/>
   </g>
   <g id="matplotlib.axis_1">
    <g id="xtick_1">
     <g id="line2d_1">
      <path d="M 56.695057 303.685 
L 56.695057 27.6 
" clip-path="url(#pdeda0fcda2)" style="fill: none; stroke: #000000; stroke-width: 0.8; stroke-linecap: square"/>
     </g>
     <g id="line2d_2">
      <defs>
       <path id="m1a4eca162e" d="M 0 0 
L 0 3.5 
" style="stroke: #000000; stroke-width: 0.8"/>
      </defs>
      <g>
       <use xlink:href="#m1a4eca162e" x="56.695057" y="303.685" style="stroke: #000000; stroke-width: 0.8"/>
      </g>
     </g>
     <g id="text_1">
      <!-- 3 -->
      <g transform="translate(54.195057 317.624062)scale(0.1 -0.1)">
       <defs>
        <path id="Cmr10-33" d="M 609 494 
Q 759 275 1012 169 
Q 1266 63 1556 63 
Q 1928 63 2084 380 
Q 2241 697 2241 1100 
Q 2241 1281 2208 1462 
Q 2175 1644 2097 1800 
Q 2019 1956 1883 2050 
Q 1747 2144 1550 2144 
L 1125 2144 
Q 1069 2144 1069 2203 
L 1069 2259 
Q 1069 2309 1125 2309 
L 1478 2338 
Q 1703 2338 1851 2506 
Q 2000 2675 2069 2917 
Q 2138 3159 2138 3378 
Q 2138 3684 1994 3881 
Q 1850 4078 1556 4078 
Q 1313 4078 1091 3986 
Q 869 3894 738 3706 
Q 750 3709 759 3711 
Q 769 3713 781 3713 
Q 925 3713 1022 3613 
Q 1119 3513 1119 3372 
Q 1119 3234 1022 3134 
Q 925 3034 781 3034 
Q 641 3034 541 3134 
Q 441 3234 441 3372 
Q 441 3647 606 3850 
Q 772 4053 1033 4158 
Q 1294 4263 1556 4263 
Q 1750 4263 1965 4205 
Q 2181 4147 2356 4039 
Q 2531 3931 2642 3762 
Q 2753 3594 2753 3378 
Q 2753 3109 2633 2881 
Q 2513 2653 2303 2487 
Q 2094 2322 1844 2241 
Q 2122 2188 2372 2031 
Q 2622 1875 2773 1631 
Q 2925 1388 2925 1106 
Q 2925 753 2731 467 
Q 2538 181 2222 20 
Q 1906 -141 1556 -141 
Q 1256 -141 954 -26 
Q 653 88 461 316 
Q 269 544 269 863 
Q 269 1022 375 1128 
Q 481 1234 641 1234 
Q 744 1234 830 1186 
Q 916 1138 964 1050 
Q 1013 963 1013 863 
Q 1013 706 903 600 
Q 794 494 641 494 
L 609 494 
z
" transform="scale(0.015625)"/>
       </defs>
       <use xlink:href="#Cmr10-33"/>
      </g>
     </g>
    </g>
    <g id="xtick_2">
     <g id="line2d_3">
      <path d="M 65.613536 303.685 
L 65.613536 27.6 
" clip-path="url(#pdeda0fcda2)" style="fill: none; stroke: #000000; stroke-width: 0.8; stroke-linecap: square"/>
     </g>
     <g id="line2d_4">
      <g>
       <use xlink:href="#m1a4eca162e" x="65.613536" y="303.685" style="stroke: #000000; stroke-width: 0.8"/>
      </g>
     </g>
     <g id="text_2">
      <!-- 4 -->
      <g transform="translate(63.113536 317.624062)scale(0.1 -0.1)">
       <defs>
        <path id="Cmr10-34" d="M 178 1056 
L 178 1281 
L 2156 4231 
Q 2178 4263 2222 4263 
L 2316 4263 
Q 2388 4263 2388 4191 
L 2388 1281 
L 3016 1281 
L 3016 1056 
L 2388 1056 
L 2388 428 
Q 2388 297 2575 261 
Q 2763 225 3009 225 
L 3009 0 
L 1247 0 
L 1247 225 
Q 1494 225 1681 261 
Q 1869 297 1869 428 
L 1869 1056 
L 178 1056 
z
M 391 1281 
L 1906 1281 
L 1906 3547 
L 391 1281 
z
" transform="scale(0.015625)"/>
       </defs>
       <use xlink:href="#Cmr10-34"/>
      </g>
     </g>
    </g>
    <g id="xtick_3">
     <g id="line2d_5">
      <path d="M 74.532016 303.685 
L 74.532016 27.6 
" clip-path="url(#pdeda0fcda2)" style="fill: none; stroke: #000000; stroke-width: 0.8; stroke-linecap: square"/>
     </g>
     <g id="line2d_6">
      <g>
       <use xlink:href="#m1a4eca162e" x="74.532016" y="303.685" style="stroke: #000000; stroke-width: 0.8"/>
      </g>
     </g>
     <g id="text_3">
      <!-- 5 -->
      <g transform="translate(72.032016 317.624062)scale(0.1 -0.1)">
       <defs>
        <path id="Cmr10-35" d="M 556 728 
Q 622 541 758 387 
Q 894 234 1080 148 
Q 1266 63 1466 63 
Q 1928 63 2103 422 
Q 2278 781 2278 1294 
Q 2278 1516 2270 1667 
Q 2263 1819 2228 1959 
Q 2169 2184 2020 2353 
Q 1872 2522 1656 2522 
Q 1441 2522 1286 2456 
Q 1131 2391 1034 2303 
Q 938 2216 863 2119 
Q 788 2022 769 2016 
L 697 2016 
Q 681 2016 657 2036 
Q 634 2056 634 2075 
L 634 4213 
Q 634 4228 654 4245 
Q 675 4263 697 4263 
L 716 4263 
Q 1147 4056 1631 4056 
Q 2106 4056 2547 4263 
L 2566 4263 
Q 2588 4263 2606 4247 
Q 2625 4231 2625 4213 
L 2625 4153 
Q 2625 4122 2613 4122 
Q 2394 3831 2064 3668 
Q 1734 3506 1381 3506 
Q 1125 3506 856 3578 
L 856 2369 
Q 1069 2541 1236 2614 
Q 1403 2688 1663 2688 
Q 2016 2688 2295 2484 
Q 2575 2281 2725 1954 
Q 2875 1628 2875 1288 
Q 2875 903 2686 575 
Q 2497 247 2172 53 
Q 1847 -141 1466 -141 
Q 1150 -141 886 21 
Q 622 184 470 459 
Q 319 734 319 1044 
Q 319 1188 412 1278 
Q 506 1369 647 1369 
Q 788 1369 883 1276 
Q 978 1184 978 1044 
Q 978 906 883 811 
Q 788 716 647 716 
Q 625 716 597 720 
Q 569 725 556 728 
z
" transform="scale(0.015625)"/>
       </defs>
       <use xlink:href="#Cmr10-35"/>
      </g>
     </g>
    </g>
    <g id="xtick_4">
     <g id="line2d_7">
      <path d="M 83.450495 303.685 
L 83.450495 27.6 
" clip-path="url(#pdeda0fcda2)" style="fill: none; stroke: #000000; stroke-width: 0.8; stroke-linecap: square"/>
     </g>
     <g id="line2d_8">
      <g>
       <use xlink:href="#m1a4eca162e" x="83.450495" y="303.685" style="stroke: #000000; stroke-width: 0.8"/>
      </g>
     </g>
     <g id="text_4">
      <!-- 6 -->
      <g transform="translate(80.950495 317.624062)scale(0.1 -0.1)">
       <defs>
        <path id="Cmr10-36" d="M 1600 -141 
Q 1203 -141 937 70 
Q 672 281 526 617 
Q 381 953 325 1322 
Q 269 1691 269 2069 
Q 269 2575 466 3084 
Q 663 3594 1045 3928 
Q 1428 4263 1953 4263 
Q 2172 4263 2361 4180 
Q 2550 4097 2658 3936 
Q 2766 3775 2766 3547 
Q 2766 3416 2677 3327 
Q 2588 3238 2456 3238 
Q 2331 3238 2240 3328 
Q 2150 3419 2150 3547 
Q 2150 3672 2240 3762 
Q 2331 3853 2456 3853 
L 2491 3853 
Q 2409 3969 2261 4023 
Q 2113 4078 1953 4078 
Q 1759 4078 1595 3993 
Q 1431 3909 1300 3765 
Q 1169 3622 1081 3448 
Q 994 3275 945 3053 
Q 897 2831 884 2637 
Q 872 2444 872 2150 
Q 984 2413 1190 2580 
Q 1397 2747 1656 2747 
Q 1941 2747 2175 2631 
Q 2409 2516 2578 2311 
Q 2747 2106 2836 1843 
Q 2925 1581 2925 1313 
Q 2925 938 2758 598 
Q 2591 259 2287 59 
Q 1984 -141 1600 -141 
z
M 1600 63 
Q 1847 63 1997 175 
Q 2147 288 2217 473 
Q 2288 659 2305 848 
Q 2322 1038 2322 1313 
Q 2322 1675 2287 1931 
Q 2253 2188 2100 2383 
Q 1947 2578 1631 2578 
Q 1372 2578 1205 2403 
Q 1038 2228 961 1961 
Q 884 1694 884 1447 
Q 884 1363 891 1319 
Q 891 1309 889 1303 
Q 888 1297 884 1288 
Q 884 1013 940 731 
Q 997 450 1156 256 
Q 1316 63 1600 63 
z
" transform="scale(0.015625)"/>
       </defs>
       <use xlink:href="#Cmr10-36"/>
      </g>
     </g>
    </g>
    <g id="xtick_5">
     <g id="line2d_9">
      <path d="M 92.368975 303.685 
L 92.368975 27.6 
" clip-path="url(#pdeda0fcda2)" style="fill: none; stroke: #000000; stroke-width: 0.8; stroke-linecap: square"/>
     </g>
     <g id="line2d_10">
      <g>
       <use xlink:href="#m1a4eca162e" x="92.368975" y="303.685" style="stroke: #000000; stroke-width: 0.8"/>
      </g>
     </g>
     <g id="text_5">
      <!-- 7 -->
      <g transform="translate(89.868975 317.624062)scale(0.1 -0.1)">
       <defs>
        <path id="Cmr10-37" d="M 1113 166 
Q 1113 522 1175 862 
Q 1238 1203 1358 1536 
Q 1478 1869 1648 2189 
Q 1819 2509 2022 2791 
L 2606 3603 
L 1875 3603 
Q 738 3603 703 3572 
Q 619 3469 544 2981 
L 359 2981 
L 569 4325 
L 756 4325 
L 756 4306 
Q 756 4191 1147 4156 
Q 1538 4122 1913 4122 
L 3103 4122 
L 3103 3956 
Q 3103 3950 3101 3947 
Q 3100 3944 3097 3938 
L 2216 2700 
Q 1891 2219 1809 1631 
Q 1728 1044 1728 166 
Q 1728 41 1637 -50 
Q 1547 -141 1422 -141 
Q 1294 -141 1203 -50 
Q 1113 41 1113 166 
z
" transform="scale(0.015625)"/>
       </defs>
       <use xlink:href="#Cmr10-37"/>
      </g>
     </g>
    </g>
    <g id="xtick_6">
     <g id="line2d_11">
      <path d="M 101.287454 303.685 
L 101.287454 27.6 
" clip-path="url(#pdeda0fcda2)" style="fill: none; stroke: #000000; stroke-width: 0.8; stroke-linecap: square"/>
     </g>
     <g id="line2d_12">
      <g>
       <use xlink:href="#m1a4eca162e" x="101.287454" y="303.685" style="stroke: #000000; stroke-width: 0.8"/>
      </g>
     </g>
     <g id="text_6">
      <!-- 8 -->
      <g transform="translate(98.787454 317.624062)scale(0.1 -0.1)">
       <defs>
        <path id="Cmr10-38" d="M 269 972 
Q 269 1356 522 1651 
Q 775 1947 1172 2144 
L 934 2297 
Q 716 2441 578 2680 
Q 441 2919 441 3181 
Q 441 3488 602 3734 
Q 763 3981 1030 4122 
Q 1297 4263 1600 4263 
Q 1884 4263 2148 4147 
Q 2413 4031 2583 3815 
Q 2753 3600 2753 3303 
Q 2753 3088 2651 2903 
Q 2550 2719 2373 2572 
Q 2197 2425 1997 2322 
L 2363 2088 
Q 2616 1922 2770 1653 
Q 2925 1384 2925 1088 
Q 2925 741 2739 456 
Q 2553 172 2247 15 
Q 1941 -141 1600 -141 
Q 1269 -141 961 -6 
Q 653 128 461 383 
Q 269 638 269 972 
z
M 616 972 
Q 616 719 755 509 
Q 894 300 1122 181 
Q 1350 63 1600 63 
Q 1972 63 2275 280 
Q 2578 497 2578 856 
Q 2578 978 2529 1098 
Q 2481 1219 2395 1317 
Q 2309 1416 2203 1478 
L 1344 2034 
Q 1144 1928 976 1765 
Q 809 1603 712 1400 
Q 616 1197 616 972 
z
M 1056 2925 
L 1831 2425 
Q 2100 2581 2272 2803 
Q 2444 3025 2444 3303 
Q 2444 3519 2323 3698 
Q 2203 3878 2009 3978 
Q 1816 4078 1594 4078 
Q 1400 4078 1203 4003 
Q 1006 3928 878 3779 
Q 750 3631 750 3431 
Q 750 3131 1056 2925 
z
" transform="scale(0.015625)"/>
       </defs>
       <use xlink:href="#Cmr10-38"/>
      </g>
     </g>
    </g>
    <g id="xtick_7">
     <g id="line2d_13">
      <path d="M 110.205933 303.685 
L 110.205933 27.6 
" clip-path="url(#pdeda0fcda2)" style="fill: none; stroke: #000000; stroke-width: 0.8; stroke-linecap: square"/>
     </g>
     <g id="line2d_14">
      <g>
       <use xlink:href="#m1a4eca162e" x="110.205933" y="303.685" style="stroke: #000000; stroke-width: 0.8"/>
      </g>
     </g>
     <g id="text_7">
      <!-- 9 -->
      <g transform="translate(107.705933 317.624062)scale(0.1 -0.1)">
       <defs>
        <path id="Cmr10-39" d="M 722 269 
Q 897 63 1331 63 
Q 1575 63 1786 228 
Q 1997 394 2113 634 
Q 2247 906 2284 1214 
Q 2322 1522 2322 1978 
Q 2213 1719 2008 1553 
Q 1803 1388 1538 1388 
Q 1166 1388 873 1589 
Q 581 1791 425 2120 
Q 269 2450 269 2822 
Q 269 3206 444 3539 
Q 619 3872 928 4067 
Q 1238 4263 1631 4263 
Q 2019 4263 2280 4052 
Q 2541 3841 2678 3508 
Q 2816 3175 2870 2803 
Q 2925 2431 2925 2069 
Q 2925 1575 2744 1061 
Q 2563 547 2202 203 
Q 1841 -141 1331 -141 
Q 953 -141 690 37 
Q 428 216 428 575 
Q 428 706 517 795 
Q 606 884 738 884 
Q 866 884 955 795 
Q 1044 706 1044 575 
Q 1044 450 953 359 
Q 863 269 738 269 
L 722 269 
z
M 1563 1556 
Q 1825 1556 1992 1732 
Q 2159 1909 2234 2171 
Q 2309 2434 2309 2694 
L 2309 2816 
L 2309 2841 
Q 2309 3322 2168 3700 
Q 2028 4078 1631 4078 
Q 1378 4078 1220 3967 
Q 1063 3856 988 3672 
Q 913 3488 892 3278 
Q 872 3069 872 2822 
Q 872 2459 906 2203 
Q 941 1947 1094 1751 
Q 1247 1556 1563 1556 
z
" transform="scale(0.015625)"/>
       </defs>
       <use xlink:href="#Cmr10-39"/>
      </g>
     </g>
    </g>
    <g id="xtick_8">
     <g id="line2d_15">
      <path d="M 119.124413 303.685 
L 119.124413 27.6 
" clip-path="url(#pdeda0fcda2)" style="fill: none; stroke: #000000; stroke-width: 0.8; stroke-linecap: square"/>
     </g>
     <g id="line2d_16">
      <g>
       <use xlink:href="#m1a4eca162e" x="119.124413" y="303.685" style="stroke: #000000; stroke-width: 0.8"/>
      </g>
     </g>
     <g id="text_8">
      <!-- 10 -->
      <g transform="translate(114.124413 317.624062)scale(0.1 -0.1)">
       <defs>
        <path id="Cmr10-31" d="M 594 0 
L 594 225 
Q 1394 225 1394 428 
L 1394 3788 
Q 1063 3628 556 3628 
L 556 3853 
Q 1341 3853 1741 4263 
L 1831 4263 
Q 1853 4263 1873 4245 
Q 1894 4228 1894 4206 
L 1894 428 
Q 1894 225 2694 225 
L 2694 0 
L 594 0 
z
" transform="scale(0.015625)"/>
        <path id="Cmr10-30" d="M 1600 -141 
Q 816 -141 533 504 
Q 250 1150 250 2041 
Q 250 2597 351 3087 
Q 453 3578 754 3920 
Q 1056 4263 1600 4263 
Q 2022 4263 2290 4056 
Q 2559 3850 2700 3523 
Q 2841 3197 2892 2823 
Q 2944 2450 2944 2041 
Q 2944 1491 2842 1011 
Q 2741 531 2444 195 
Q 2147 -141 1600 -141 
z
M 1600 25 
Q 1956 25 2131 390 
Q 2306 756 2347 1200 
Q 2388 1644 2388 2144 
Q 2388 2625 2347 3031 
Q 2306 3438 2132 3767 
Q 1959 4097 1600 4097 
Q 1238 4097 1063 3765 
Q 888 3434 847 3029 
Q 806 2625 806 2144 
Q 806 1788 823 1472 
Q 841 1156 916 820 
Q 991 484 1158 254 
Q 1325 25 1600 25 
z
" transform="scale(0.015625)"/>
       </defs>
       <use xlink:href="#Cmr10-31"/>
       <use xlink:href="#Cmr10-30" x="50"/>
      </g>
     </g>
    </g>
    <g id="xtick_9">
     <g id="line2d_17">
      <path d="M 128.042892 303.685 
L 128.042892 27.6 
" clip-path="url(#pdeda0fcda2)" style="fill: none; stroke: #000000; stroke-width: 0.8; stroke-linecap: square"/>
     </g>
     <g id="line2d_18">
      <g>
       <use xlink:href="#m1a4eca162e" x="128.042892" y="303.685" style="stroke: #000000; stroke-width: 0.8"/>
      </g>
     </g>
     <g id="text_9">
      <!-- 11 -->
      <g transform="translate(123.042892 317.624062)scale(0.1 -0.1)">
       <use xlink:href="#Cmr10-31"/>
       <use xlink:href="#Cmr10-31" x="50"/>
      </g>
     </g>
    </g>
    <g id="xtick_10">
     <g id="line2d_19">
      <path d="M 136.961372 303.685 
L 136.961372 27.6 
" clip-path="url(#pdeda0fcda2)" style="fill: none; stroke: #000000; stroke-width: 0.8; stroke-linecap: square"/>
     </g>
     <g id="line2d_20">
      <g>
       <use xlink:href="#m1a4eca162e" x="136.961372" y="303.685" style="stroke: #000000; stroke-width: 0.8"/>
      </g>
     </g>
     <g id="text_10">
      <!-- 12 -->
      <g transform="translate(131.961372 317.624062)scale(0.1 -0.1)">
       <defs>
        <path id="Cmr10-32" d="M 319 0 
L 319 172 
Q 319 188 331 206 
L 1325 1306 
Q 1550 1550 1690 1715 
Q 1831 1881 1968 2097 
Q 2106 2313 2186 2536 
Q 2266 2759 2266 3009 
Q 2266 3272 2169 3511 
Q 2072 3750 1880 3894 
Q 1688 4038 1416 4038 
Q 1138 4038 916 3870 
Q 694 3703 603 3438 
Q 628 3444 672 3444 
Q 816 3444 917 3347 
Q 1019 3250 1019 3097 
Q 1019 2950 917 2848 
Q 816 2747 672 2747 
Q 522 2747 420 2851 
Q 319 2956 319 3097 
Q 319 3338 409 3548 
Q 500 3759 670 3923 
Q 841 4088 1055 4175 
Q 1269 4263 1509 4263 
Q 1875 4263 2190 4108 
Q 2506 3953 2690 3670 
Q 2875 3388 2875 3009 
Q 2875 2731 2753 2481 
Q 2631 2231 2440 2026 
Q 2250 1822 1953 1562 
Q 1656 1303 1563 1216 
L 838 519 
L 1453 519 
Q 1906 519 2211 526 
Q 2516 534 2534 550 
Q 2609 631 2688 1141 
L 2875 1141 
L 2694 0 
L 319 0 
z
" transform="scale(0.015625)"/>
       </defs>
       <use xlink:href="#Cmr10-31"/>
       <use xlink:href="#Cmr10-32" x="50"/>
      </g>
     </g>
    </g>
    <g id="xtick_11">
     <g id="line2d_21">
      <path d="M 145.879851 303.685 
L 145.879851 27.6 
" clip-path="url(#pdeda0fcda2)" style="fill: none; stroke: #000000; stroke-width: 0.8; stroke-linecap: square"/>
     </g>
     <g id="line2d_22">
      <g>
       <use xlink:href="#m1a4eca162e" x="145.879851" y="303.685" style="stroke: #000000; stroke-width: 0.8"/>
      </g>
     </g>
     <g id="text_11">
      <!-- 13 -->
      <g transform="translate(140.879851 317.624062)scale(0.1 -0.1)">
       <use xlink:href="#Cmr10-31"/>
       <use xlink:href="#Cmr10-33" x="50"/>
      </g>
     </g>
    </g>
    <g id="xtick_12">
     <g id="line2d_23">
      <path d="M 154.798331 303.685 
L 154.798331 27.6 
" clip-path="url(#pdeda0fcda2)" style="fill: none; stroke: #000000; stroke-width: 0.8; stroke-linecap: square"/>
     </g>
     <g id="line2d_24">
      <g>
       <use xlink:href="#m1a4eca162e" x="154.798331" y="303.685" style="stroke: #000000; stroke-width: 0.8"/>
      </g>
     </g>
     <g id="text_12">
      <!-- 14 -->
      <g transform="translate(149.798331 317.624062)scale(0.1 -0.1)">
       <use xlink:href="#Cmr10-31"/>
       <use xlink:href="#Cmr10-34" x="50"/>
      </g>
     </g>
    </g>
    <g id="xtick_13">
     <g id="line2d_25">
      <path d="M 163.71681 303.685 
L 163.71681 27.6 
" clip-path="url(#pdeda0fcda2)" style="fill: none; stroke: #000000; stroke-width: 0.8; stroke-linecap: square"/>
     </g>
     <g id="line2d_26">
      <g>
       <use xlink:href="#m1a4eca162e" x="163.71681" y="303.685" style="stroke: #000000; stroke-width: 0.8"/>
      </g>
     </g>
     <g id="text_13">
      <!-- 15 -->
      <g transform="translate(158.71681 317.624062)scale(0.1 -0.1)">
       <use xlink:href="#Cmr10-31"/>
       <use xlink:href="#Cmr10-35" x="50"/>
      </g>
     </g>
    </g>
    <g id="xtick_14">
     <g id="line2d_27">
      <path d="M 172.63529 303.685 
L 172.63529 27.6 
" clip-path="url(#pdeda0fcda2)" style="fill: none; stroke: #000000; stroke-width: 0.8; stroke-linecap: square"/>
     </g>
     <g id="line2d_28">
      <g>
       <use xlink:href="#m1a4eca162e" x="172.63529" y="303.685" style="stroke: #000000; stroke-width: 0.8"/>
      </g>
     </g>
     <g id="text_14">
      <!-- 16 -->
      <g transform="translate(167.63529 317.624062)scale(0.1 -0.1)">
       <use xlink:href="#Cmr10-31"/>
       <use xlink:href="#Cmr10-36" x="50"/>
      </g>
     </g>
    </g>
    <g id="xtick_15">
     <g id="line2d_29">
      <path d="M 181.553769 303.685 
L 181.553769 27.6 
" clip-path="url(#pdeda0fcda2)" style="fill: none; stroke: #000000; stroke-width: 0.8; stroke-linecap: square"/>
     </g>
     <g id="line2d_30">
      <g>
       <use xlink:href="#m1a4eca162e" x="181.553769" y="303.685" style="stroke: #000000; stroke-width: 0.8"/>
      </g>
     </g>
     <g id="text_15">
      <!-- 17 -->
      <g transform="translate(176.553769 317.624062)scale(0.1 -0.1)">
       <use xlink:href="#Cmr10-31"/>
       <use xlink:href="#Cmr10-37" x="50"/>
      </g>
     </g>
    </g>
    <g id="xtick_16">
     <g id="line2d_31">
      <path d="M 190.472248 303.685 
L 190.472248 27.6 
" clip-path="url(#pdeda0fcda2)" style="fill: none; stroke: #000000; stroke-width: 0.8; stroke-linecap: square"/>
     </g>
     <g id="line2d_32">
      <g>
       <use xlink:href="#m1a4eca162e" x="190.472248" y="303.685" style="stroke: #000000; stroke-width: 0.8"/>
      </g>
     </g>
     <g id="text_16">
      <!-- 18 -->
      <g transform="translate(185.472248 317.624062)scale(0.1 -0.1)">
       <use xlink:href="#Cmr10-31"/>
       <use xlink:href="#Cmr10-38" x="50"/>
      </g>
     </g>
    </g>
    <g id="xtick_17">
     <g id="line2d_33">
      <path d="M 199.390728 303.685 
L 199.390728 27.6 
" clip-path="url(#pdeda0fcda2)" style="fill: none; stroke: #000000; stroke-width: 0.8; stroke-linecap: square"/>
     </g>
     <g id="line2d_34">
      <g>
       <use xlink:href="#m1a4eca162e" x="199.390728" y="303.685" style="stroke: #000000; stroke-width: 0.8"/>
      </g>
     </g>
     <g id="text_17">
      <!-- 19 -->
      <g transform="translate(194.390728 317.624062)scale(0.1 -0.1)">
       <use xlink:href="#Cmr10-31"/>
       <use xlink:href="#Cmr10-39" x="50"/>
      </g>
     </g>
    </g>
    <g id="xtick_18">
     <g id="line2d_35">
      <path d="M 208.309207 303.685 
L 208.309207 27.6 
" clip-path="url(#pdeda0fcda2)" style="fill: none; stroke: #000000; stroke-width: 0.8; stroke-linecap: square"/>
     </g>
     <g id="line2d_36">
      <g>
       <use xlink:href="#m1a4eca162e" x="208.309207" y="303.685" style="stroke: #000000; stroke-width: 0.8"/>
      </g>
     </g>
     <g id="text_18">
      <!-- 20 -->
      <g transform="translate(203.309207 317.624062)scale(0.1 -0.1)">
       <use xlink:href="#Cmr10-32"/>
       <use xlink:href="#Cmr10-30" x="50"/>
      </g>
     </g>
    </g>
    <g id="xtick_19">
     <g id="line2d_37">
      <path d="M 217.227687 303.685 
L 217.227687 27.6 
" clip-path="url(#pdeda0fcda2)" style="fill: none; stroke: #000000; stroke-width: 0.8; stroke-linecap: square"/>
     </g>
     <g id="line2d_38">
      <g>
       <use xlink:href="#m1a4eca162e" x="217.227687" y="303.685" style="stroke: #000000; stroke-width: 0.8"/>
      </g>
     </g>
     <g id="text_19">
      <!-- 21 -->
      <g transform="translate(212.227687 317.624062)scale(0.1 -0.1)">
       <use xlink:href="#Cmr10-32"/>
       <use xlink:href="#Cmr10-31" x="50"/>
      </g>
     </g>
    </g>
    <g id="xtick_20">
     <g id="line2d_39">
      <path d="M 226.146166 303.685 
L 226.146166 27.6 
" clip-path="url(#pdeda0fcda2)" style="fill: none; stroke: #000000; stroke-width: 0.8; stroke-linecap: square"/>
     </g>
     <g id="line2d_40">
      <g>
       <use xlink:href="#m1a4eca162e" x="226.146166" y="303.685" style="stroke: #000000; stroke-width: 0.8"/>
      </g>
     </g>
     <g id="text_20">
      <!-- 22 -->
      <g transform="translate(221.146166 317.624062)scale(0.1 -0.1)">
       <use xlink:href="#Cmr10-32"/>
       <use xlink:href="#Cmr10-32" x="50"/>
      </g>
     </g>
    </g>
    <g id="xtick_21">
     <g id="line2d_41">
      <path d="M 235.064646 303.685 
L 235.064646 27.6 
" clip-path="url(#pdeda0fcda2)" style="fill: none; stroke: #000000; stroke-width: 0.8; stroke-linecap: square"/>
     </g>
     <g id="line2d_42">
      <g>
       <use xlink:href="#m1a4eca162e" x="235.064646" y="303.685" style="stroke: #000000; stroke-width: 0.8"/>
      </g>
     </g>
     <g id="text_21">
      <!-- 23 -->
      <g transform="translate(230.064646 317.624062)scale(0.1 -0.1)">
       <use xlink:href="#Cmr10-32"/>
       <use xlink:href="#Cmr10-33" x="50"/>
      </g>
     </g>
    </g>
    <g id="xtick_22">
     <g id="line2d_43">
      <path d="M 243.983125 303.685 
L 243.983125 27.6 
" clip-path="url(#pdeda0fcda2)" style="fill: none; stroke: #000000; stroke-width: 0.8; stroke-linecap: square"/>
     </g>
     <g id="line2d_44">
      <g>
       <use xlink:href="#m1a4eca162e" x="243.983125" y="303.685" style="stroke: #000000; stroke-width: 0.8"/>
      </g>
     </g>
     <g id="text_22">
      <!-- 24 -->
      <g transform="translate(238.983125 317.624062)scale(0.1 -0.1)">
       <use xlink:href="#Cmr10-32"/>
       <use xlink:href="#Cmr10-34" x="50"/>
      </g>
     </g>
    </g>
    <g id="xtick_23">
     <g id="line2d_45">
      <path d="M 252.901604 303.685 
L 252.901604 27.6 
" clip-path="url(#pdeda0fcda2)" style="fill: none; stroke: #000000; stroke-width: 0.8; stroke-linecap: square"/>
     </g>
     <g id="line2d_46">
      <g>
       <use xlink:href="#m1a4eca162e" x="252.901604" y="303.685" style="stroke: #000000; stroke-width: 0.8"/>
      </g>
     </g>
     <g id="text_23">
      <!-- 25 -->
      <g transform="translate(247.901604 317.624062)scale(0.1 -0.1)">
       <use xlink:href="#Cmr10-32"/>
       <use xlink:href="#Cmr10-35" x="50"/>
      </g>
     </g>
    </g>
    <g id="xtick_24">
     <g id="line2d_47">
      <path d="M 261.820084 303.685 
L 261.820084 27.6 
" clip-path="url(#pdeda0fcda2)" style="fill: none; stroke: #000000; stroke-width: 0.8; stroke-linecap: square"/>
     </g>
     <g id="line2d_48">
      <g>
       <use xlink:href="#m1a4eca162e" x="261.820084" y="303.685" style="stroke: #000000; stroke-width: 0.8"/>
      </g>
     </g>
     <g id="text_24">
      <!-- 26 -->
      <g transform="translate(256.820084 317.624062)scale(0.1 -0.1)">
       <use xlink:href="#Cmr10-32"/>
       <use xlink:href="#Cmr10-36" x="50"/>
      </g>
     </g>
    </g>
    <g id="xtick_25">
     <g id="line2d_49">
      <path d="M 270.738563 303.685 
L 270.738563 27.6 
" clip-path="url(#pdeda0fcda2)" style="fill: none; stroke: #000000; stroke-width: 0.8; stroke-linecap: square"/>
     </g>
     <g id="line2d_50">
      <g>
       <use xlink:href="#m1a4eca162e" x="270.738563" y="303.685" style="stroke: #000000; stroke-width: 0.8"/>
      </g>
     </g>
     <g id="text_25">
      <!-- 27 -->
      <g transform="translate(265.738563 317.624062)scale(0.1 -0.1)">
       <use xlink:href="#Cmr10-32"/>
       <use xlink:href="#Cmr10-37" x="50"/>
      </g>
     </g>
    </g>
    <g id="xtick_26">
     <g id="line2d_51">
      <path d="M 279.657043 303.685 
L 279.657043 27.6 
" clip-path="url(#pdeda0fcda2)" style="fill: none; stroke: #000000; stroke-width: 0.8; stroke-linecap: square"/>
     </g>
     <g id="line2d_52">
      <g>
       <use xlink:href="#m1a4eca162e" x="279.657043" y="303.685" style="stroke: #000000; stroke-width: 0.8"/>
      </g>
     </g>
     <g id="text_26">
      <!-- 28 -->
      <g transform="translate(274.657043 317.624062)scale(0.1 -0.1)">
       <use xlink:href="#Cmr10-32"/>
       <use xlink:href="#Cmr10-38" x="50"/>
      </g>
     </g>
    </g>
    <g id="xtick_27">
     <g id="line2d_53">
      <path d="M 288.575522 303.685 
L 288.575522 27.6 
" clip-path="url(#pdeda0fcda2)" style="fill: none; stroke: #000000; stroke-width: 0.8; stroke-linecap: square"/>
     </g>
     <g id="line2d_54">
      <g>
       <use xlink:href="#m1a4eca162e" x="288.575522" y="303.685" style="stroke: #000000; stroke-width: 0.8"/>
      </g>
     </g>
     <g id="text_27">
      <!-- 29 -->
      <g transform="translate(283.575522 317.624062)scale(0.1 -0.1)">
       <use xlink:href="#Cmr10-32"/>
       <use xlink:href="#Cmr10-39" x="50"/>
      </g>
     </g>
    </g>
    <g id="xtick_28">
     <g id="line2d_55">
      <path d="M 297.494002 303.685 
L 297.494002 27.6 
" clip-path="url(#pdeda0fcda2)" style="fill: none; stroke: #000000; stroke-width: 0.8; stroke-linecap: square"/>
     </g>
     <g id="line2d_56">
      <g>
       <use xlink:href="#m1a4eca162e" x="297.494002" y="303.685" style="stroke: #000000; stroke-width: 0.8"/>
      </g>
     </g>
     <g id="text_28">
      <!-- 30 -->
      <g transform="translate(292.494002 317.624062)scale(0.1 -0.1)">
       <use xlink:href="#Cmr10-33"/>
       <use xlink:href="#Cmr10-30" x="50"/>
      </g>
     </g>
    </g>
    <g id="xtick_29">
     <g id="line2d_57">
      <path d="M 306.412481 303.685 
L 306.412481 27.6 
" clip-path="url(#pdeda0fcda2)" style="fill: none; stroke: #000000; stroke-width: 0.8; stroke-linecap: square"/>
     </g>
     <g id="line2d_58">
      <g>
       <use xlink:href="#m1a4eca162e" x="306.412481" y="303.685" style="stroke: #000000; stroke-width: 0.8"/>
      </g>
     </g>
     <g id="text_29">
      <!-- 31 -->
      <g transform="translate(301.412481 317.624062)scale(0.1 -0.1)">
       <use xlink:href="#Cmr10-33"/>
       <use xlink:href="#Cmr10-31" x="50"/>
      </g>
     </g>
    </g>
    <g id="xtick_30">
     <g id="line2d_59">
      <path d="M 315.33096 303.685 
L 315.33096 27.6 
" clip-path="url(#pdeda0fcda2)" style="fill: none; stroke: #000000; stroke-width: 0.8; stroke-linecap: square"/>
     </g>
     <g id="line2d_60">
      <g>
       <use xlink:href="#m1a4eca162e" x="315.33096" y="303.685" style="stroke: #000000; stroke-width: 0.8"/>
      </g>
     </g>
     <g id="text_30">
      <!-- 32 -->
      <g transform="translate(310.33096 317.624062)scale(0.1 -0.1)">
       <use xlink:href="#Cmr10-33"/>
       <use xlink:href="#Cmr10-32" x="50"/>
      </g>
     </g>
    </g>
    <g id="xtick_31">
     <g id="line2d_61">
      <path d="M 324.24944 303.685 
L 324.24944 27.6 
" clip-path="url(#pdeda0fcda2)" style="fill: none; stroke: #000000; stroke-width: 0.8; stroke-linecap: square"/>
     </g>
     <g id="line2d_62">
      <g>
       <use xlink:href="#m1a4eca162e" x="324.24944" y="303.685" style="stroke: #000000; stroke-width: 0.8"/>
      </g>
     </g>
     <g id="text_31">
      <!-- 33 -->
      <g transform="translate(319.24944 317.624062)scale(0.1 -0.1)">
       <use xlink:href="#Cmr10-33"/>
       <use xlink:href="#Cmr10-33" x="50"/>
      </g>
     </g>
    </g>
    <g id="xtick_32">
     <g id="line2d_63">
      <path d="M 333.167919 303.685 
L 333.167919 27.6 
" clip-path="url(#pdeda0fcda2)" style="fill: none; stroke: #000000; stroke-width: 0.8; stroke-linecap: square"/>
     </g>
     <g id="line2d_64">
      <g>
       <use xlink:href="#m1a4eca162e" x="333.167919" y="303.685" style="stroke: #000000; stroke-width: 0.8"/>
      </g>
     </g>
     <g id="text_32">
      <!-- 34 -->
      <g transform="translate(328.167919 317.624062)scale(0.1 -0.1)">
       <use xlink:href="#Cmr10-33"/>
       <use xlink:href="#Cmr10-34" x="50"/>
      </g>
     </g>
    </g>
    <g id="xtick_33">
     <g id="line2d_65">
      <path d="M 342.086399 303.685 
L 342.086399 27.6 
" clip-path="url(#pdeda0fcda2)" style="fill: none; stroke: #000000; stroke-width: 0.8; stroke-linecap: square"/>
     </g>
     <g id="line2d_66">
      <g>
       <use xlink:href="#m1a4eca162e" x="342.086399" y="303.685" style="stroke: #000000; stroke-width: 0.8"/>
      </g>
     </g>
     <g id="text_33">
      <!-- 35 -->
      <g transform="translate(337.086399 317.624062)scale(0.1 -0.1)">
       <use xlink:href="#Cmr10-33"/>
       <use xlink:href="#Cmr10-35" x="50"/>
      </g>
     </g>
    </g>
    <g id="xtick_34">
     <g id="line2d_67">
      <path d="M 351.004878 303.685 
L 351.004878 27.6 
" clip-path="url(#pdeda0fcda2)" style="fill: none; stroke: #000000; stroke-width: 0.8; stroke-linecap: square"/>
     </g>
     <g id="line2d_68">
      <g>
       <use xlink:href="#m1a4eca162e" x="351.004878" y="303.685" style="stroke: #000000; stroke-width: 0.8"/>
      </g>
     </g>
     <g id="text_34">
      <!-- 36 -->
      <g transform="translate(346.004878 317.624062)scale(0.1 -0.1)">
       <use xlink:href="#Cmr10-33"/>
       <use xlink:href="#Cmr10-36" x="50"/>
      </g>
     </g>
    </g>
    <g id="xtick_35">
     <g id="line2d_69">
      <path d="M 359.923358 303.685 
L 359.923358 27.6 
" clip-path="url(#pdeda0fcda2)" style="fill: none; stroke: #000000; stroke-width: 0.8; stroke-linecap: square"/>
     </g>
     <g id="line2d_70">
      <g>
       <use xlink:href="#m1a4eca162e" x="359.923358" y="303.685" style="stroke: #000000; stroke-width: 0.8"/>
      </g>
     </g>
     <g id="text_35">
      <!-- 37 -->
      <g transform="translate(354.923358 317.624062)scale(0.1 -0.1)">
       <use xlink:href="#Cmr10-33"/>
       <use xlink:href="#Cmr10-37" x="50"/>
      </g>
     </g>
    </g>
    <g id="xtick_36">
     <g id="line2d_71">
      <path d="M 368.841837 303.685 
L 368.841837 27.6 
" clip-path="url(#pdeda0fcda2)" style="fill: none; stroke: #000000; stroke-width: 0.8; stroke-linecap: square"/>
     </g>
     <g id="line2d_72">
      <g>
       <use xlink:href="#m1a4eca162e" x="368.841837" y="303.685" style="stroke: #000000; stroke-width: 0.8"/>
      </g>
     </g>
     <g id="text_36">
      <!-- 38 -->
      <g transform="translate(363.841837 317.624062)scale(0.1 -0.1)">
       <use xlink:href="#Cmr10-33"/>
       <use xlink:href="#Cmr10-38" x="50"/>
      </g>
     </g>
    </g>
    <g id="xtick_37">
     <g id="line2d_73">
      <path d="M 377.760317 303.685 
L 377.760317 27.6 
" clip-path="url(#pdeda0fcda2)" style="fill: none; stroke: #000000; stroke-width: 0.8; stroke-linecap: square"/>
     </g>
     <g id="line2d_74">
      <g>
       <use xlink:href="#m1a4eca162e" x="377.760317" y="303.685" style="stroke: #000000; stroke-width: 0.8"/>
      </g>
     </g>
     <g id="text_37">
      <!-- 39 -->
      <g transform="translate(372.760317 317.624062)scale(0.1 -0.1)">
       <use xlink:href="#Cmr10-33"/>
       <use xlink:href="#Cmr10-39" x="50"/>
      </g>
     </g>
    </g>
    <g id="xtick_38">
     <g id="line2d_75">
      <path d="M 386.678796 303.685 
L 386.678796 27.6 
" clip-path="url(#pdeda0fcda2)" style="fill: none; stroke: #000000; stroke-width: 0.8; stroke-linecap: square"/>
     </g>
     <g id="line2d_76">
      <g>
       <use xlink:href="#m1a4eca162e" x="386.678796" y="303.685" style="stroke: #000000; stroke-width: 0.8"/>
      </g>
     </g>
     <g id="text_38">
      <!-- 40 -->
      <g transform="translate(381.678796 317.624062)scale(0.1 -0.1)">
       <use xlink:href="#Cmr10-34"/>
       <use xlink:href="#Cmr10-30" x="50"/>
      </g>
     </g>
    </g>
    <g id="xtick_39">
     <g id="line2d_77">
      <path d="M 395.597275 303.685 
L 395.597275 27.6 
" clip-path="url(#pdeda0fcda2)" style="fill: none; stroke: #000000; stroke-width: 0.8; stroke-linecap: square"/>
     </g>
     <g id="line2d_78">
      <g>
       <use xlink:href="#m1a4eca162e" x="395.597275" y="303.685" style="stroke: #000000; stroke-width: 0.8"/>
      </g>
     </g>
     <g id="text_39">
      <!-- 41 -->
      <g transform="translate(390.597275 317.624062)scale(0.1 -0.1)">
       <use xlink:href="#Cmr10-34"/>
       <use xlink:href="#Cmr10-31" x="50"/>
      </g>
     </g>
    </g>
    <g id="xtick_40">
     <g id="line2d_79">
      <path d="M 404.515755 303.685 
L 404.515755 27.6 
" clip-path="url(#pdeda0fcda2)" style="fill: none; stroke: #000000; stroke-width: 0.8; stroke-linecap: square"/>
     </g>
     <g id="line2d_80">
      <g>
       <use xlink:href="#m1a4eca162e" x="404.515755" y="303.685" style="stroke: #000000; stroke-width: 0.8"/>
      </g>
     </g>
     <g id="text_40">
      <!-- 42 -->
      <g transform="translate(399.515755 317.624062)scale(0.1 -0.1)">
       <use xlink:href="#Cmr10-34"/>
       <use xlink:href="#Cmr10-32" x="50"/>
      </g>
     </g>
    </g>
    <g id="xtick_41">
     <g id="line2d_81">
      <path d="M 413.434234 303.685 
L 413.434234 27.6 
" clip-path="url(#pdeda0fcda2)" style="fill: none; stroke: #000000; stroke-width: 0.8; stroke-linecap: square"/>
     </g>
     <g id="line2d_82">
      <g>
       <use xlink:href="#m1a4eca162e" x="413.434234" y="303.685" style="stroke: #000000; stroke-width: 0.8"/>
      </g>
     </g>
     <g id="text_41">
      <!-- 43 -->
      <g transform="translate(408.434234 317.624062)scale(0.1 -0.1)">
       <use xlink:href="#Cmr10-34"/>
       <use xlink:href="#Cmr10-33" x="50"/>
      </g>
     </g>
    </g>
    <g id="xtick_42">
     <g id="line2d_83">
      <path d="M 422.352714 303.685 
L 422.352714 27.6 
" clip-path="url(#pdeda0fcda2)" style="fill: none; stroke: #000000; stroke-width: 0.8; stroke-linecap: square"/>
     </g>
     <g id="line2d_84">
      <g>
       <use xlink:href="#m1a4eca162e" x="422.352714" y="303.685" style="stroke: #000000; stroke-width: 0.8"/>
      </g>
     </g>
     <g id="text_42">
      <!-- 44 -->
      <g transform="translate(417.352714 317.624062)scale(0.1 -0.1)">
       <use xlink:href="#Cmr10-34"/>
       <use xlink:href="#Cmr10-34" x="50"/>
      </g>
     </g>
    </g>
    <g id="xtick_43">
     <g id="line2d_85">
      <path d="M 431.271193 303.685 
L 431.271193 27.6 
" clip-path="url(#pdeda0fcda2)" style="fill: none; stroke: #000000; stroke-width: 0.8; stroke-linecap: square"/>
     </g>
     <g id="line2d_86">
      <g>
       <use xlink:href="#m1a4eca162e" x="431.271193" y="303.685" style="stroke: #000000; stroke-width: 0.8"/>
      </g>
     </g>
     <g id="text_43">
      <!-- 45 -->
      <g transform="translate(426.271193 317.624062)scale(0.1 -0.1)">
       <use xlink:href="#Cmr10-34"/>
       <use xlink:href="#Cmr10-35" x="50"/>
      </g>
     </g>
    </g>
    <g id="text_44">
     <!-- Convergence episode -->
     <g transform="translate(185.300312 332.730156)scale(0.13 -0.13)">
      <defs>
       <path id="Cmr10-43" d="M 1459 684 
Q 1678 406 2006 245 
Q 2334 84 2688 84 
Q 2984 84 3237 201 
Q 3491 319 3680 528 
Q 3869 738 3970 1003 
Q 4072 1269 4072 1563 
Q 4072 1613 4128 1613 
L 4206 1613 
Q 4256 1613 4256 1550 
Q 4256 1216 4128 905 
Q 4000 594 3765 358 
Q 3531 122 3226 -9 
Q 2922 -141 2591 -141 
Q 2131 -141 1720 45 
Q 1309 231 1004 554 
Q 700 878 529 1303 
Q 359 1728 359 2188 
Q 359 2647 529 3072 
Q 700 3497 1004 3822 
Q 1309 4147 1720 4330 
Q 2131 4513 2591 4513 
Q 2919 4513 3219 4370 
Q 3519 4228 3744 3969 
L 4116 4494 
Q 4153 4513 4159 4513 
L 4206 4513 
Q 4225 4513 4240 4497 
Q 4256 4481 4256 4459 
L 4256 2731 
Q 4256 2675 4206 2675 
L 4091 2675 
Q 4031 2675 4031 2731 
Q 4031 2916 3957 3144 
Q 3884 3372 3770 3576 
Q 3656 3781 3506 3938 
Q 3147 4288 2681 4288 
Q 2328 4288 2004 4128 
Q 1681 3969 1459 3688 
Q 1225 3388 1134 3005 
Q 1044 2622 1044 2188 
Q 1044 1753 1134 1368 
Q 1225 984 1459 684 
z
" transform="scale(0.015625)"/>
       <path id="Cmr10-6f" d="M 1600 -72 
Q 1216 -72 887 123 
Q 559 319 368 647 
Q 178 975 178 1363 
Q 178 1656 283 1928 
Q 388 2200 583 2414 
Q 778 2628 1037 2748 
Q 1297 2869 1600 2869 
Q 1994 2869 2317 2661 
Q 2641 2453 2828 2104 
Q 3016 1756 3016 1363 
Q 3016 978 2825 648 
Q 2634 319 2307 123 
Q 1981 -72 1600 -72 
z
M 1600 116 
Q 2113 116 2284 487 
Q 2456 859 2456 1434 
Q 2456 1756 2422 1967 
Q 2388 2178 2272 2350 
Q 2200 2456 2089 2536 
Q 1978 2616 1854 2658 
Q 1731 2700 1600 2700 
Q 1400 2700 1220 2609 
Q 1041 2519 922 2350 
Q 803 2169 770 1951 
Q 738 1734 738 1434 
Q 738 1075 800 789 
Q 863 503 1052 309 
Q 1241 116 1600 116 
z
" transform="scale(0.015625)"/>
       <path id="Cmr10-6e" d="M 191 0 
L 191 225 
Q 409 225 550 259 
Q 691 294 691 428 
L 691 2175 
Q 691 2347 639 2423 
Q 588 2500 491 2517 
Q 394 2534 191 2534 
L 191 2759 
L 1119 2828 
L 1119 2203 
Q 1247 2478 1498 2653 
Q 1750 2828 2047 2828 
Q 2491 2828 2714 2615 
Q 2938 2403 2938 1966 
L 2938 428 
Q 2938 294 3078 259 
Q 3219 225 3438 225 
L 3438 0 
L 1972 0 
L 1972 225 
Q 2191 225 2331 259 
Q 2472 294 2472 428 
L 2472 1947 
Q 2472 2259 2381 2461 
Q 2291 2663 2009 2663 
Q 1638 2663 1398 2366 
Q 1159 2069 1159 1691 
L 1159 428 
Q 1159 294 1300 259 
Q 1441 225 1656 225 
L 1656 0 
L 191 0 
z
" transform="scale(0.015625)"/>
       <path id="Cmr10-76" d="M 1563 0 
L 628 2350 
Q 569 2469 445 2501 
Q 322 2534 122 2534 
L 122 2759 
L 1466 2759 
L 1466 2534 
Q 1106 2534 1106 2381 
Q 1106 2356 1113 2344 
L 1831 538 
L 2478 2169 
Q 2497 2219 2497 2272 
Q 2497 2394 2405 2464 
Q 2313 2534 2188 2534 
L 2188 2759 
L 3250 2759 
L 3250 2534 
Q 3053 2534 2904 2443 
Q 2756 2353 2675 2175 
L 1813 0 
Q 1788 -72 1709 -72 
L 1663 -72 
Q 1584 -72 1563 0 
z
" transform="scale(0.015625)"/>
       <path id="Cmr10-65" d="M 1594 -72 
Q 1203 -72 876 133 
Q 550 338 364 680 
Q 178 1022 178 1403 
Q 178 1778 348 2115 
Q 519 2453 823 2661 
Q 1128 2869 1503 2869 
Q 1797 2869 2014 2770 
Q 2231 2672 2372 2497 
Q 2513 2322 2584 2084 
Q 2656 1847 2656 1563 
Q 2656 1478 2591 1478 
L 738 1478 
L 738 1409 
Q 738 878 952 497 
Q 1166 116 1650 116 
Q 1847 116 2014 203 
Q 2181 291 2304 447 
Q 2428 603 2472 781 
Q 2478 803 2495 820 
Q 2513 838 2534 838 
L 2591 838 
Q 2656 838 2656 756 
Q 2566 394 2266 161 
Q 1966 -72 1594 -72 
z
M 744 1638 
L 2203 1638 
Q 2203 1878 2136 2125 
Q 2069 2372 1912 2536 
Q 1756 2700 1503 2700 
Q 1141 2700 942 2361 
Q 744 2022 744 1638 
z
" transform="scale(0.015625)"/>
       <path id="Cmr10-72" d="M 166 0 
L 166 225 
Q 384 225 525 259 
Q 666 294 666 428 
L 666 2175 
Q 666 2347 614 2423 
Q 563 2500 466 2517 
Q 369 2534 166 2534 
L 166 2759 
L 1081 2828 
L 1081 2203 
Q 1184 2481 1375 2654 
Q 1566 2828 1838 2828 
Q 2028 2828 2178 2715 
Q 2328 2603 2328 2419 
Q 2328 2303 2245 2217 
Q 2163 2131 2041 2131 
Q 1922 2131 1837 2215 
Q 1753 2300 1753 2419 
Q 1753 2591 1875 2663 
L 1838 2663 
Q 1578 2663 1414 2475 
Q 1250 2288 1181 2009 
Q 1113 1731 1113 1478 
L 1113 428 
Q 1113 225 1734 225 
L 1734 0 
L 166 0 
z
" transform="scale(0.015625)"/>
       <path id="Cmr10-67" d="M 178 -500 
Q 178 -272 343 -101 
Q 509 69 738 141 
Q 609 238 542 384 
Q 475 531 475 697 
Q 475 997 666 1228 
Q 372 1516 372 1888 
Q 372 2088 458 2263 
Q 544 2438 697 2566 
Q 850 2694 1037 2761 
Q 1225 2828 1422 2828 
Q 1803 2828 2106 2606 
Q 2238 2747 2417 2823 
Q 2597 2900 2791 2900 
Q 2928 2900 3015 2801 
Q 3103 2703 3103 2566 
Q 3103 2488 3043 2428 
Q 2984 2369 2906 2369 
Q 2825 2369 2765 2428 
Q 2706 2488 2706 2566 
Q 2706 2684 2784 2731 
Q 2453 2731 2216 2503 
Q 2331 2388 2401 2220 
Q 2472 2053 2472 1888 
Q 2472 1616 2322 1398 
Q 2172 1181 1926 1061 
Q 1681 941 1422 941 
Q 1072 941 781 1131 
Q 691 1006 691 850 
Q 691 681 802 554 
Q 913 428 1081 428 
L 1606 428 
Q 1988 428 2294 359 
Q 2600 291 2808 84 
Q 3016 -122 3016 -500 
Q 3016 -781 2778 -967 
Q 2541 -1153 2211 -1236 
Q 1881 -1319 1600 -1319 
Q 1316 -1319 984 -1236 
Q 653 -1153 415 -967 
Q 178 -781 178 -500 
z
M 538 -500 
Q 538 -716 713 -861 
Q 888 -1006 1134 -1076 
Q 1381 -1147 1600 -1147 
Q 1816 -1147 2062 -1076 
Q 2309 -1006 2482 -861 
Q 2656 -716 2656 -500 
Q 2656 -166 2350 -67 
Q 2044 31 1606 31 
L 1081 31 
Q 934 31 811 -39 
Q 688 -109 613 -236 
Q 538 -363 538 -500 
z
M 1422 1113 
Q 1966 1113 1966 1888 
Q 1966 2222 1850 2439 
Q 1734 2656 1422 2656 
Q 1109 2656 993 2439 
Q 878 2222 878 1888 
Q 878 1675 922 1503 
Q 966 1331 1084 1222 
Q 1203 1113 1422 1113 
z
" transform="scale(0.015625)"/>
       <path id="Cmr10-63" d="M 1594 -72 
Q 1206 -72 890 129 
Q 575 331 394 667 
Q 213 1003 213 1381 
Q 213 1759 392 2106 
Q 572 2453 889 2661 
Q 1206 2869 1594 2869 
Q 1969 2869 2276 2722 
Q 2584 2575 2584 2241 
Q 2584 2116 2495 2023 
Q 2406 1931 2278 1931 
Q 2150 1931 2061 2023 
Q 1972 2116 1972 2241 
Q 1972 2353 2044 2436 
Q 2116 2519 2222 2541 
Q 2000 2681 1600 2681 
Q 1294 2681 1106 2478 
Q 919 2275 844 1975 
Q 769 1675 769 1381 
Q 769 1072 861 783 
Q 953 494 1158 305 
Q 1363 116 1672 116 
Q 1975 116 2187 302 
Q 2400 488 2478 788 
Q 2478 825 2528 825 
L 2606 825 
Q 2625 825 2640 808 
Q 2656 791 2656 769 
L 2656 750 
Q 2559 372 2271 150 
Q 1984 -72 1594 -72 
z
" transform="scale(0.015625)"/>
       <path id="Cmr10-20" transform="scale(0.015625)"/>
       <path id="Cmr10-70" d="M 166 -1241 
L 166 -1019 
Q 384 -1019 525 -981 
Q 666 -944 666 -813 
L 666 2272 
Q 666 2447 541 2490 
Q 416 2534 166 2534 
L 166 2759 
L 1113 2828 
L 1113 2431 
Q 1288 2625 1520 2726 
Q 1753 2828 2016 2828 
Q 2394 2828 2697 2623 
Q 3000 2419 3170 2086 
Q 3341 1753 3341 1381 
Q 3341 994 3152 659 
Q 2963 325 2636 126 
Q 2309 -72 1919 -72 
Q 1453 -72 1131 306 
L 1131 -813 
Q 1131 -944 1273 -981 
Q 1416 -1019 1631 -1019 
L 1631 -1241 
L 166 -1241 
z
M 1131 622 
Q 1244 394 1444 245 
Q 1644 97 1881 97 
Q 2103 97 2273 215 
Q 2444 334 2559 534 
Q 2675 734 2729 954 
Q 2784 1175 2784 1381 
Q 2784 1638 2692 1936 
Q 2600 2234 2411 2439 
Q 2222 2644 1953 2644 
Q 1694 2644 1476 2511 
Q 1259 2378 1131 2150 
L 1131 622 
z
" transform="scale(0.015625)"/>
       <path id="Cmr10-69" d="M 197 0 
L 197 225 
Q 416 225 556 259 
Q 697 294 697 428 
L 697 2175 
Q 697 2422 601 2478 
Q 506 2534 225 2534 
L 225 2759 
L 1147 2828 
L 1147 428 
Q 1147 294 1269 259 
Q 1391 225 1594 225 
L 1594 0 
L 197 0 
z
M 469 3928 
Q 469 4069 575 4175 
Q 681 4281 819 4281 
Q 909 4281 993 4234 
Q 1078 4188 1125 4103 
Q 1172 4019 1172 3928 
Q 1172 3791 1065 3684 
Q 959 3578 819 3578 
Q 681 3578 575 3684 
Q 469 3791 469 3928 
z
" transform="scale(0.015625)"/>
       <path id="Cmr10-73" d="M 213 -19 
L 213 1025 
Q 213 1075 269 1075 
L 347 1075 
Q 384 1075 397 1025 
Q 575 97 1259 97 
Q 1563 97 1767 234 
Q 1972 372 1972 659 
Q 1972 866 1812 1011 
Q 1653 1156 1434 1209 
L 1006 1294 
Q 791 1341 614 1437 
Q 438 1534 325 1695 
Q 213 1856 213 2069 
Q 213 2350 361 2529 
Q 509 2709 746 2789 
Q 984 2869 1259 2869 
Q 1588 2869 1831 2694 
L 2016 2853 
Q 2016 2869 2047 2869 
L 2094 2869 
Q 2113 2869 2128 2851 
Q 2144 2834 2144 2816 
L 2144 1978 
Q 2144 1919 2094 1919 
L 2016 1919 
Q 1959 1919 1959 1978 
Q 1959 2313 1773 2516 
Q 1588 2719 1253 2719 
Q 966 2719 755 2612 
Q 544 2506 544 2247 
Q 544 2069 695 1955 
Q 847 1841 1050 1791 
L 1484 1709 
Q 1703 1659 1892 1540 
Q 2081 1422 2192 1240 
Q 2303 1059 2303 831 
Q 2303 600 2223 429 
Q 2144 259 2001 146 
Q 1859 34 1665 -19 
Q 1472 -72 1259 -72 
Q 859 -72 575 197 
L 341 -56 
Q 341 -72 306 -72 
L 269 -72 
Q 213 -72 213 -19 
z
" transform="scale(0.015625)"/>
       <path id="Cmr10-64" d="M 1563 -72 
Q 1184 -72 871 133 
Q 559 338 386 672 
Q 213 1006 213 1381 
Q 213 1769 402 2101 
Q 591 2434 916 2631 
Q 1241 2828 1631 2828 
Q 1866 2828 2075 2729 
Q 2284 2631 2438 2456 
L 2438 3788 
Q 2438 3959 2386 4036 
Q 2334 4113 2239 4130 
Q 2144 4147 1941 4147 
L 1941 4372 
L 2888 4441 
L 2888 581 
Q 2888 413 2939 336 
Q 2991 259 3086 242 
Q 3181 225 3384 225 
L 3384 0 
L 2419 -72 
L 2419 331 
Q 2253 141 2025 34 
Q 1797 -72 1563 -72 
z
M 909 556 
Q 1019 347 1201 222 
Q 1384 97 1600 97 
Q 1866 97 2087 250 
Q 2309 403 2419 647 
L 2419 2181 
Q 2344 2322 2230 2433 
Q 2116 2544 1973 2603 
Q 1831 2663 1672 2663 
Q 1338 2663 1134 2473 
Q 931 2284 850 1990 
Q 769 1697 769 1375 
Q 769 1119 795 928 
Q 822 738 909 556 
z
" transform="scale(0.015625)"/>
      </defs>
      <use xlink:href="#Cmr10-43"/>
      <use xlink:href="#Cmr10-6f" x="72.216797"/>
      <use xlink:href="#Cmr10-6e" x="122.216797"/>
      <use xlink:href="#Cmr10-76" x="177.734375"/>
      <use xlink:href="#Cmr10-65" x="230.419922"/>
      <use xlink:href="#Cmr10-72" x="274.804688"/>
      <use xlink:href="#Cmr10-67" x="313.916016"/>
      <use xlink:href="#Cmr10-65" x="363.916016"/>
      <use xlink:href="#Cmr10-6e" x="408.300781"/>
      <use xlink:href="#Cmr10-63" x="463.818359"/>
      <use xlink:href="#Cmr10-65" x="508.203125"/>
      <use xlink:href="#Cmr10-20" x="552.587891"/>
      <use xlink:href="#Cmr10-65" x="585.888672"/>
      <use xlink:href="#Cmr10-70" x="630.273438"/>
      <use xlink:href="#Cmr10-69" x="685.791016"/>
      <use xlink:href="#Cmr10-73" x="713.476562"/>
      <use xlink:href="#Cmr10-6f" x="752.880859"/>
      <use xlink:href="#Cmr10-64" x="802.880859"/>
      <use xlink:href="#Cmr10-65" x="858.398438"/>
     </g>
    </g>
   </g>
   <g id="matplotlib.axis_2">
    <g id="ytick_1">
     <g id="line2d_87">
      <path d="M 37.96625 303.685 
L 450 303.685 
" clip-path="url(#pdeda0fcda2)" style="fill: none; stroke: #000000; stroke-width: 0.8; stroke-linecap: square"/>
     </g>
     <g id="line2d_88">
      <defs>
       <path id="mcd9d9a6f4d" d="M 0 0 
L -3.5 0 
" style="stroke: #000000; stroke-width: 0.8"/>
      </defs>
      <g>
       <use xlink:href="#mcd9d9a6f4d" x="37.96625" y="303.685" style="stroke: #000000; stroke-width: 0.8"/>
      </g>
     </g>
     <g id="text_45">
      <!-- 0 -->
      <g transform="translate(25.96625 307.154531)scale(0.1 -0.1)">
       <use xlink:href="#Cmr10-30"/>
      </g>
     </g>
    </g>
    <g id="ytick_2">
     <g id="line2d_89">
      <path d="M 37.96625 274.469656 
L 450 274.469656 
" clip-path="url(#pdeda0fcda2)" style="fill: none; stroke: #000000; stroke-width: 0.8; stroke-linecap: square"/>
     </g>
     <g id="line2d_90">
      <g>
       <use xlink:href="#mcd9d9a6f4d" x="37.96625" y="274.469656" style="stroke: #000000; stroke-width: 0.8"/>
      </g>
     </g>
     <g id="text_46">
      <!-- 1 -->
      <g transform="translate(25.96625 277.939187)scale(0.1 -0.1)">
       <use xlink:href="#Cmr10-31"/>
      </g>
     </g>
    </g>
    <g id="ytick_3">
     <g id="line2d_91">
      <path d="M 37.96625 245.254312 
L 450 245.254312 
" clip-path="url(#pdeda0fcda2)" style="fill: none; stroke: #000000; stroke-width: 0.8; stroke-linecap: square"/>
     </g>
     <g id="line2d_92">
      <g>
       <use xlink:href="#mcd9d9a6f4d" x="37.96625" y="245.254312" style="stroke: #000000; stroke-width: 0.8"/>
      </g>
     </g>
     <g id="text_47">
      <!-- 2 -->
      <g transform="translate(25.96625 248.723843)scale(0.1 -0.1)">
       <use xlink:href="#Cmr10-32"/>
      </g>
     </g>
    </g>
    <g id="ytick_4">
     <g id="line2d_93">
      <path d="M 37.96625 216.038968 
L 450 216.038968 
" clip-path="url(#pdeda0fcda2)" style="fill: none; stroke: #000000; stroke-width: 0.8; stroke-linecap: square"/>
     </g>
     <g id="line2d_94">
      <g>
       <use xlink:href="#mcd9d9a6f4d" x="37.96625" y="216.038968" style="stroke: #000000; stroke-width: 0.8"/>
      </g>
     </g>
     <g id="text_48">
      <!-- 3 -->
      <g transform="translate(25.96625 219.5085)scale(0.1 -0.1)">
       <use xlink:href="#Cmr10-33"/>
      </g>
     </g>
    </g>
    <g id="ytick_5">
     <g id="line2d_95">
      <path d="M 37.96625 186.823624 
L 450 186.823624 
" clip-path="url(#pdeda0fcda2)" style="fill: none; stroke: #000000; stroke-width: 0.8; stroke-linecap: square"/>
     </g>
     <g id="line2d_96">
      <g>
       <use xlink:href="#mcd9d9a6f4d" x="37.96625" y="186.823624" style="stroke: #000000; stroke-width: 0.8"/>
      </g>
     </g>
     <g id="text_49">
      <!-- 4 -->
      <g transform="translate(25.96625 190.293156)scale(0.1 -0.1)">
       <use xlink:href="#Cmr10-34"/>
      </g>
     </g>
    </g>
    <g id="ytick_6">
     <g id="line2d_97">
      <path d="M 37.96625 157.60828 
L 450 157.60828 
" clip-path="url(#pdeda0fcda2)" style="fill: none; stroke: #000000; stroke-width: 0.8; stroke-linecap: square"/>
     </g>
     <g id="line2d_98">
      <g>
       <use xlink:href="#mcd9d9a6f4d" x="37.96625" y="157.60828" style="stroke: #000000; stroke-width: 0.8"/>
      </g>
     </g>
     <g id="text_50">
      <!-- 5 -->
      <g transform="translate(25.96625 161.077812)scale(0.1 -0.1)">
       <use xlink:href="#Cmr10-35"/>
      </g>
     </g>
    </g>
    <g id="ytick_7">
     <g id="line2d_99">
      <path d="M 37.96625 128.392937 
L 450 128.392937 
" clip-path="url(#pdeda0fcda2)" style="fill: none; stroke: #000000; stroke-width: 0.8; stroke-linecap: square"/>
     </g>
     <g id="line2d_100">
      <g>
       <use xlink:href="#mcd9d9a6f4d" x="37.96625" y="128.392937" style="stroke: #000000; stroke-width: 0.8"/>
      </g>
     </g>
     <g id="text_51">
      <!-- 6 -->
      <g transform="translate(25.96625 131.862468)scale(0.1 -0.1)">
       <use xlink:href="#Cmr10-36"/>
      </g>
     </g>
    </g>
    <g id="ytick_8">
     <g id="line2d_101">
      <path d="M 37.96625 99.177593 
L 450 99.177593 
" clip-path="url(#pdeda0fcda2)" style="fill: none; stroke: #000000; stroke-width: 0.8; stroke-linecap: square"/>
     </g>
     <g id="line2d_102">
      <g>
       <use xlink:href="#mcd9d9a6f4d" x="37.96625" y="99.177593" style="stroke: #000000; stroke-width: 0.8"/>
      </g>
     </g>
     <g id="text_52">
      <!-- 7 -->
      <g transform="translate(25.96625 102.647124)scale(0.1 -0.1)">
       <use xlink:href="#Cmr10-37"/>
      </g>
     </g>
    </g>
    <g id="ytick_9">
     <g id="line2d_103">
      <path d="M 37.96625 69.962249 
L 450 69.962249 
" clip-path="url(#pdeda0fcda2)" style="fill: none; stroke: #000000; stroke-width: 0.8; stroke-linecap: square"/>
     </g>
     <g id="line2d_104">
      <g>
       <use xlink:href="#mcd9d9a6f4d" x="37.96625" y="69.962249" style="stroke: #000000; stroke-width: 0.8"/>
      </g>
     </g>
     <g id="text_53">
      <!-- 8 -->
      <g transform="translate(25.96625 73.43178)scale(0.1 -0.1)">
       <use xlink:href="#Cmr10-38"/>
      </g>
     </g>
    </g>
    <g id="ytick_10">
     <g id="line2d_105">
      <path d="M 37.96625 40.746905 
L 450 40.746905 
" clip-path="url(#pdeda0fcda2)" style="fill: none; stroke: #000000; stroke-width: 0.8; stroke-linecap: square"/>
     </g>
     <g id="line2d_106">
      <g>
       <use xlink:href="#mcd9d9a6f4d" x="37.96625" y="40.746905" style="stroke: #000000; stroke-width: 0.8"/>
      </g>
     </g>
     <g id="text_54">
      <!-- 9 -->
      <g transform="translate(25.96625 44.216436)scale(0.1 -0.1)">
       <use xlink:href="#Cmr10-39"/>
      </g>
     </g>
    </g>
    <g id="text_55">
     <!-- Frequency -->
     <g transform="translate(19.299219 195.144375)rotate(-90)scale(0.13 -0.13)">
      <defs>
       <path id="Cmr10-46" d="M 197 0 
L 197 225 
Q 856 225 856 428 
L 856 3944 
Q 856 4147 197 4147 
L 197 4372 
L 3725 4372 
L 3903 2906 
L 3719 2906 
Q 3675 3309 3601 3542 
Q 3528 3775 3387 3908 
Q 3247 4041 3011 4094 
Q 2775 4147 2363 4147 
L 1778 4147 
Q 1663 4147 1598 4137 
Q 1534 4128 1493 4083 
Q 1453 4038 1453 3944 
L 1453 2297 
L 1906 2297 
Q 2234 2297 2387 2355 
Q 2541 2413 2598 2566 
Q 2656 2719 2656 3047 
L 2841 3047 
L 2841 1325 
L 2656 1325 
Q 2656 1653 2598 1806 
Q 2541 1959 2387 2017 
Q 2234 2075 1906 2075 
L 1453 2075 
L 1453 428 
Q 1453 225 2272 225 
L 2272 0 
L 197 0 
z
" transform="scale(0.015625)"/>
       <path id="Cmr10-71" d="M 1919 -1241 
L 1919 -1019 
Q 2138 -1019 2278 -981 
Q 2419 -944 2419 -813 
L 2419 372 
Q 2269 172 2041 50 
Q 1813 -72 1563 -72 
Q 1275 -72 1028 47 
Q 781 166 598 369 
Q 416 572 314 839 
Q 213 1106 213 1381 
Q 213 1763 400 2098 
Q 588 2434 914 2631 
Q 1241 2828 1619 2828 
Q 1891 2828 2122 2675 
Q 2353 2522 2491 2266 
L 2719 2828 
L 2888 2828 
L 2888 -813 
Q 2888 -944 3028 -981 
Q 3169 -1019 3384 -1019 
L 3384 -1241 
L 1919 -1241 
z
M 1600 97 
Q 1884 97 2107 286 
Q 2331 475 2438 763 
L 2438 1888 
Q 2372 2194 2165 2419 
Q 1959 2644 1672 2644 
Q 1453 2644 1281 2528 
Q 1109 2413 995 2219 
Q 881 2025 825 1800 
Q 769 1575 769 1375 
Q 769 1119 859 817 
Q 950 516 1137 306 
Q 1325 97 1600 97 
z
" transform="scale(0.015625)"/>
       <path id="Cmr10-75" d="M 691 763 
L 691 2175 
Q 691 2347 639 2423 
Q 588 2500 491 2517 
Q 394 2534 191 2534 
L 191 2759 
L 1159 2828 
L 1159 763 
Q 1159 513 1195 373 
Q 1231 234 1348 165 
Q 1466 97 1722 97 
Q 2066 97 2269 384 
Q 2472 672 2472 1038 
L 2472 2175 
Q 2472 2347 2419 2423 
Q 2366 2500 2270 2517 
Q 2175 2534 1972 2534 
L 1972 2759 
L 2938 2828 
L 2938 581 
Q 2938 413 2989 336 
Q 3041 259 3137 242 
Q 3234 225 3438 225 
L 3438 0 
L 2491 -72 
L 2491 469 
Q 2372 228 2159 78 
Q 1947 -72 1691 -72 
Q 1231 -72 961 123 
Q 691 319 691 763 
z
" transform="scale(0.015625)"/>
       <path id="Cmr10-79" d="M 441 -1050 
Q 563 -1147 709 -1147 
Q 1113 -1147 1369 -538 
L 1588 0 
L 628 2350 
Q 569 2469 447 2501 
Q 325 2534 122 2534 
L 122 2759 
L 1466 2759 
L 1466 2534 
Q 1113 2534 1113 2381 
Q 1113 2356 1119 2344 
L 1831 594 
L 2472 2169 
Q 2491 2219 2491 2278 
Q 2491 2356 2448 2414 
Q 2406 2472 2339 2503 
Q 2272 2534 2188 2534 
L 2188 2759 
L 3250 2759 
L 3250 2534 
Q 3053 2534 2904 2443 
Q 2756 2353 2675 2175 
L 1569 -538 
Q 1481 -744 1364 -917 
Q 1247 -1091 1078 -1202 
Q 909 -1313 709 -1313 
Q 475 -1313 298 -1158 
Q 122 -1003 122 -775 
Q 122 -656 203 -575 
Q 284 -494 403 -494 
Q 484 -494 548 -530 
Q 613 -566 648 -628 
Q 684 -691 684 -775 
Q 684 -878 615 -959 
Q 547 -1041 441 -1050 
z
" transform="scale(0.015625)"/>
      </defs>
      <use xlink:href="#Cmr10-46"/>
      <use xlink:href="#Cmr10-72" x="65.185547"/>
      <use xlink:href="#Cmr10-65" x="104.296875"/>
      <use xlink:href="#Cmr10-71" x="148.681641"/>
      <use xlink:href="#Cmr10-75" x="201.367188"/>
      <use xlink:href="#Cmr10-65" x="256.884766"/>
      <use xlink:href="#Cmr10-6e" x="301.269531"/>
      <use xlink:href="#Cmr10-63" x="356.787109"/>
      <use xlink:href="#Cmr10-79" x="401.171875"/>
     </g>
    </g>
   </g>
   <g id="patch_45">
    <path d="M 37.96625 303.685 
L 37.96625 27.6 
" style="fill: none; stroke: #000000; stroke-width: 0.8; stroke-linejoin: miter; stroke-linecap: square"/>
   </g>
   <g id="patch_46">
    <path d="M 450 303.685 
L 450 27.6 
" style="fill: none; stroke: #000000; stroke-width: 0.8; stroke-linejoin: miter; stroke-linecap: square"/>
   </g>
   <g id="patch_47">
    <path d="M 37.96625 303.685 
L 450 303.685 
" style="fill: none; stroke: #000000; stroke-width: 0.8; stroke-linejoin: miter; stroke-linecap: square"/>
   </g>
   <g id="patch_48">
    <path d="M 37.96625 27.6 
L 450 27.6 
" style="fill: none; stroke: #000000; stroke-width: 0.8; stroke-linejoin: miter; stroke-linecap: square"/>
   </g>
   <g id="text_56">
    <!-- Histogram of Exponential $\varphi$-decay -->
    <g transform="translate(153.623125 21.6)scale(0.12 -0.12)">
     <defs>
      <path id="Cmr10-48" d="M 197 0 
L 197 225 
Q 856 225 856 428 
L 856 3944 
Q 856 4147 197 4147 
L 197 4372 
L 2113 4372 
L 2113 4147 
Q 1453 4147 1453 3944 
L 1453 2388 
L 3341 2388 
L 3341 3944 
Q 3341 4147 2681 4147 
L 2681 4372 
L 4594 4372 
L 4594 4147 
Q 3938 4147 3938 3944 
L 3938 428 
Q 3938 225 4594 225 
L 4594 0 
L 2681 0 
L 2681 225 
Q 3341 225 3341 428 
L 3341 2163 
L 1453 2163 
L 1453 428 
Q 1453 225 2113 225 
L 2113 0 
L 197 0 
z
" transform="scale(0.015625)"/>
      <path id="Cmr10-74" d="M 653 769 
L 653 2534 
L 122 2534 
L 122 2700 
Q 541 2700 737 3090 
Q 934 3481 934 3938 
L 1119 3938 
L 1119 2759 
L 2022 2759 
L 2022 2534 
L 1119 2534 
L 1119 781 
Q 1119 516 1208 316 
Q 1297 116 1528 116 
Q 1747 116 1844 327 
Q 1941 538 1941 781 
L 1941 1159 
L 2125 1159 
L 2125 769 
Q 2125 569 2051 373 
Q 1978 178 1834 53 
Q 1691 -72 1484 -72 
Q 1100 -72 876 158 
Q 653 388 653 769 
z
" transform="scale(0.015625)"/>
      <path id="Cmr10-61" d="M 256 628 
Q 256 1009 556 1248 
Q 856 1488 1276 1586 
Q 1697 1684 2075 1684 
L 2075 1947 
Q 2075 2131 1994 2304 
Q 1913 2478 1759 2589 
Q 1606 2700 1422 2700 
Q 997 2700 775 2509 
Q 897 2509 976 2417 
Q 1056 2325 1056 2203 
Q 1056 2075 965 1984 
Q 875 1894 750 1894 
Q 622 1894 531 1984 
Q 441 2075 441 2203 
Q 441 2541 747 2705 
Q 1053 2869 1422 2869 
Q 1681 2869 1943 2758 
Q 2206 2647 2373 2440 
Q 2541 2234 2541 1959 
L 2541 519 
Q 2541 394 2594 289 
Q 2647 184 2759 184 
Q 2866 184 2917 290 
Q 2969 397 2969 519 
L 2969 928 
L 3156 928 
L 3156 519 
Q 3156 375 3081 245 
Q 3006 116 2879 39 
Q 2753 -38 2606 -38 
Q 2419 -38 2283 107 
Q 2147 253 2131 453 
Q 2013 213 1781 70 
Q 1550 -72 1288 -72 
Q 1044 -72 808 0 
Q 572 72 414 226 
Q 256 381 256 628 
z
M 775 628 
Q 775 403 940 250 
Q 1106 97 1331 97 
Q 1538 97 1706 200 
Q 1875 303 1975 481 
Q 2075 659 2075 856 
L 2075 1522 
Q 1784 1522 1479 1426 
Q 1175 1331 975 1128 
Q 775 925 775 628 
z
" transform="scale(0.015625)"/>
      <path id="Cmr10-6d" d="M 191 0 
L 191 225 
Q 409 225 550 259 
Q 691 294 691 428 
L 691 2175 
Q 691 2347 639 2423 
Q 588 2500 491 2517 
Q 394 2534 191 2534 
L 191 2759 
L 1119 2828 
L 1119 2203 
Q 1247 2478 1498 2653 
Q 1750 2828 2047 2828 
Q 2784 2828 2913 2228 
Q 3041 2497 3287 2662 
Q 3534 2828 3828 2828 
Q 4119 2828 4317 2734 
Q 4516 2641 4616 2448 
Q 4716 2256 4716 1966 
L 4716 428 
Q 4716 294 4858 259 
Q 5000 225 5216 225 
L 5216 0 
L 3750 0 
L 3750 225 
Q 3969 225 4109 259 
Q 4250 294 4250 428 
L 4250 1947 
Q 4250 2269 4159 2466 
Q 4069 2663 3788 2663 
Q 3419 2663 3178 2366 
Q 2938 2069 2938 1691 
L 2938 428 
Q 2938 294 3078 259 
Q 3219 225 3438 225 
L 3438 0 
L 1972 0 
L 1972 225 
Q 2191 225 2331 259 
Q 2472 294 2472 428 
L 2472 1947 
Q 2472 2259 2381 2461 
Q 2291 2663 2009 2663 
Q 1638 2663 1398 2366 
Q 1159 2069 1159 1691 
L 1159 428 
Q 1159 294 1300 259 
Q 1441 225 1656 225 
L 1656 0 
L 191 0 
z
" transform="scale(0.015625)"/>
      <path id="Cmr10-66" d="M 206 0 
L 206 225 
Q 422 225 562 259 
Q 703 294 703 428 
L 703 2534 
L 213 2534 
L 213 2759 
L 703 2759 
L 703 3525 
Q 703 3731 789 3911 
Q 875 4091 1020 4225 
Q 1166 4359 1355 4436 
Q 1544 4513 1747 4513 
Q 1963 4513 2136 4384 
Q 2309 4256 2309 4044 
Q 2309 3922 2226 3839 
Q 2144 3756 2022 3756 
Q 1900 3756 1814 3839 
Q 1728 3922 1728 4044 
Q 1728 4244 1900 4313 
Q 1797 4347 1716 4347 
Q 1528 4347 1395 4214 
Q 1263 4081 1197 3890 
Q 1131 3700 1131 3513 
L 1131 2759 
L 1869 2759 
L 1869 2534 
L 1153 2534 
L 1153 428 
Q 1153 297 1340 261 
Q 1528 225 1772 225 
L 1772 0 
L 206 0 
z
" transform="scale(0.015625)"/>
      <path id="Cmr10-45" d="M 197 0 
L 197 225 
Q 856 225 856 428 
L 856 3944 
Q 856 4147 197 4147 
L 197 4372 
L 3816 4372 
L 3994 2906 
L 3809 2906 
Q 3741 3459 3617 3709 
Q 3494 3959 3222 4053 
Q 2950 4147 2406 4147 
L 1778 4147 
Q 1663 4147 1598 4137 
Q 1534 4128 1493 4083 
Q 1453 4038 1453 3944 
L 1453 2381 
L 1925 2381 
Q 2250 2381 2411 2436 
Q 2572 2491 2633 2645 
Q 2694 2800 2694 3128 
L 2881 3128 
L 2881 1409 
L 2694 1409 
Q 2694 1734 2633 1890 
Q 2572 2047 2411 2101 
Q 2250 2156 1925 2156 
L 1453 2156 
L 1453 428 
Q 1453 291 1531 258 
Q 1609 225 1778 225 
L 2456 225 
Q 2900 225 3173 295 
Q 3447 366 3598 530 
Q 3750 694 3833 955 
Q 3916 1216 3988 1678 
L 4172 1678 
L 3903 0 
L 197 0 
z
" transform="scale(0.015625)"/>
      <path id="Cmr10-78" d="M 78 0 
L 78 225 
Q 322 225 537 320 
Q 753 416 903 603 
L 1484 1344 
L 728 2328 
Q 616 2469 483 2501 
Q 350 2534 109 2534 
L 109 2759 
L 1441 2759 
L 1441 2534 
Q 1356 2534 1282 2496 
Q 1209 2459 1209 2388 
Q 1209 2363 1228 2328 
L 1741 1663 
L 2125 2156 
Q 2203 2250 2203 2344 
Q 2203 2422 2151 2478 
Q 2100 2534 2016 2534 
L 2016 2759 
L 3194 2759 
L 3194 2534 
Q 2947 2534 2730 2439 
Q 2513 2344 2363 2156 
L 1856 1509 
L 2675 428 
Q 2797 288 2928 256 
Q 3059 225 3303 225 
L 3303 0 
L 1972 0 
L 1972 225 
Q 2050 225 2122 262 
Q 2194 300 2194 372 
Q 2194 400 2175 428 
L 1600 1191 
L 1141 603 
Q 1069 522 1069 416 
Q 1069 338 1122 281 
Q 1175 225 1247 225 
L 1247 0 
L 78 0 
z
" transform="scale(0.015625)"/>
      <path id="Cmr10-6c" d="M 197 0 
L 197 225 
Q 416 225 556 259 
Q 697 294 697 428 
L 697 3788 
Q 697 3959 645 4036 
Q 594 4113 497 4130 
Q 400 4147 197 4147 
L 197 4372 
L 1147 4441 
L 1147 428 
Q 1147 294 1287 259 
Q 1428 225 1644 225 
L 1644 0 
L 197 0 
z
" transform="scale(0.015625)"/>
      <path id="Cmmi10-27" d="M 1044 -1216 
Q 1044 -1191 1056 -1141 
L 1416 -13 
Q 938 106 628 428 
Q 319 750 319 1216 
Q 319 1450 406 1744 
Q 494 2038 631 2302 
Q 769 2566 928 2741 
Q 966 2759 972 2759 
L 1050 2759 
Q 1069 2759 1084 2740 
Q 1100 2722 1100 2700 
Q 1100 2675 1088 2663 
Q 981 2547 879 2380 
Q 778 2213 698 2028 
Q 619 1844 566 1641 
Q 513 1438 513 1288 
Q 513 909 814 676 
Q 1116 444 1528 366 
L 1709 941 
Q 1828 1313 1945 1605 
Q 2063 1897 2239 2176 
Q 2416 2456 2666 2642 
Q 2916 2828 3225 2828 
Q 3469 2828 3633 2706 
Q 3797 2584 3876 2381 
Q 3956 2178 3956 1947 
Q 3956 1566 3787 1202 
Q 3619 838 3325 548 
Q 3031 259 2662 93 
Q 2294 -72 1919 -72 
Q 1869 -69 1811 -66 
Q 1753 -63 1716 -63 
L 1503 -1178 
Q 1484 -1272 1407 -1333 
Q 1331 -1394 1234 -1394 
Q 1156 -1394 1100 -1345 
Q 1044 -1297 1044 -1216 
z
M 1784 331 
Q 1856 325 1991 325 
Q 2388 325 2798 520 
Q 3209 716 3479 1056 
Q 3750 1397 3750 1797 
Q 3750 1978 3676 2122 
Q 3603 2266 3470 2348 
Q 3338 2431 3163 2431 
Q 2666 2431 2331 1950 
Q 1997 1469 1894 916 
L 1784 331 
z
" transform="scale(0.015625)"/>
      <path id="Cmr10-2d" d="M 72 1184 
L 72 1581 
L 1766 1581 
L 1766 1184 
L 72 1184 
z
" transform="scale(0.015625)"/>
     </defs>
     <use xlink:href="#Cmr10-48" transform="translate(0 0.484375)"/>
     <use xlink:href="#Cmr10-69" transform="translate(75 0.484375)"/>
     <use xlink:href="#Cmr10-73" transform="translate(102.685547 0.484375)"/>
     <use xlink:href="#Cmr10-74" transform="translate(142.089844 0.484375)"/>
     <use xlink:href="#Cmr10-6f" transform="translate(180.908203 0.484375)"/>
     <use xlink:href="#Cmr10-67" transform="translate(230.908203 0.484375)"/>
     <use xlink:href="#Cmr10-72" transform="translate(280.908203 0.484375)"/>
     <use xlink:href="#Cmr10-61" transform="translate(320.019531 0.484375)"/>
     <use xlink:href="#Cmr10-6d" transform="translate(370.019531 0.484375)"/>
     <use xlink:href="#Cmr10-20" transform="translate(453.320312 0.484375)"/>
     <use xlink:href="#Cmr10-6f" transform="translate(486.621094 0.484375)"/>
     <use xlink:href="#Cmr10-66" transform="translate(536.621094 0.484375)"/>
     <use xlink:href="#Cmr10-20" transform="translate(567.138672 0.484375)"/>
     <use xlink:href="#Cmr10-45" transform="translate(600.439453 0.484375)"/>
     <use xlink:href="#Cmr10-78" transform="translate(668.457031 0.484375)"/>
     <use xlink:href="#Cmr10-70" transform="translate(721.142578 0.484375)"/>
     <use xlink:href="#Cmr10-6f" transform="translate(776.660156 0.484375)"/>
     <use xlink:href="#Cmr10-6e" transform="translate(826.660156 0.484375)"/>
     <use xlink:href="#Cmr10-65" transform="translate(882.177734 0.484375)"/>
     <use xlink:href="#Cmr10-6e" transform="translate(926.5625 0.484375)"/>
     <use xlink:href="#Cmr10-74" transform="translate(982.080078 0.484375)"/>
     <use xlink:href="#Cmr10-69" transform="translate(1020.898438 0.484375)"/>
     <use xlink:href="#Cmr10-61" transform="translate(1048.583984 0.484375)"/>
     <use xlink:href="#Cmr10-6c" transform="translate(1098.583984 0.484375)"/>
     <use xlink:href="#Cmr10-20" transform="translate(1126.269531 0.484375)"/>
     <use xlink:href="#Cmmi10-27" transform="translate(1159.570312 0.484375)"/>
     <use xlink:href="#Cmr10-2d" transform="translate(1224.951172 0.484375)"/>
     <use xlink:href="#Cmr10-64" transform="translate(1258.251953 0.484375)"/>
     <use xlink:href="#Cmr10-65" transform="translate(1313.769531 0.484375)"/>
     <use xlink:href="#Cmr10-63" transform="translate(1358.154297 0.484375)"/>
     <use xlink:href="#Cmr10-61" transform="translate(1402.539062 0.484375)"/>
     <use xlink:href="#Cmr10-79" transform="translate(1452.539062 0.484375)"/>
    </g>
   </g>
   <g id="legend_1">
    <g id="patch_49">
     <path d="M 457.7 175.1025 
L 592.45 175.1025 
Q 594.65 175.1025 594.65 172.9025 
L 594.65 158.3825 
Q 594.65 156.1825 592.45 156.1825 
L 457.7 156.1825 
Q 455.5 156.1825 455.5 158.3825 
L 455.5 172.9025 
Q 455.5 175.1025 457.7 175.1025 
z
" style="fill: #ffffff; opacity: 0.8; stroke: #cccccc; stroke-linejoin: miter"/>
    </g>
    <g id="patch_50">
     <path d="M 459.9 168.2825 
L 481.9 168.2825 
L 481.9 160.5825 
L 459.9 160.5825 
z
" style="fill: #044b7f"/>
    </g>
    <g id="text_57">
     <!-- Exponential $\varphi$-decay -->
     <g transform="translate(490.7 168.2825)scale(0.11 -0.11)">
      <use xlink:href="#Cmr10-45" transform="translate(0 0.609375)"/>
      <use xlink:href="#Cmr10-78" transform="translate(68.017578 0.609375)"/>
      <use xlink:href="#Cmr10-70" transform="translate(120.703125 0.609375)"/>
      <use xlink:href="#Cmr10-6f" transform="translate(176.220703 0.609375)"/>
      <use xlink:href="#Cmr10-6e" transform="translate(226.220703 0.609375)"/>
      <use xlink:href="#Cmr10-65" transform="translate(281.738281 0.609375)"/>
      <use xlink:href="#Cmr10-6e" transform="translate(326.123047 0.609375)"/>
      <use xlink:href="#Cmr10-74" transform="translate(381.640625 0.609375)"/>
      <use xlink:href="#Cmr10-69" transform="translate(420.458984 0.609375)"/>
      <use xlink:href="#Cmr10-61" transform="translate(448.144531 0.609375)"/>
      <use xlink:href="#Cmr10-6c" transform="translate(498.144531 0.609375)"/>
      <use xlink:href="#Cmr10-20" transform="translate(525.830078 0.609375)"/>
      <use xlink:href="#Cmmi10-27" transform="translate(559.130859 0.609375)"/>
      <use xlink:href="#Cmr10-2d" transform="translate(624.511719 0.609375)"/>
      <use xlink:href="#Cmr10-64" transform="translate(657.8125 0.609375)"/>
      <use xlink:href="#Cmr10-65" transform="translate(713.330078 0.609375)"/>
      <use xlink:href="#Cmr10-63" transform="translate(757.714844 0.609375)"/>
      <use xlink:href="#Cmr10-61" transform="translate(802.099609 0.609375)"/>
      <use xlink:href="#Cmr10-79" transform="translate(852.099609 0.609375)"/>
     </g>
    </g>
   </g>
  </g>
 </g>
 <defs>
  <clipPath id="pdeda0fcda2">
   <rect x="37.96625" y="27.6" width="412.03375" height="276.085"/>
  </clipPath>
 </defs>
</svg>
