<?xml version="1.0" encoding="utf-8" standalone="no"?>
<!DOCTYPE svg PUBLIC "-//W3C//DTD SVG 1.1//EN"
  "http://www.w3.org/Graphics/SVG/1.1/DTD/svg11.dtd">
<svg xmlns:xlink="http://www.w3.org/1999/xlink" width="460.8pt" height="345.6pt" viewBox="0 0 460.8 345.6" xmlns="http://www.w3.org/2000/svg" version="1.1">
 <metadata>
  <rdf:RDF xmlns:dc="http://purl.org/dc/elements/1.1/" xmlns:cc="http://creativecommons.org/ns#" xmlns:rdf="http://www.w3.org/1999/02/22-rdf-syntax-ns#">
   <cc:Work>
    <dc:type rdf:resource="http://purl.org/dc/dcmitype/StillImage"/>
    <dc:date>2023-03-13T21:03:10.060843</dc:date>
    <dc:format>image/svg+xml</dc:format>
    <dc:creator>
     <cc:Agent>
      <dc:title>Matplotlib v3.5.1, https://matplotlib.org/</dc:title>
     </cc:Agent>
    </dc:creator>
   </cc:Work>
  </rdf:RDF>
 </metadata>
 <defs>
  <style type="text/css">*{stroke-linejoin: round; stroke-linecap: butt}</style>
 </defs>
 <g id="figure_1">
  <g id="patch_1">
   <path d="M 0 345.6 
L 460.8 345.6 
L 460.8 0 
L 0 0 
z
" style="fill: #ffffff"/>
  </g>
  <g id="axes_1">
   <g id="patch_2">
    <path d="M 47.86625 303.685 
L 450 303.685 
L 450 26.025 
L 47.86625 26.025 
z
" style="fill: #ffffff"/>
   </g>
   <g id="PolyCollection_1">
    <defs>
     <path id="mc0cbf86c1a" d="M 66.145057 -118.846242 
L 66.145057 -54.535909 
L 66.877674 -57.303414 
L 67.610292 -62.402095 
L 68.342909 -70.92989 
L 69.075527 -90.587046 
L 69.808144 -91.474064 
L 70.540762 -102.821244 
L 71.273379 -110.482666 
L 72.005997 -117.910825 
L 72.738614 -128.552036 
L 73.471232 -157.135929 
L 74.203849 -146.428244 
L 74.936467 -165.407498 
L 75.669084 -179.719419 
L 76.401702 -165.664022 
L 77.134319 -175.223604 
L 77.866937 -185.98195 
L 78.599554 -189.230011 
L 79.332172 -209.87666 
L 80.064789 -198.958941 
L 80.797407 -207.119821 
L 81.530024 -210.66133 
L 82.262642 -209.903582 
L 82.995259 -217.183996 
L 83.727877 -225.751109 
L 84.460495 -231.528938 
L 85.193112 -230.738625 
L 85.92573 -243.014961 
L 86.658347 -229.81893 
L 87.390965 -228.965878 
L 88.123582 -251.531103 
L 88.8562 -240.535351 
L 89.588817 -244.489512 
L 90.321435 -247.734006 
L 91.054052 -255.256749 
L 91.78667 -257.589718 
L 92.519287 -259.079814 
L 93.251905 -266.149471 
L 93.984522 -275.422448 
L 94.71714 -256.24464 
L 95.449757 -285.347926 
L 96.182375 -264.137024 
L 96.914992 -274.649005 
L 97.64761 -272.794902 
L 98.380227 -285.665329 
L 99.112845 -264.286206 
L 99.845462 -275.249406 
L 100.57808 -285.68664 
L 101.310697 -275.466938 
L 102.043315 -287.344042 
L 102.775932 -285.83156 
L 103.50855 -287.400079 
L 104.241167 -292.378583 
L 104.973785 -278.377663 
L 105.706402 -281.880044 
L 106.43902 -276.025825 
L 107.171637 -290.150283 
L 107.904255 -284.517939 
L 108.636872 -303.040865 
L 109.36949 -293.535317 
L 110.102107 -285.754309 
L 110.834725 -301.910421 
L 111.567342 -291.936321 
L 112.29996 -293.386258 
L 113.032577 -296.554886 
L 113.765195 -286.432857 
L 114.497812 -281.616129 
L 115.23043 -300.551852 
L 115.963047 -299.84262 
L 116.695665 -296.651023 
L 117.428282 -292.556279 
L 118.1609 -298.57413 
L 118.893517 -296.22632 
L 119.626135 -300.059372 
L 120.358752 -306.954091 
L 121.09137 -302.017604 
L 121.823987 -297.037179 
L 122.556605 -298.785046 
L 123.289222 -298.417772 
L 124.02184 -290.331798 
L 124.754457 -297.359519 
L 125.487075 -292.013243 
L 126.219692 -285.43373 
L 126.95231 -294.52214 
L 127.684927 -304.94591 
L 128.417545 -299.483207 
L 129.150162 -292.703515 
L 129.88278 -305.544008 
L 130.615397 -306.954091 
L 131.348015 -289.643326 
L 132.080633 -299.055456 
L 132.81325 -294.686414 
L 133.545868 -290.373934 
L 134.278485 -292.918961 
L 135.011103 -306.707851 
L 135.74372 -291.276814 
L 136.476338 -299.317247 
L 137.208955 -302.357612 
L 137.941573 -294.043883 
L 138.67419 -306.647019 
L 139.406808 -294.604812 
L 140.139425 -305.969131 
L 140.872043 -296.813882 
L 141.60466 -298.293037 
L 142.337278 -302.111372 
L 143.069895 -303.260492 
L 143.802513 -306.954091 
L 144.53513 -290.071323 
L 145.267748 -306.954091 
L 146.000365 -306.954091 
L 146.732983 -305.85947 
L 147.4656 -306.954091 
L 148.198218 -301.822997 
L 148.930835 -298.253612 
L 149.663453 -305.097241 
L 150.39607 -304.655851 
L 151.128688 -303.178412 
L 151.861305 -306.954091 
L 152.593923 -300.200734 
L 153.32654 -301.126412 
L 154.059158 -305.131503 
L 154.791775 -298.842023 
L 155.524393 -300.062188 
L 156.25701 -306.954091 
L 156.989628 -300.223532 
L 157.722245 -306.954091 
L 158.454863 -306.954091 
L 159.18748 -301.705949 
L 159.920098 -300.059372 
L 160.652715 -306.954091 
L 161.385333 -294.970413 
L 162.11795 -298.910252 
L 162.850568 -306.954091 
L 163.583185 -306.954091 
L 164.315803 -305.969131 
L 165.04842 -304.655851 
L 165.781038 -303.342572 
L 166.513655 -306.954091 
L 167.246273 -306.954091 
L 167.97889 -306.954091 
L 168.711508 -301.63122 
L 169.444125 -306.954091 
L 170.176743 -306.954091 
L 170.90936 -301.992077 
L 171.641978 -306.954091 
L 172.374595 -306.954091 
L 173.107213 -300.716012 
L 173.83983 -304.162958 
L 174.572448 -306.954091 
L 175.305065 -306.954091 
L 176.037683 -306.954091 
L 176.7703 -306.954091 
L 177.502918 -306.954091 
L 178.235536 -306.954091 
L 178.968153 -306.954091 
L 179.700771 -306.954091 
L 180.433388 -306.789931 
L 181.166006 -306.954091 
L 181.898623 -303.670891 
L 182.631241 -306.051211 
L 183.363858 -299.937561 
L 184.096476 -298.746092 
L 184.829093 -305.558731 
L 185.561711 -306.954091 
L 186.294328 -300.962252 
L 187.026946 -304.573771 
L 187.759563 -306.954091 
L 188.492181 -306.954091 
L 189.224798 -306.954091 
L 189.957416 -306.954091 
L 190.690033 -306.954091 
L 191.422651 -301.618892 
L 192.155268 -306.707851 
L 192.887886 -301.454732 
L 193.620503 -306.954091 
L 194.353121 -300.551852 
L 195.085738 -306.954091 
L 195.818356 -306.954091 
L 196.550973 -304.327531 
L 197.283591 -306.954091 
L 198.016208 -306.954091 
L 198.748826 -306.954091 
L 199.481443 -297.268653 
L 200.214061 -306.954091 
L 200.946678 -306.954091 
L 201.679296 -306.954091 
L 202.411913 -306.954091 
L 203.144531 -306.954091 
L 203.877148 -306.954091 
L 204.609766 -299.566892 
L 205.342383 -306.954091 
L 206.075001 -306.954091 
L 206.807618 -306.954091 
L 207.540236 -306.954091 
L 208.272853 -306.954091 
L 209.005471 -306.954091 
L 209.738088 -299.977292 
L 210.470706 -296.527075 
L 211.203323 -306.954091 
L 211.935941 -306.954091 
L 212.668558 -304.737931 
L 213.401176 -306.954091 
L 214.133793 -306.954091 
L 214.866411 -306.954091 
L 215.599028 -306.954091 
L 216.331646 -306.461611 
L 217.064263 -306.954091 
L 217.796881 -306.954091 
L 218.529498 -306.954091 
L 219.262116 -306.954091 
L 219.994733 -306.954091 
L 220.727351 -301.372652 
L 221.459968 -306.954091 
L 222.192586 -306.954091 
L 222.925203 -303.014252 
L 223.657821 -306.954091 
L 224.390438 -306.789931 
L 225.123056 -302.275532 
L 225.855674 -302.029292 
L 226.588291 -302.357612 
L 227.320909 -306.954091 
L 228.053526 -306.954091 
L 228.786144 -306.954091 
L 229.518761 -306.954091 
L 230.251379 -306.954091 
L 230.983996 -306.954091 
L 231.716614 -306.954091 
L 232.449231 -306.954091 
L 233.181849 -306.215371 
L 233.914466 -306.954091 
L 234.647084 -305.804971 
L 235.379701 -306.954091 
L 236.112319 -306.954091 
L 236.844936 -306.954091 
L 237.577554 -301.618892 
L 238.310171 -299.648972 
L 239.042789 -302.357612 
L 239.775406 -306.954091 
L 240.508024 -306.954091 
L 241.240641 -306.954091 
L 241.973259 -306.954091 
L 242.705876 -303.506732 
L 243.438494 -301.947212 
L 244.171111 -295.627053 
L 244.903729 -306.954091 
L 245.636346 -304.820011 
L 246.368964 -301.865132 
L 247.101581 -300.305612 
L 247.834199 -305.476651 
L 248.566816 -306.954091 
L 249.299434 -306.954091 
L 250.032051 -306.954091 
L 250.764669 -306.954091 
L 251.497286 -306.954091 
L 252.229904 -306.954091 
L 252.962521 -306.954091 
L 253.695139 -306.954091 
L 254.427756 -297.679053 
L 255.160374 -306.954091 
L 255.892991 -306.954091 
L 256.625609 -306.954091 
L 257.358226 -301.372652 
L 258.090844 -302.275532 
L 258.823461 -306.954091 
L 259.556079 -306.954091 
L 260.288696 -306.543691 
L 261.021314 -306.954091 
L 261.753931 -306.954091 
L 262.486549 -306.954091 
L 263.219166 -306.954091 
L 263.951784 -304.409611 
L 264.684401 -306.954091 
L 265.417019 -302.111372 
L 266.149636 -306.954091 
L 266.882254 -306.954091 
L 267.614871 -306.954091 
L 268.347489 -306.954091 
L 269.080106 -306.954091 
L 269.812724 -306.954091 
L 270.545341 -304.409611 
L 271.277959 -306.954091 
L 272.010576 -305.558731 
L 272.743194 -303.917131 
L 273.475812 -306.954091 
L 274.208429 -306.954091 
L 274.941047 -306.954091 
L 275.673664 -306.954091 
L 276.406282 -296.447853 
L 277.138899 -306.954091 
L 277.871517 -306.954091 
L 278.604134 -306.954091 
L 279.336752 -306.543691 
L 280.069369 -306.954091 
L 280.801987 -306.954091 
L 281.534604 -306.954091 
L 282.267222 -306.954091 
L 282.999839 -306.954091 
L 283.732457 -306.954091 
L 284.465074 -306.954091 
L 285.197692 -306.954091 
L 285.930309 -303.752971 
L 286.662927 -306.954091 
L 287.395544 -306.954091 
L 288.128162 -306.954091 
L 288.860779 -306.954091 
L 289.593397 -306.954091 
L 290.326014 -306.954091 
L 291.058632 -302.932172 
L 291.791249 -296.940333 
L 292.523867 -306.954091 
L 293.256484 -306.954091 
L 293.989102 -306.954091 
L 294.721719 -306.954091 
L 295.454337 -306.954091 
L 296.186954 -296.201613 
L 296.919572 -306.954091 
L 297.652189 -306.954091 
L 298.384807 -302.12305 
L 299.117424 -306.954091 
L 299.850042 -302.111372 
L 300.582659 -306.954091 
L 301.315277 -306.954091 
L 302.047894 -306.297451 
L 302.780512 -306.954091 
L 303.513129 -301.947212 
L 304.245747 -306.954091 
L 304.978364 -306.954091 
L 305.710982 -306.954091 
L 306.443599 -306.954091 
L 307.176217 -304.163371 
L 307.908834 -306.954091 
L 308.641452 -306.954091 
L 309.374069 -306.954091 
L 310.106687 -306.954091 
L 310.839304 -302.275532 
L 311.571922 -306.954091 
L 312.304539 -300.962252 
L 313.037157 -306.954091 
L 313.769774 -306.954091 
L 314.502392 -306.954091 
L 315.235009 -306.954091 
L 315.967627 -306.954091 
L 316.700244 -306.954091 
L 317.432862 -306.954091 
L 318.165479 -306.954091 
L 318.898097 -306.954091 
L 319.630714 -306.954091 
L 320.363332 -306.954091 
L 321.09595 -306.954091 
L 321.828567 -306.954091 
L 322.561185 -306.051211 
L 323.293802 -306.954091 
L 324.02642 -306.954091 
L 324.759037 -299.731052 
L 325.491655 -306.954091 
L 326.224272 -306.954091 
L 326.95689 -306.954091 
L 327.689507 -306.954091 
L 328.422125 -306.954091 
L 329.154742 -306.954091 
L 329.88736 -306.954091 
L 330.619977 -306.954091 
L 331.352595 -306.954091 
L 332.085212 -306.954091 
L 332.81783 -306.954091 
L 333.550447 -306.954091 
L 334.283065 -298.664012 
L 335.015682 -306.954091 
L 335.7483 -306.954091 
L 336.480917 -306.954091 
L 337.213535 -300.141452 
L 337.946152 -306.954091 
L 338.67877 -306.954091 
L 339.411387 -306.954091 
L 340.144005 -306.954091 
L 340.876622 -306.954091 
L 341.60924 -306.954091 
L 342.341857 -306.954091 
L 343.074475 -306.954091 
L 343.807092 -306.954091 
L 344.53971 -306.954091 
L 345.272327 -295.052493 
L 346.004945 -306.954091 
L 346.737562 -306.954091 
L 347.47018 -306.954091 
L 348.202797 -306.954091 
L 348.935415 -306.954091 
L 349.668032 -306.954091 
L 350.40065 -306.954091 
L 351.133267 -306.954091 
L 351.865885 -306.954091 
L 352.598502 -306.954091 
L 353.33112 -306.954091 
L 354.063737 -303.506732 
L 354.796355 -306.954091 
L 355.528972 -306.954091 
L 356.26159 -306.954091 
L 356.994207 -306.954091 
L 357.726825 -306.954091 
L 358.459442 -306.954091 
L 359.19206 -306.954091 
L 359.924677 -306.954091 
L 360.657295 -306.954091 
L 361.389912 -306.954091 
L 362.12253 -306.954091 
L 362.855147 -306.954091 
L 363.587765 -306.954091 
L 364.320382 -306.954091 
L 365.053 -306.954091 
L 365.785617 -306.954091 
L 366.518235 -306.954091 
L 367.250853 -306.954091 
L 367.98347 -299.402732 
L 368.716088 -306.954091 
L 369.448705 -306.954091 
L 370.181323 -306.954091 
L 370.91394 -306.954091 
L 371.646558 -306.297451 
L 372.379175 -306.954091 
L 373.111793 -306.954091 
L 373.84441 -306.954091 
L 374.577028 -306.872011 
L 375.309645 -306.954091 
L 376.042263 -306.954091 
L 376.77488 -306.954091 
L 377.507498 -306.954091 
L 378.240115 -302.439692 
L 378.972733 -306.954091 
L 379.70535 -303.342572 
L 380.437968 -306.954091 
L 381.170585 -306.954091 
L 381.903203 -306.954091 
L 382.63582 -306.954091 
L 383.368438 -302.723843 
L 384.101055 -306.954091 
L 384.833673 -306.133291 
L 385.56629 -302.111372 
L 386.298908 -306.954091 
L 387.031525 -306.954091 
L 387.764143 -306.954091 
L 388.49676 -302.029292 
L 389.229378 -304.327531 
L 389.961995 -306.954091 
L 390.694613 -306.954091 
L 391.42723 -306.954091 
L 392.159848 -306.954091 
L 392.892465 -306.954091 
L 393.625083 -306.954091 
L 394.3577 -306.954091 
L 395.090318 -306.954091 
L 395.822935 -306.954091 
L 396.555553 -306.954091 
L 397.28817 -306.954091 
L 398.020788 -306.954091 
L 398.753405 -306.954091 
L 399.486023 -306.954091 
L 400.21864 -306.954091 
L 400.951258 -306.954091 
L 401.683875 -306.954091 
L 402.416493 -306.954091 
L 403.14911 -306.954091 
L 403.881728 -306.954091 
L 404.614345 -306.954091 
L 405.346963 -306.954091 
L 406.07958 -306.954091 
L 406.812198 -306.954091 
L 407.544815 -306.954091 
L 408.277433 -306.954091 
L 409.01005 -306.954091 
L 409.742668 -306.954091 
L 410.475285 -306.954091 
L 411.207903 -306.954091 
L 411.94052 -306.954091 
L 412.673138 -306.954091 
L 413.405755 -306.954091 
L 414.138373 -306.954091 
L 414.870991 -306.954091 
L 415.603608 -306.954091 
L 416.336226 -306.954091 
L 417.068843 -306.954091 
L 417.801461 -306.954091 
L 418.534078 -306.461611 
L 419.266696 -306.954091 
L 419.999313 -306.954091 
L 420.731931 -306.954091 
L 421.464548 -304.163371 
L 422.197166 -306.954091 
L 422.929783 -306.954091 
L 423.662401 -306.954091 
L 424.395018 -306.954091 
L 425.127636 -306.954091 
L 425.860253 -304.491691 
L 426.592871 -306.954091 
L 427.325488 -306.954091 
L 428.058106 -301.865132 
L 428.790723 -306.954091 
L 429.523341 -306.954091 
L 430.255958 -306.954091 
L 430.988576 -305.394571 
L 431.721193 -306.954091 
L 431.721193 -306.954091 
L 431.721193 -306.954091 
L 430.988576 -306.954091 
L 430.255958 -306.954091 
L 429.523341 -306.954091 
L 428.790723 -306.954091 
L 428.058106 -306.954091 
L 427.325488 -306.954091 
L 426.592871 -306.954091 
L 425.860253 -306.954091 
L 425.127636 -306.954091 
L 424.395018 -306.954091 
L 423.662401 -306.954091 
L 422.929783 -306.954091 
L 422.197166 -306.954091 
L 421.464548 -306.954091 
L 420.731931 -306.954091 
L 419.999313 -306.954091 
L 419.266696 -306.954091 
L 418.534078 -306.954091 
L 417.801461 -306.954091 
L 417.068843 -306.954091 
L 416.336226 -306.954091 
L 415.603608 -306.954091 
L 414.870991 -306.954091 
L 414.138373 -306.954091 
L 413.405755 -306.954091 
L 412.673138 -306.954091 
L 411.94052 -306.954091 
L 411.207903 -306.954091 
L 410.475285 -306.954091 
L 409.742668 -306.954091 
L 409.01005 -306.954091 
L 408.277433 -306.954091 
L 407.544815 -306.954091 
L 406.812198 -306.954091 
L 406.07958 -306.954091 
L 405.346963 -306.954091 
L 404.614345 -306.954091 
L 403.881728 -306.954091 
L 403.14911 -306.954091 
L 402.416493 -306.954091 
L 401.683875 -306.954091 
L 400.951258 -306.954091 
L 400.21864 -306.954091 
L 399.486023 -306.954091 
L 398.753405 -306.954091 
L 398.020788 -306.954091 
L 397.28817 -306.954091 
L 396.555553 -306.954091 
L 395.822935 -306.954091 
L 395.090318 -306.954091 
L 394.3577 -306.954091 
L 393.625083 -306.954091 
L 392.892465 -306.954091 
L 392.159848 -306.954091 
L 391.42723 -306.954091 
L 390.694613 -306.954091 
L 389.961995 -306.954091 
L 389.229378 -306.954091 
L 388.49676 -306.954091 
L 387.764143 -306.954091 
L 387.031525 -306.954091 
L 386.298908 -306.954091 
L 385.56629 -306.954091 
L 384.833673 -306.954091 
L 384.101055 -306.954091 
L 383.368438 -306.954091 
L 382.63582 -306.954091 
L 381.903203 -306.954091 
L 381.170585 -306.954091 
L 380.437968 -306.954091 
L 379.70535 -306.954091 
L 378.972733 -306.954091 
L 378.240115 -306.954091 
L 377.507498 -306.954091 
L 376.77488 -306.954091 
L 376.042263 -306.954091 
L 375.309645 -306.954091 
L 374.577028 -306.954091 
L 373.84441 -306.954091 
L 373.111793 -306.954091 
L 372.379175 -306.954091 
L 371.646558 -306.954091 
L 370.91394 -306.954091 
L 370.181323 -306.954091 
L 369.448705 -306.954091 
L 368.716088 -306.954091 
L 367.98347 -306.954091 
L 367.250853 -306.954091 
L 366.518235 -306.954091 
L 365.785617 -306.954091 
L 365.053 -306.954091 
L 364.320382 -306.954091 
L 363.587765 -306.954091 
L 362.855147 -306.954091 
L 362.12253 -306.954091 
L 361.389912 -306.954091 
L 360.657295 -306.954091 
L 359.924677 -306.954091 
L 359.19206 -306.954091 
L 358.459442 -306.954091 
L 357.726825 -306.954091 
L 356.994207 -306.954091 
L 356.26159 -306.954091 
L 355.528972 -306.954091 
L 354.796355 -306.954091 
L 354.063737 -306.954091 
L 353.33112 -306.954091 
L 352.598502 -306.954091 
L 351.865885 -306.954091 
L 351.133267 -306.954091 
L 350.40065 -306.954091 
L 349.668032 -306.954091 
L 348.935415 -306.954091 
L 348.202797 -306.954091 
L 347.47018 -306.954091 
L 346.737562 -306.954091 
L 346.004945 -306.954091 
L 345.272327 -306.954091 
L 344.53971 -306.954091 
L 343.807092 -306.954091 
L 343.074475 -306.954091 
L 342.341857 -306.954091 
L 341.60924 -306.954091 
L 340.876622 -306.954091 
L 340.144005 -306.954091 
L 339.411387 -306.954091 
L 338.67877 -306.954091 
L 337.946152 -306.954091 
L 337.213535 -306.954091 
L 336.480917 -306.954091 
L 335.7483 -306.954091 
L 335.015682 -306.954091 
L 334.283065 -306.954091 
L 333.550447 -306.954091 
L 332.81783 -306.954091 
L 332.085212 -306.954091 
L 331.352595 -306.954091 
L 330.619977 -306.954091 
L 329.88736 -306.954091 
L 329.154742 -306.954091 
L 328.422125 -306.954091 
L 327.689507 -306.954091 
L 326.95689 -306.954091 
L 326.224272 -306.954091 
L 325.491655 -306.954091 
L 324.759037 -306.954091 
L 324.02642 -306.954091 
L 323.293802 -306.954091 
L 322.561185 -306.954091 
L 321.828567 -306.954091 
L 321.09595 -306.954091 
L 320.363332 -306.954091 
L 319.630714 -306.954091 
L 318.898097 -306.954091 
L 318.165479 -306.954091 
L 317.432862 -306.954091 
L 316.700244 -306.954091 
L 315.967627 -306.954091 
L 315.235009 -306.954091 
L 314.502392 -306.954091 
L 313.769774 -306.954091 
L 313.037157 -306.954091 
L 312.304539 -306.954091 
L 311.571922 -306.954091 
L 310.839304 -306.954091 
L 310.106687 -306.954091 
L 309.374069 -306.954091 
L 308.641452 -306.954091 
L 307.908834 -306.954091 
L 307.176217 -306.954091 
L 306.443599 -306.954091 
L 305.710982 -306.954091 
L 304.978364 -306.954091 
L 304.245747 -306.954091 
L 303.513129 -306.954091 
L 302.780512 -306.954091 
L 302.047894 -306.954091 
L 301.315277 -306.954091 
L 300.582659 -306.954091 
L 299.850042 -306.954091 
L 299.117424 -306.954091 
L 298.384807 -306.954091 
L 297.652189 -306.954091 
L 296.919572 -306.954091 
L 296.186954 -306.954091 
L 295.454337 -306.954091 
L 294.721719 -306.954091 
L 293.989102 -306.954091 
L 293.256484 -306.954091 
L 292.523867 -306.954091 
L 291.791249 -306.954091 
L 291.058632 -306.954091 
L 290.326014 -306.954091 
L 289.593397 -306.954091 
L 288.860779 -306.954091 
L 288.128162 -306.954091 
L 287.395544 -306.954091 
L 286.662927 -306.954091 
L 285.930309 -306.954091 
L 285.197692 -306.954091 
L 284.465074 -306.954091 
L 283.732457 -306.954091 
L 282.999839 -306.954091 
L 282.267222 -306.954091 
L 281.534604 -306.954091 
L 280.801987 -306.954091 
L 280.069369 -306.954091 
L 279.336752 -306.954091 
L 278.604134 -306.954091 
L 277.871517 -306.954091 
L 277.138899 -306.954091 
L 276.406282 -306.954091 
L 275.673664 -306.954091 
L 274.941047 -306.954091 
L 274.208429 -306.954091 
L 273.475812 -306.954091 
L 272.743194 -306.954091 
L 272.010576 -306.954091 
L 271.277959 -306.954091 
L 270.545341 -306.954091 
L 269.812724 -306.954091 
L 269.080106 -306.954091 
L 268.347489 -306.954091 
L 267.614871 -306.954091 
L 266.882254 -306.954091 
L 266.149636 -306.954091 
L 265.417019 -306.954091 
L 264.684401 -306.954091 
L 263.951784 -306.954091 
L 263.219166 -306.954091 
L 262.486549 -306.954091 
L 261.753931 -306.954091 
L 261.021314 -306.954091 
L 260.288696 -306.954091 
L 259.556079 -306.954091 
L 258.823461 -306.954091 
L 258.090844 -306.954091 
L 257.358226 -306.954091 
L 256.625609 -306.954091 
L 255.892991 -306.954091 
L 255.160374 -306.954091 
L 254.427756 -306.954091 
L 253.695139 -306.954091 
L 252.962521 -306.954091 
L 252.229904 -306.954091 
L 251.497286 -306.954091 
L 250.764669 -306.954091 
L 250.032051 -306.954091 
L 249.299434 -306.954091 
L 248.566816 -306.954091 
L 247.834199 -306.954091 
L 247.101581 -306.954091 
L 246.368964 -306.954091 
L 245.636346 -306.954091 
L 244.903729 -306.954091 
L 244.171111 -306.954091 
L 243.438494 -306.954091 
L 242.705876 -306.954091 
L 241.973259 -306.954091 
L 241.240641 -306.954091 
L 240.508024 -306.954091 
L 239.775406 -306.954091 
L 239.042789 -306.954091 
L 238.310171 -306.954091 
L 237.577554 -306.954091 
L 236.844936 -306.954091 
L 236.112319 -306.954091 
L 235.379701 -306.954091 
L 234.647084 -306.954091 
L 233.914466 -306.954091 
L 233.181849 -306.954091 
L 232.449231 -306.954091 
L 231.716614 -306.954091 
L 230.983996 -306.954091 
L 230.251379 -306.954091 
L 229.518761 -306.954091 
L 228.786144 -306.954091 
L 228.053526 -306.954091 
L 227.320909 -306.954091 
L 226.588291 -306.954091 
L 225.855674 -306.954091 
L 225.123056 -306.954091 
L 224.390438 -306.954091 
L 223.657821 -306.954091 
L 222.925203 -306.954091 
L 222.192586 -306.954091 
L 221.459968 -306.954091 
L 220.727351 -306.954091 
L 219.994733 -306.954091 
L 219.262116 -306.954091 
L 218.529498 -306.954091 
L 217.796881 -306.954091 
L 217.064263 -306.954091 
L 216.331646 -306.954091 
L 215.599028 -306.954091 
L 214.866411 -306.954091 
L 214.133793 -306.954091 
L 213.401176 -306.954091 
L 212.668558 -306.954091 
L 211.935941 -306.954091 
L 211.203323 -306.954091 
L 210.470706 -306.954091 
L 209.738088 -306.954091 
L 209.005471 -306.954091 
L 208.272853 -306.954091 
L 207.540236 -306.954091 
L 206.807618 -306.954091 
L 206.075001 -306.954091 
L 205.342383 -306.954091 
L 204.609766 -306.954091 
L 203.877148 -306.954091 
L 203.144531 -306.954091 
L 202.411913 -306.954091 
L 201.679296 -306.954091 
L 200.946678 -306.954091 
L 200.214061 -306.954091 
L 199.481443 -306.954091 
L 198.748826 -306.954091 
L 198.016208 -306.954091 
L 197.283591 -306.954091 
L 196.550973 -306.954091 
L 195.818356 -306.954091 
L 195.085738 -306.954091 
L 194.353121 -306.954091 
L 193.620503 -306.954091 
L 192.887886 -306.954091 
L 192.155268 -306.954091 
L 191.422651 -306.954091 
L 190.690033 -306.954091 
L 189.957416 -306.954091 
L 189.224798 -306.954091 
L 188.492181 -306.954091 
L 187.759563 -306.954091 
L 187.026946 -306.954091 
L 186.294328 -306.954091 
L 185.561711 -306.954091 
L 184.829093 -306.954091 
L 184.096476 -306.954091 
L 183.363858 -306.954091 
L 182.631241 -306.954091 
L 181.898623 -306.954091 
L 181.166006 -306.954091 
L 180.433388 -306.954091 
L 179.700771 -306.954091 
L 178.968153 -306.954091 
L 178.235536 -306.954091 
L 177.502918 -306.954091 
L 176.7703 -306.954091 
L 176.037683 -306.954091 
L 175.305065 -306.954091 
L 174.572448 -306.954091 
L 173.83983 -306.954091 
L 173.107213 -306.954091 
L 172.374595 -306.954091 
L 171.641978 -306.954091 
L 170.90936 -306.954091 
L 170.176743 -306.954091 
L 169.444125 -306.954091 
L 168.711508 -306.954091 
L 167.97889 -306.954091 
L 167.246273 -306.954091 
L 166.513655 -306.954091 
L 165.781038 -306.954091 
L 165.04842 -306.954091 
L 164.315803 -306.954091 
L 163.583185 -306.954091 
L 162.850568 -306.954091 
L 162.11795 -306.954091 
L 161.385333 -306.954091 
L 160.652715 -306.954091 
L 159.920098 -306.954091 
L 159.18748 -306.954091 
L 158.454863 -306.954091 
L 157.722245 -306.954091 
L 156.989628 -306.954091 
L 156.25701 -306.954091 
L 155.524393 -306.954091 
L 154.791775 -306.954091 
L 154.059158 -306.954091 
L 153.32654 -306.954091 
L 152.593923 -306.954091 
L 151.861305 -306.954091 
L 151.128688 -306.954091 
L 150.39607 -306.954091 
L 149.663453 -306.954091 
L 148.930835 -306.954091 
L 148.198218 -306.954091 
L 147.4656 -306.954091 
L 146.732983 -306.954091 
L 146.000365 -306.954091 
L 145.267748 -306.954091 
L 144.53513 -306.954091 
L 143.802513 -306.954091 
L 143.069895 -306.954091 
L 142.337278 -306.954091 
L 141.60466 -306.954091 
L 140.872043 -306.954091 
L 140.139425 -306.954091 
L 139.406808 -306.954091 
L 138.67419 -306.954091 
L 137.941573 -306.954091 
L 137.208955 -306.954091 
L 136.476338 -306.954091 
L 135.74372 -306.954091 
L 135.011103 -306.954091 
L 134.278485 -306.954091 
L 133.545868 -306.954091 
L 132.81325 -306.954091 
L 132.080633 -306.954091 
L 131.348015 -306.954091 
L 130.615397 -306.954091 
L 129.88278 -306.954091 
L 129.150162 -306.954091 
L 128.417545 -306.954091 
L 127.684927 -306.954091 
L 126.95231 -306.954091 
L 126.219692 -306.954091 
L 125.487075 -306.954091 
L 124.754457 -306.954091 
L 124.02184 -306.954091 
L 123.289222 -306.954091 
L 122.556605 -306.954091 
L 121.823987 -306.954091 
L 121.09137 -306.954091 
L 120.358752 -306.954091 
L 119.626135 -306.954091 
L 118.893517 -306.954091 
L 118.1609 -306.954091 
L 117.428282 -306.954091 
L 116.695665 -306.954091 
L 115.963047 -306.954091 
L 115.23043 -306.954091 
L 114.497812 -306.954091 
L 113.765195 -306.954091 
L 113.032577 -306.954091 
L 112.29996 -306.954091 
L 111.567342 -306.954091 
L 110.834725 -306.954091 
L 110.102107 -306.954091 
L 109.36949 -306.954091 
L 108.636872 -306.954091 
L 107.904255 -306.954091 
L 107.171637 -306.954091 
L 106.43902 -306.954091 
L 105.706402 -306.954091 
L 104.973785 -306.954091 
L 104.241167 -306.954091 
L 103.50855 -306.954091 
L 102.775932 -306.954091 
L 102.043315 -306.954091 
L 101.310697 -306.954091 
L 100.57808 -306.954091 
L 99.845462 -306.954091 
L 99.112845 -306.954091 
L 98.380227 -306.954091 
L 97.64761 -306.954091 
L 96.914992 -306.954091 
L 96.182375 -306.954091 
L 95.449757 -306.954091 
L 94.71714 -306.954091 
L 93.984522 -306.954091 
L 93.251905 -306.954091 
L 92.519287 -306.954091 
L 91.78667 -306.954091 
L 91.054052 -306.954091 
L 90.321435 -306.954091 
L 89.588817 -306.954091 
L 88.8562 -306.954091 
L 88.123582 -306.954091 
L 87.390965 -306.954091 
L 86.658347 -306.954091 
L 85.92573 -306.954091 
L 85.193112 -306.954091 
L 84.460495 -306.954091 
L 83.727877 -306.954091 
L 82.995259 -306.954091 
L 82.262642 -306.954091 
L 81.530024 -306.954091 
L 80.797407 -306.954091 
L 80.064789 -306.954091 
L 79.332172 -306.954091 
L 78.599554 -306.954091 
L 77.866937 -306.954091 
L 77.134319 -304.613083 
L 76.401702 -306.954091 
L 75.669084 -306.954091 
L 74.936467 -305.711704 
L 74.203849 -293.546283 
L 73.471232 -303.034417 
L 72.738614 -278.122081 
L 72.005997 -269.70207 
L 71.273379 -246.420482 
L 70.540762 -239.918356 
L 69.808144 -226.8528 
L 69.075527 -208.111297 
L 68.342909 -180.758335 
L 67.610292 -179.055851 
L 66.877674 -154.9954 
L 66.145057 -118.846242 
z
" style="stroke: #dddddd"/>
    </defs>
    <g clip-path="url(#p253bb1d568)">
     <use xlink:href="#mc0cbf86c1a" x="0" y="345.6" style="fill: #dddddd; stroke: #dddddd"/>
    </g>
   </g>
   <g id="matplotlib.axis_1">
    <g id="xtick_1">
     <g id="line2d_1">
      <path d="M 66.145057 303.685 
L 66.145057 26.025 
" clip-path="url(#p253bb1d568)" style="fill: none; stroke: #b0b0b0; stroke-width: 0.8; stroke-linecap: square"/>
     </g>
     <g id="line2d_2">
      <defs>
       <path id="m84fec0366c" d="M 0 0 
L 0 3.5 
" style="stroke: #000000; stroke-width: 0.8"/>
      </defs>
      <g>
       <use xlink:href="#m84fec0366c" x="66.145057" y="303.685" style="stroke: #000000; stroke-width: 0.8"/>
      </g>
     </g>
     <g id="text_1">
      <!-- 0 -->
      <g transform="translate(63.645057 317.624062)scale(0.1 -0.1)">
       <defs>
        <path id="Cmr10-30" d="M 1600 -141 
Q 816 -141 533 504 
Q 250 1150 250 2041 
Q 250 2597 351 3087 
Q 453 3578 754 3920 
Q 1056 4263 1600 4263 
Q 2022 4263 2290 4056 
Q 2559 3850 2700 3523 
Q 2841 3197 2892 2823 
Q 2944 2450 2944 2041 
Q 2944 1491 2842 1011 
Q 2741 531 2444 195 
Q 2147 -141 1600 -141 
z
M 1600 25 
Q 1956 25 2131 390 
Q 2306 756 2347 1200 
Q 2388 1644 2388 2144 
Q 2388 2625 2347 3031 
Q 2306 3438 2132 3767 
Q 1959 4097 1600 4097 
Q 1238 4097 1063 3765 
Q 888 3434 847 3029 
Q 806 2625 806 2144 
Q 806 1788 823 1472 
Q 841 1156 916 820 
Q 991 484 1158 254 
Q 1325 25 1600 25 
z
" transform="scale(0.015625)"/>
       </defs>
       <use xlink:href="#Cmr10-30"/>
      </g>
     </g>
    </g>
    <g id="xtick_2">
     <g id="line2d_3">
      <path d="M 139.406808 303.685 
L 139.406808 26.025 
" clip-path="url(#p253bb1d568)" style="fill: none; stroke: #b0b0b0; stroke-width: 0.8; stroke-linecap: square"/>
     </g>
     <g id="line2d_4">
      <g>
       <use xlink:href="#m84fec0366c" x="139.406808" y="303.685" style="stroke: #000000; stroke-width: 0.8"/>
      </g>
     </g>
     <g id="text_2">
      <!-- 100 -->
      <g transform="translate(131.906808 317.624062)scale(0.1 -0.1)">
       <defs>
        <path id="Cmr10-31" d="M 594 0 
L 594 225 
Q 1394 225 1394 428 
L 1394 3788 
Q 1063 3628 556 3628 
L 556 3853 
Q 1341 3853 1741 4263 
L 1831 4263 
Q 1853 4263 1873 4245 
Q 1894 4228 1894 4206 
L 1894 428 
Q 1894 225 2694 225 
L 2694 0 
L 594 0 
z
" transform="scale(0.015625)"/>
       </defs>
       <use xlink:href="#Cmr10-31"/>
       <use xlink:href="#Cmr10-30" x="50"/>
       <use xlink:href="#Cmr10-30" x="100"/>
      </g>
     </g>
    </g>
    <g id="xtick_3">
     <g id="line2d_5">
      <path d="M 212.668558 303.685 
L 212.668558 26.025 
" clip-path="url(#p253bb1d568)" style="fill: none; stroke: #b0b0b0; stroke-width: 0.8; stroke-linecap: square"/>
     </g>
     <g id="line2d_6">
      <g>
       <use xlink:href="#m84fec0366c" x="212.668558" y="303.685" style="stroke: #000000; stroke-width: 0.8"/>
      </g>
     </g>
     <g id="text_3">
      <!-- 200 -->
      <g transform="translate(205.168558 317.624062)scale(0.1 -0.1)">
       <defs>
        <path id="Cmr10-32" d="M 319 0 
L 319 172 
Q 319 188 331 206 
L 1325 1306 
Q 1550 1550 1690 1715 
Q 1831 1881 1968 2097 
Q 2106 2313 2186 2536 
Q 2266 2759 2266 3009 
Q 2266 3272 2169 3511 
Q 2072 3750 1880 3894 
Q 1688 4038 1416 4038 
Q 1138 4038 916 3870 
Q 694 3703 603 3438 
Q 628 3444 672 3444 
Q 816 3444 917 3347 
Q 1019 3250 1019 3097 
Q 1019 2950 917 2848 
Q 816 2747 672 2747 
Q 522 2747 420 2851 
Q 319 2956 319 3097 
Q 319 3338 409 3548 
Q 500 3759 670 3923 
Q 841 4088 1055 4175 
Q 1269 4263 1509 4263 
Q 1875 4263 2190 4108 
Q 2506 3953 2690 3670 
Q 2875 3388 2875 3009 
Q 2875 2731 2753 2481 
Q 2631 2231 2440 2026 
Q 2250 1822 1953 1562 
Q 1656 1303 1563 1216 
L 838 519 
L 1453 519 
Q 1906 519 2211 526 
Q 2516 534 2534 550 
Q 2609 631 2688 1141 
L 2875 1141 
L 2694 0 
L 319 0 
z
" transform="scale(0.015625)"/>
       </defs>
       <use xlink:href="#Cmr10-32"/>
       <use xlink:href="#Cmr10-30" x="50"/>
       <use xlink:href="#Cmr10-30" x="100"/>
      </g>
     </g>
    </g>
    <g id="xtick_4">
     <g id="line2d_7">
      <path d="M 285.930309 303.685 
L 285.930309 26.025 
" clip-path="url(#p253bb1d568)" style="fill: none; stroke: #b0b0b0; stroke-width: 0.8; stroke-linecap: square"/>
     </g>
     <g id="line2d_8">
      <g>
       <use xlink:href="#m84fec0366c" x="285.930309" y="303.685" style="stroke: #000000; stroke-width: 0.8"/>
      </g>
     </g>
     <g id="text_4">
      <!-- 300 -->
      <g transform="translate(278.430309 317.624062)scale(0.1 -0.1)">
       <defs>
        <path id="Cmr10-33" d="M 609 494 
Q 759 275 1012 169 
Q 1266 63 1556 63 
Q 1928 63 2084 380 
Q 2241 697 2241 1100 
Q 2241 1281 2208 1462 
Q 2175 1644 2097 1800 
Q 2019 1956 1883 2050 
Q 1747 2144 1550 2144 
L 1125 2144 
Q 1069 2144 1069 2203 
L 1069 2259 
Q 1069 2309 1125 2309 
L 1478 2338 
Q 1703 2338 1851 2506 
Q 2000 2675 2069 2917 
Q 2138 3159 2138 3378 
Q 2138 3684 1994 3881 
Q 1850 4078 1556 4078 
Q 1313 4078 1091 3986 
Q 869 3894 738 3706 
Q 750 3709 759 3711 
Q 769 3713 781 3713 
Q 925 3713 1022 3613 
Q 1119 3513 1119 3372 
Q 1119 3234 1022 3134 
Q 925 3034 781 3034 
Q 641 3034 541 3134 
Q 441 3234 441 3372 
Q 441 3647 606 3850 
Q 772 4053 1033 4158 
Q 1294 4263 1556 4263 
Q 1750 4263 1965 4205 
Q 2181 4147 2356 4039 
Q 2531 3931 2642 3762 
Q 2753 3594 2753 3378 
Q 2753 3109 2633 2881 
Q 2513 2653 2303 2487 
Q 2094 2322 1844 2241 
Q 2122 2188 2372 2031 
Q 2622 1875 2773 1631 
Q 2925 1388 2925 1106 
Q 2925 753 2731 467 
Q 2538 181 2222 20 
Q 1906 -141 1556 -141 
Q 1256 -141 954 -26 
Q 653 88 461 316 
Q 269 544 269 863 
Q 269 1022 375 1128 
Q 481 1234 641 1234 
Q 744 1234 830 1186 
Q 916 1138 964 1050 
Q 1013 963 1013 863 
Q 1013 706 903 600 
Q 794 494 641 494 
L 609 494 
z
" transform="scale(0.015625)"/>
       </defs>
       <use xlink:href="#Cmr10-33"/>
       <use xlink:href="#Cmr10-30" x="50"/>
       <use xlink:href="#Cmr10-30" x="100"/>
      </g>
     </g>
    </g>
    <g id="xtick_5">
     <g id="line2d_9">
      <path d="M 359.19206 303.685 
L 359.19206 26.025 
" clip-path="url(#p253bb1d568)" style="fill: none; stroke: #b0b0b0; stroke-width: 0.8; stroke-linecap: square"/>
     </g>
     <g id="line2d_10">
      <g>
       <use xlink:href="#m84fec0366c" x="359.19206" y="303.685" style="stroke: #000000; stroke-width: 0.8"/>
      </g>
     </g>
     <g id="text_5">
      <!-- 400 -->
      <g transform="translate(351.69206 317.624062)scale(0.1 -0.1)">
       <defs>
        <path id="Cmr10-34" d="M 178 1056 
L 178 1281 
L 2156 4231 
Q 2178 4263 2222 4263 
L 2316 4263 
Q 2388 4263 2388 4191 
L 2388 1281 
L 3016 1281 
L 3016 1056 
L 2388 1056 
L 2388 428 
Q 2388 297 2575 261 
Q 2763 225 3009 225 
L 3009 0 
L 1247 0 
L 1247 225 
Q 1494 225 1681 261 
Q 1869 297 1869 428 
L 1869 1056 
L 178 1056 
z
M 391 1281 
L 1906 1281 
L 1906 3547 
L 391 1281 
z
" transform="scale(0.015625)"/>
       </defs>
       <use xlink:href="#Cmr10-34"/>
       <use xlink:href="#Cmr10-30" x="50"/>
       <use xlink:href="#Cmr10-30" x="100"/>
      </g>
     </g>
    </g>
    <g id="xtick_6">
     <g id="line2d_11">
      <path d="M 432.453811 303.685 
L 432.453811 26.025 
" clip-path="url(#p253bb1d568)" style="fill: none; stroke: #b0b0b0; stroke-width: 0.8; stroke-linecap: square"/>
     </g>
     <g id="line2d_12">
      <g>
       <use xlink:href="#m84fec0366c" x="432.453811" y="303.685" style="stroke: #000000; stroke-width: 0.8"/>
      </g>
     </g>
     <g id="text_6">
      <!-- 500 -->
      <g transform="translate(424.953811 317.624062)scale(0.1 -0.1)">
       <defs>
        <path id="Cmr10-35" d="M 556 728 
Q 622 541 758 387 
Q 894 234 1080 148 
Q 1266 63 1466 63 
Q 1928 63 2103 422 
Q 2278 781 2278 1294 
Q 2278 1516 2270 1667 
Q 2263 1819 2228 1959 
Q 2169 2184 2020 2353 
Q 1872 2522 1656 2522 
Q 1441 2522 1286 2456 
Q 1131 2391 1034 2303 
Q 938 2216 863 2119 
Q 788 2022 769 2016 
L 697 2016 
Q 681 2016 657 2036 
Q 634 2056 634 2075 
L 634 4213 
Q 634 4228 654 4245 
Q 675 4263 697 4263 
L 716 4263 
Q 1147 4056 1631 4056 
Q 2106 4056 2547 4263 
L 2566 4263 
Q 2588 4263 2606 4247 
Q 2625 4231 2625 4213 
L 2625 4153 
Q 2625 4122 2613 4122 
Q 2394 3831 2064 3668 
Q 1734 3506 1381 3506 
Q 1125 3506 856 3578 
L 856 2369 
Q 1069 2541 1236 2614 
Q 1403 2688 1663 2688 
Q 2016 2688 2295 2484 
Q 2575 2281 2725 1954 
Q 2875 1628 2875 1288 
Q 2875 903 2686 575 
Q 2497 247 2172 53 
Q 1847 -141 1466 -141 
Q 1150 -141 886 21 
Q 622 184 470 459 
Q 319 734 319 1044 
Q 319 1188 412 1278 
Q 506 1369 647 1369 
Q 788 1369 883 1276 
Q 978 1184 978 1044 
Q 978 906 883 811 
Q 788 716 647 716 
Q 625 716 597 720 
Q 569 725 556 728 
z
" transform="scale(0.015625)"/>
       </defs>
       <use xlink:href="#Cmr10-35"/>
       <use xlink:href="#Cmr10-30" x="50"/>
       <use xlink:href="#Cmr10-30" x="100"/>
      </g>
     </g>
    </g>
    <g id="text_7">
     <!-- Episodes -->
     <g transform="translate(224.237188 332.583906)scale(0.13 -0.13)">
      <defs>
       <path id="Cmr10-45" d="M 197 0 
L 197 225 
Q 856 225 856 428 
L 856 3944 
Q 856 4147 197 4147 
L 197 4372 
L 3816 4372 
L 3994 2906 
L 3809 2906 
Q 3741 3459 3617 3709 
Q 3494 3959 3222 4053 
Q 2950 4147 2406 4147 
L 1778 4147 
Q 1663 4147 1598 4137 
Q 1534 4128 1493 4083 
Q 1453 4038 1453 3944 
L 1453 2381 
L 1925 2381 
Q 2250 2381 2411 2436 
Q 2572 2491 2633 2645 
Q 2694 2800 2694 3128 
L 2881 3128 
L 2881 1409 
L 2694 1409 
Q 2694 1734 2633 1890 
Q 2572 2047 2411 2101 
Q 2250 2156 1925 2156 
L 1453 2156 
L 1453 428 
Q 1453 291 1531 258 
Q 1609 225 1778 225 
L 2456 225 
Q 2900 225 3173 295 
Q 3447 366 3598 530 
Q 3750 694 3833 955 
Q 3916 1216 3988 1678 
L 4172 1678 
L 3903 0 
L 197 0 
z
" transform="scale(0.015625)"/>
       <path id="Cmr10-70" d="M 166 -1241 
L 166 -1019 
Q 384 -1019 525 -981 
Q 666 -944 666 -813 
L 666 2272 
Q 666 2447 541 2490 
Q 416 2534 166 2534 
L 166 2759 
L 1113 2828 
L 1113 2431 
Q 1288 2625 1520 2726 
Q 1753 2828 2016 2828 
Q 2394 2828 2697 2623 
Q 3000 2419 3170 2086 
Q 3341 1753 3341 1381 
Q 3341 994 3152 659 
Q 2963 325 2636 126 
Q 2309 -72 1919 -72 
Q 1453 -72 1131 306 
L 1131 -813 
Q 1131 -944 1273 -981 
Q 1416 -1019 1631 -1019 
L 1631 -1241 
L 166 -1241 
z
M 1131 622 
Q 1244 394 1444 245 
Q 1644 97 1881 97 
Q 2103 97 2273 215 
Q 2444 334 2559 534 
Q 2675 734 2729 954 
Q 2784 1175 2784 1381 
Q 2784 1638 2692 1936 
Q 2600 2234 2411 2439 
Q 2222 2644 1953 2644 
Q 1694 2644 1476 2511 
Q 1259 2378 1131 2150 
L 1131 622 
z
" transform="scale(0.015625)"/>
       <path id="Cmr10-69" d="M 197 0 
L 197 225 
Q 416 225 556 259 
Q 697 294 697 428 
L 697 2175 
Q 697 2422 601 2478 
Q 506 2534 225 2534 
L 225 2759 
L 1147 2828 
L 1147 428 
Q 1147 294 1269 259 
Q 1391 225 1594 225 
L 1594 0 
L 197 0 
z
M 469 3928 
Q 469 4069 575 4175 
Q 681 4281 819 4281 
Q 909 4281 993 4234 
Q 1078 4188 1125 4103 
Q 1172 4019 1172 3928 
Q 1172 3791 1065 3684 
Q 959 3578 819 3578 
Q 681 3578 575 3684 
Q 469 3791 469 3928 
z
" transform="scale(0.015625)"/>
       <path id="Cmr10-73" d="M 213 -19 
L 213 1025 
Q 213 1075 269 1075 
L 347 1075 
Q 384 1075 397 1025 
Q 575 97 1259 97 
Q 1563 97 1767 234 
Q 1972 372 1972 659 
Q 1972 866 1812 1011 
Q 1653 1156 1434 1209 
L 1006 1294 
Q 791 1341 614 1437 
Q 438 1534 325 1695 
Q 213 1856 213 2069 
Q 213 2350 361 2529 
Q 509 2709 746 2789 
Q 984 2869 1259 2869 
Q 1588 2869 1831 2694 
L 2016 2853 
Q 2016 2869 2047 2869 
L 2094 2869 
Q 2113 2869 2128 2851 
Q 2144 2834 2144 2816 
L 2144 1978 
Q 2144 1919 2094 1919 
L 2016 1919 
Q 1959 1919 1959 1978 
Q 1959 2313 1773 2516 
Q 1588 2719 1253 2719 
Q 966 2719 755 2612 
Q 544 2506 544 2247 
Q 544 2069 695 1955 
Q 847 1841 1050 1791 
L 1484 1709 
Q 1703 1659 1892 1540 
Q 2081 1422 2192 1240 
Q 2303 1059 2303 831 
Q 2303 600 2223 429 
Q 2144 259 2001 146 
Q 1859 34 1665 -19 
Q 1472 -72 1259 -72 
Q 859 -72 575 197 
L 341 -56 
Q 341 -72 306 -72 
L 269 -72 
Q 213 -72 213 -19 
z
" transform="scale(0.015625)"/>
       <path id="Cmr10-6f" d="M 1600 -72 
Q 1216 -72 887 123 
Q 559 319 368 647 
Q 178 975 178 1363 
Q 178 1656 283 1928 
Q 388 2200 583 2414 
Q 778 2628 1037 2748 
Q 1297 2869 1600 2869 
Q 1994 2869 2317 2661 
Q 2641 2453 2828 2104 
Q 3016 1756 3016 1363 
Q 3016 978 2825 648 
Q 2634 319 2307 123 
Q 1981 -72 1600 -72 
z
M 1600 116 
Q 2113 116 2284 487 
Q 2456 859 2456 1434 
Q 2456 1756 2422 1967 
Q 2388 2178 2272 2350 
Q 2200 2456 2089 2536 
Q 1978 2616 1854 2658 
Q 1731 2700 1600 2700 
Q 1400 2700 1220 2609 
Q 1041 2519 922 2350 
Q 803 2169 770 1951 
Q 738 1734 738 1434 
Q 738 1075 800 789 
Q 863 503 1052 309 
Q 1241 116 1600 116 
z
" transform="scale(0.015625)"/>
       <path id="Cmr10-64" d="M 1563 -72 
Q 1184 -72 871 133 
Q 559 338 386 672 
Q 213 1006 213 1381 
Q 213 1769 402 2101 
Q 591 2434 916 2631 
Q 1241 2828 1631 2828 
Q 1866 2828 2075 2729 
Q 2284 2631 2438 2456 
L 2438 3788 
Q 2438 3959 2386 4036 
Q 2334 4113 2239 4130 
Q 2144 4147 1941 4147 
L 1941 4372 
L 2888 4441 
L 2888 581 
Q 2888 413 2939 336 
Q 2991 259 3086 242 
Q 3181 225 3384 225 
L 3384 0 
L 2419 -72 
L 2419 331 
Q 2253 141 2025 34 
Q 1797 -72 1563 -72 
z
M 909 556 
Q 1019 347 1201 222 
Q 1384 97 1600 97 
Q 1866 97 2087 250 
Q 2309 403 2419 647 
L 2419 2181 
Q 2344 2322 2230 2433 
Q 2116 2544 1973 2603 
Q 1831 2663 1672 2663 
Q 1338 2663 1134 2473 
Q 931 2284 850 1990 
Q 769 1697 769 1375 
Q 769 1119 795 928 
Q 822 738 909 556 
z
" transform="scale(0.015625)"/>
       <path id="Cmr10-65" d="M 1594 -72 
Q 1203 -72 876 133 
Q 550 338 364 680 
Q 178 1022 178 1403 
Q 178 1778 348 2115 
Q 519 2453 823 2661 
Q 1128 2869 1503 2869 
Q 1797 2869 2014 2770 
Q 2231 2672 2372 2497 
Q 2513 2322 2584 2084 
Q 2656 1847 2656 1563 
Q 2656 1478 2591 1478 
L 738 1478 
L 738 1409 
Q 738 878 952 497 
Q 1166 116 1650 116 
Q 1847 116 2014 203 
Q 2181 291 2304 447 
Q 2428 603 2472 781 
Q 2478 803 2495 820 
Q 2513 838 2534 838 
L 2591 838 
Q 2656 838 2656 756 
Q 2566 394 2266 161 
Q 1966 -72 1594 -72 
z
M 744 1638 
L 2203 1638 
Q 2203 1878 2136 2125 
Q 2069 2372 1912 2536 
Q 1756 2700 1503 2700 
Q 1141 2700 942 2361 
Q 744 2022 744 1638 
z
" transform="scale(0.015625)"/>
      </defs>
      <use xlink:href="#Cmr10-45"/>
      <use xlink:href="#Cmr10-70" x="68.017578"/>
      <use xlink:href="#Cmr10-69" x="123.535156"/>
      <use xlink:href="#Cmr10-73" x="151.220703"/>
      <use xlink:href="#Cmr10-6f" x="190.625"/>
      <use xlink:href="#Cmr10-64" x="240.625"/>
      <use xlink:href="#Cmr10-65" x="296.142578"/>
      <use xlink:href="#Cmr10-73" x="340.527344"/>
     </g>
    </g>
   </g>
   <g id="matplotlib.axis_2">
    <g id="ytick_1">
     <g id="line2d_13">
      <path d="M 47.86625 265.565224 
L 450 265.565224 
" clip-path="url(#p253bb1d568)" style="fill: none; stroke: #b0b0b0; stroke-width: 0.8; stroke-linecap: square"/>
     </g>
     <g id="line2d_14">
      <defs>
       <path id="m689e467668" d="M 0 0 
L -3.5 0 
" style="stroke: #000000; stroke-width: 0.8"/>
      </defs>
      <g>
       <use xlink:href="#m689e467668" x="47.86625" y="265.565224" style="stroke: #000000; stroke-width: 0.8"/>
      </g>
     </g>
     <g id="text_8">
      <!-- 100 -->
      <g transform="translate(25.86625 269.034755)scale(0.1 -0.1)">
       <use xlink:href="#Cmr10-31"/>
       <use xlink:href="#Cmr10-30" x="50"/>
       <use xlink:href="#Cmr10-30" x="100"/>
      </g>
     </g>
    </g>
    <g id="ytick_2">
     <g id="line2d_15">
      <path d="M 47.86625 208.835395 
L 450 208.835395 
" clip-path="url(#p253bb1d568)" style="fill: none; stroke: #b0b0b0; stroke-width: 0.8; stroke-linecap: square"/>
     </g>
     <g id="line2d_16">
      <g>
       <use xlink:href="#m689e467668" x="47.86625" y="208.835395" style="stroke: #000000; stroke-width: 0.8"/>
      </g>
     </g>
     <g id="text_9">
      <!-- 200 -->
      <g transform="translate(25.86625 212.304927)scale(0.1 -0.1)">
       <use xlink:href="#Cmr10-32"/>
       <use xlink:href="#Cmr10-30" x="50"/>
       <use xlink:href="#Cmr10-30" x="100"/>
      </g>
     </g>
    </g>
    <g id="ytick_3">
     <g id="line2d_17">
      <path d="M 47.86625 152.105567 
L 450 152.105567 
" clip-path="url(#p253bb1d568)" style="fill: none; stroke: #b0b0b0; stroke-width: 0.8; stroke-linecap: square"/>
     </g>
     <g id="line2d_18">
      <g>
       <use xlink:href="#m689e467668" x="47.86625" y="152.105567" style="stroke: #000000; stroke-width: 0.8"/>
      </g>
     </g>
     <g id="text_10">
      <!-- 300 -->
      <g transform="translate(25.86625 155.575098)scale(0.1 -0.1)">
       <use xlink:href="#Cmr10-33"/>
       <use xlink:href="#Cmr10-30" x="50"/>
       <use xlink:href="#Cmr10-30" x="100"/>
      </g>
     </g>
    </g>
    <g id="ytick_4">
     <g id="line2d_19">
      <path d="M 47.86625 95.375738 
L 450 95.375738 
" clip-path="url(#p253bb1d568)" style="fill: none; stroke: #b0b0b0; stroke-width: 0.8; stroke-linecap: square"/>
     </g>
     <g id="line2d_20">
      <g>
       <use xlink:href="#m689e467668" x="47.86625" y="95.375738" style="stroke: #000000; stroke-width: 0.8"/>
      </g>
     </g>
     <g id="text_11">
      <!-- 400 -->
      <g transform="translate(25.86625 98.845269)scale(0.1 -0.1)">
       <use xlink:href="#Cmr10-34"/>
       <use xlink:href="#Cmr10-30" x="50"/>
       <use xlink:href="#Cmr10-30" x="100"/>
      </g>
     </g>
    </g>
    <g id="ytick_5">
     <g id="line2d_21">
      <path d="M 47.86625 38.645909 
L 450 38.645909 
" clip-path="url(#p253bb1d568)" style="fill: none; stroke: #b0b0b0; stroke-width: 0.8; stroke-linecap: square"/>
     </g>
     <g id="line2d_22">
      <g>
       <use xlink:href="#m689e467668" x="47.86625" y="38.645909" style="stroke: #000000; stroke-width: 0.8"/>
      </g>
     </g>
     <g id="text_12">
      <!-- 500 -->
      <g transform="translate(25.86625 42.11544)scale(0.1 -0.1)">
       <use xlink:href="#Cmr10-35"/>
       <use xlink:href="#Cmr10-30" x="50"/>
       <use xlink:href="#Cmr10-30" x="100"/>
      </g>
     </g>
    </g>
    <g id="text_13">
     <!-- Score -->
     <g transform="translate(19.345469 180.026406)rotate(-90)scale(0.13 -0.13)">
      <defs>
       <path id="Cmr10-53" d="M 359 -91 
L 359 1403 
Q 359 1453 416 1453 
L 494 1453 
Q 513 1453 528 1437 
Q 544 1422 544 1403 
Q 544 775 933 429 
Q 1322 84 1953 84 
Q 2175 84 2362 212 
Q 2550 341 2654 548 
Q 2759 756 2759 978 
Q 2759 1172 2681 1355 
Q 2603 1538 2456 1672 
Q 2309 1806 2125 1850 
L 1294 2053 
Q 881 2163 620 2502 
Q 359 2841 359 3263 
Q 359 3594 528 3884 
Q 697 4175 983 4344 
Q 1269 4513 1600 4513 
Q 2241 4513 2619 4078 
L 2881 4494 
Q 2900 4513 2925 4513 
L 2969 4513 
Q 2988 4513 3005 4498 
Q 3022 4484 3022 4459 
L 3022 2975 
Q 3022 2919 2969 2919 
L 2894 2919 
Q 2834 2919 2834 2975 
Q 2834 3138 2779 3331 
Q 2725 3525 2628 3703 
Q 2531 3881 2419 3994 
Q 2109 4306 1600 4306 
Q 1381 4306 1197 4195 
Q 1013 4084 903 3893 
Q 794 3703 794 3494 
Q 794 3219 964 2995 
Q 1134 2772 1409 2700 
L 2241 2497 
Q 2447 2447 2630 2317 
Q 2813 2188 2934 2016 
Q 3056 1844 3125 1633 
Q 3194 1422 3194 1197 
Q 3194 850 3034 542 
Q 2875 234 2586 46 
Q 2297 -141 1953 -141 
Q 1741 -141 1519 -94 
Q 1297 -47 1109 50 
Q 922 147 769 300 
L 500 -122 
Q 481 -141 453 -141 
L 416 -141 
Q 359 -141 359 -91 
z
" transform="scale(0.015625)"/>
       <path id="Cmr10-63" d="M 1594 -72 
Q 1206 -72 890 129 
Q 575 331 394 667 
Q 213 1003 213 1381 
Q 213 1759 392 2106 
Q 572 2453 889 2661 
Q 1206 2869 1594 2869 
Q 1969 2869 2276 2722 
Q 2584 2575 2584 2241 
Q 2584 2116 2495 2023 
Q 2406 1931 2278 1931 
Q 2150 1931 2061 2023 
Q 1972 2116 1972 2241 
Q 1972 2353 2044 2436 
Q 2116 2519 2222 2541 
Q 2000 2681 1600 2681 
Q 1294 2681 1106 2478 
Q 919 2275 844 1975 
Q 769 1675 769 1381 
Q 769 1072 861 783 
Q 953 494 1158 305 
Q 1363 116 1672 116 
Q 1975 116 2187 302 
Q 2400 488 2478 788 
Q 2478 825 2528 825 
L 2606 825 
Q 2625 825 2640 808 
Q 2656 791 2656 769 
L 2656 750 
Q 2559 372 2271 150 
Q 1984 -72 1594 -72 
z
" transform="scale(0.015625)"/>
       <path id="Cmr10-72" d="M 166 0 
L 166 225 
Q 384 225 525 259 
Q 666 294 666 428 
L 666 2175 
Q 666 2347 614 2423 
Q 563 2500 466 2517 
Q 369 2534 166 2534 
L 166 2759 
L 1081 2828 
L 1081 2203 
Q 1184 2481 1375 2654 
Q 1566 2828 1838 2828 
Q 2028 2828 2178 2715 
Q 2328 2603 2328 2419 
Q 2328 2303 2245 2217 
Q 2163 2131 2041 2131 
Q 1922 2131 1837 2215 
Q 1753 2300 1753 2419 
Q 1753 2591 1875 2663 
L 1838 2663 
Q 1578 2663 1414 2475 
Q 1250 2288 1181 2009 
Q 1113 1731 1113 1478 
L 1113 428 
Q 1113 225 1734 225 
L 1734 0 
L 166 0 
z
" transform="scale(0.015625)"/>
      </defs>
      <use xlink:href="#Cmr10-53"/>
      <use xlink:href="#Cmr10-63" x="55.517578"/>
      <use xlink:href="#Cmr10-6f" x="99.902344"/>
      <use xlink:href="#Cmr10-72" x="149.902344"/>
      <use xlink:href="#Cmr10-65" x="189.013672"/>
     </g>
    </g>
   </g>
   <g id="line2d_23">
    <path d="M 66.145057 258.908924 
L 66.877674 239.450593 
L 67.610292 224.871027 
L 68.342909 219.755887 
L 69.075527 196.250828 
L 69.808144 186.436568 
L 70.540762 174.2302 
L 71.273379 167.148426 
L 72.005997 151.793553 
L 72.738614 142.262941 
L 73.471232 115.514827 
L 74.203849 125.612737 
L 74.936467 110.040399 
L 75.669084 98.533698 
L 76.401702 106.37187 
L 77.134319 105.681657 
L 77.866937 97.777301 
L 78.599554 94.430241 
L 79.332172 79.756125 
L 80.064789 87.131003 
L 80.797407 82.98027 
L 82.262642 78.791718 
L 82.995259 78.03532 
L 83.727877 69.317837 
L 84.460495 65.516938 
L 85.193112 67.540302 
L 85.92573 62.481892 
L 86.658347 69.100372 
L 87.390965 70.452433 
L 88.123582 58.794453 
L 88.8562 62.973551 
L 89.588817 61.763314 
L 90.321435 58.974098 
L 91.054052 57.867866 
L 91.78667 53.887323 
L 92.519287 55.163744 
L 93.251905 52.374528 
L 93.984522 48.25216 
L 94.71714 55.721588 
L 95.449757 45.103655 
L 96.182375 52.601447 
L 96.914992 48.091426 
L 97.64761 48.318345 
L 98.380227 44.385077 
L 99.112845 51.589765 
L 99.845462 47.420123 
L 100.57808 44.158157 
L 101.310697 47.382303 
L 102.043315 41.52022 
L 102.775932 43.978513 
L 103.50855 43.571949 
L 104.241167 42.494082 
L 104.973785 46.455716 
L 105.706402 45.07529 
L 106.43902 46.380076 
L 107.171637 42.078064 
L 107.904255 44.035243 
L 108.636872 39.165933 
L 109.36949 41.038017 
L 110.102107 43.723229 
L 110.834725 39.581951 
L 111.567342 42.087519 
L 112.29996 40.943467 
L 113.032577 40.272164 
L 114.497812 44.347257 
L 115.23043 39.383397 
L 115.963047 40.0547 
L 116.695665 40.451809 
L 117.428282 40.565268 
L 118.1609 39.950695 
L 118.893517 40.328894 
L 120.358752 38.645909 
L 121.823987 40.470719 
L 122.556605 39.704866 
L 123.289222 39.629226 
L 124.02184 40.669273 
L 124.754457 40.262709 
L 125.487075 40.621998 
L 126.219692 43.571949 
L 126.95231 40.480174 
L 127.684927 38.901193 
L 128.417545 39.610316 
L 129.150162 41.548585 
L 129.88278 38.844463 
L 130.615397 38.645909 
L 131.348015 41.350031 
L 132.080633 40.234344 
L 132.81325 40.612543 
L 134.278485 40.555813 
L 135.011103 38.674274 
L 135.74372 40.451809 
L 137.208955 39.175387 
L 137.941573 40.678728 
L 138.67419 38.693184 
L 139.406808 40.291074 
L 140.139425 38.759369 
L 140.872043 39.90342 
L 141.60466 39.8656 
L 142.337278 39.203752 
L 143.069895 39.071383 
L 143.802513 38.645909 
L 144.53513 41.69041 
L 145.267748 38.645909 
L 146.000365 38.645909 
L 146.732983 38.787734 
L 147.4656 38.645909 
L 148.198218 39.468492 
L 148.930835 39.648136 
L 149.663453 38.920103 
L 150.39607 38.910648 
L 151.128688 39.080838 
L 151.861305 38.645909 
L 152.593923 39.657591 
L 154.059158 38.920103 
L 154.791775 40.158705 
L 155.524393 39.685956 
L 156.25701 38.645909 
L 156.989628 39.421217 
L 157.722245 38.645909 
L 158.454863 38.645909 
L 159.18748 39.440127 
L 159.920098 39.440127 
L 160.652715 38.645909 
L 161.385333 40.026335 
L 162.11795 39.572496 
L 162.850568 38.645909 
L 163.583185 38.645909 
L 165.781038 39.061928 
L 166.513655 38.645909 
L 167.97889 38.645909 
L 168.711508 39.307757 
L 169.444125 38.645909 
L 170.176743 38.645909 
L 170.90936 39.421217 
L 171.641978 38.645909 
L 172.374595 38.645909 
L 173.107213 39.364487 
L 174.572448 38.645909 
L 181.166006 38.645909 
L 181.898623 39.024108 
L 182.631241 38.749914 
L 183.363858 39.487402 
L 184.096476 39.591406 
L 184.829093 38.806644 
L 185.561711 38.645909 
L 186.294328 39.336122 
L 187.026946 38.920103 
L 187.759563 38.645909 
L 190.690033 38.645909 
L 191.422651 39.260482 
L 192.155268 38.674274 
L 192.887886 39.279392 
L 193.620503 38.645909 
L 194.353121 39.383397 
L 195.085738 38.645909 
L 195.818356 38.645909 
L 196.550973 38.948468 
L 197.283591 38.645909 
L 198.748826 38.645909 
L 199.481443 39.761596 
L 200.214061 38.645909 
L 203.877148 38.645909 
L 204.609766 39.496857 
L 205.342383 38.645909 
L 209.005471 38.645909 
L 209.738088 39.449582 
L 210.470706 40.489629 
L 211.203323 38.645909 
L 211.935941 38.645909 
L 212.668558 38.901193 
L 213.401176 38.645909 
L 219.994733 38.645909 
L 220.727351 39.288847 
L 221.459968 38.645909 
L 222.192586 38.645909 
L 222.925203 39.099748 
L 223.657821 38.645909 
L 224.390438 38.664819 
L 225.123056 39.184842 
L 226.588291 39.175387 
L 227.320909 38.645909 
L 233.914466 38.645909 
L 234.647084 38.778279 
L 235.379701 38.645909 
L 236.844936 38.645909 
L 237.577554 39.260482 
L 238.310171 39.487402 
L 239.042789 39.175387 
L 239.775406 38.645909 
L 241.973259 38.645909 
L 242.705876 39.043018 
L 243.438494 39.222662 
L 244.171111 39.950695 
L 244.903729 38.645909 
L 247.101581 39.411762 
L 247.834199 38.816099 
L 248.566816 38.645909 
L 253.695139 38.645909 
L 254.427756 39.714321 
L 255.160374 38.645909 
L 256.625609 38.645909 
L 257.358226 39.288847 
L 258.090844 39.184842 
L 258.823461 38.645909 
L 263.219166 38.645909 
L 263.951784 38.939013 
L 264.684401 38.645909 
L 265.417019 39.203752 
L 266.149636 38.645909 
L 269.812724 38.645909 
L 270.545341 38.939013 
L 271.277959 38.645909 
L 272.743194 38.995743 
L 273.475812 38.645909 
L 275.673664 38.645909 
L 276.406282 39.856145 
L 277.138899 38.645909 
L 285.197692 38.645909 
L 285.930309 39.014653 
L 286.662927 38.645909 
L 290.326014 38.645909 
L 291.058632 39.109203 
L 291.791249 39.799416 
L 292.523867 38.645909 
L 295.454337 38.645909 
L 296.186954 39.88451 
L 296.919572 38.645909 
L 297.652189 38.645909 
L 298.384807 39.402307 
L 299.117424 38.645909 
L 299.850042 39.203752 
L 300.582659 38.645909 
L 302.780512 38.645909 
L 303.513129 39.222662 
L 304.245747 38.645909 
L 306.443599 38.645909 
L 307.176217 38.967378 
L 307.908834 38.645909 
L 310.106687 38.645909 
L 310.839304 39.184842 
L 311.571922 38.645909 
L 312.304539 39.336122 
L 313.037157 38.645909 
L 324.02642 38.645909 
L 324.759037 39.477947 
L 325.491655 38.645909 
L 333.550447 38.645909 
L 334.283065 39.600861 
L 335.015682 38.645909 
L 336.480917 38.645909 
L 337.213535 39.430672 
L 337.946152 38.645909 
L 344.53971 38.645909 
L 345.272327 40.01688 
L 346.004945 38.645909 
L 353.33112 38.645909 
L 354.063737 39.043018 
L 354.796355 38.645909 
L 367.250853 38.645909 
L 367.98347 39.515766 
L 368.716088 38.645909 
L 377.507498 38.645909 
L 378.240115 39.165933 
L 378.972733 38.645909 
L 379.70535 39.061928 
L 380.437968 38.645909 
L 382.63582 38.645909 
L 383.368438 39.241572 
L 384.101055 38.645909 
L 384.833673 38.740459 
L 385.56629 39.203752 
L 386.298908 38.645909 
L 387.764143 38.645909 
L 388.49676 39.213207 
L 389.961995 38.645909 
L 420.731931 38.645909 
L 421.464548 38.967378 
L 422.197166 38.645909 
L 425.127636 38.645909 
L 425.860253 38.929558 
L 426.592871 38.645909 
L 427.325488 38.645909 
L 428.058106 39.232117 
L 428.790723 38.645909 
L 430.255958 38.645909 
L 430.988576 38.825554 
L 431.721193 38.645909 
L 431.721193 38.645909 
" clip-path="url(#p253bb1d568)" style="fill: none; stroke: #111111; stroke-width: 1.5; stroke-linecap: square"/>
   </g>
   <g id="patch_3">
    <path d="M 47.86625 303.685 
L 47.86625 26.025 
" style="fill: none; stroke: #000000; stroke-width: 0.8; stroke-linejoin: miter; stroke-linecap: square"/>
   </g>
   <g id="patch_4">
    <path d="M 450 303.685 
L 450 26.025 
" style="fill: none; stroke: #000000; stroke-width: 0.8; stroke-linejoin: miter; stroke-linecap: square"/>
   </g>
   <g id="patch_5">
    <path d="M 47.86625 303.685 
L 450 303.685 
" style="fill: none; stroke: #000000; stroke-width: 0.8; stroke-linejoin: miter; stroke-linecap: square"/>
   </g>
   <g id="patch_6">
    <path d="M 47.86625 26.025 
L 450 26.025 
" style="fill: none; stroke: #000000; stroke-width: 0.8; stroke-linejoin: miter; stroke-linecap: square"/>
   </g>
   <g id="text_14">
    <!-- Learning curve Supervised -->
    <g transform="translate(179.504687 20.025)scale(0.12 -0.12)">
     <defs>
      <path id="Cmr10-4c" d="M 197 0 
L 197 225 
Q 856 225 856 428 
L 856 3944 
Q 856 4147 197 4147 
L 197 4372 
L 2272 4372 
L 2272 4147 
Q 1453 4147 1453 3944 
L 1453 428 
Q 1453 291 1531 258 
Q 1609 225 1778 225 
L 2272 225 
Q 2750 225 3009 400 
Q 3269 575 3376 876 
Q 3484 1178 3541 1678 
L 3725 1678 
L 3547 0 
L 197 0 
z
" transform="scale(0.015625)"/>
      <path id="Cmr10-61" d="M 256 628 
Q 256 1009 556 1248 
Q 856 1488 1276 1586 
Q 1697 1684 2075 1684 
L 2075 1947 
Q 2075 2131 1994 2304 
Q 1913 2478 1759 2589 
Q 1606 2700 1422 2700 
Q 997 2700 775 2509 
Q 897 2509 976 2417 
Q 1056 2325 1056 2203 
Q 1056 2075 965 1984 
Q 875 1894 750 1894 
Q 622 1894 531 1984 
Q 441 2075 441 2203 
Q 441 2541 747 2705 
Q 1053 2869 1422 2869 
Q 1681 2869 1943 2758 
Q 2206 2647 2373 2440 
Q 2541 2234 2541 1959 
L 2541 519 
Q 2541 394 2594 289 
Q 2647 184 2759 184 
Q 2866 184 2917 290 
Q 2969 397 2969 519 
L 2969 928 
L 3156 928 
L 3156 519 
Q 3156 375 3081 245 
Q 3006 116 2879 39 
Q 2753 -38 2606 -38 
Q 2419 -38 2283 107 
Q 2147 253 2131 453 
Q 2013 213 1781 70 
Q 1550 -72 1288 -72 
Q 1044 -72 808 0 
Q 572 72 414 226 
Q 256 381 256 628 
z
M 775 628 
Q 775 403 940 250 
Q 1106 97 1331 97 
Q 1538 97 1706 200 
Q 1875 303 1975 481 
Q 2075 659 2075 856 
L 2075 1522 
Q 1784 1522 1479 1426 
Q 1175 1331 975 1128 
Q 775 925 775 628 
z
" transform="scale(0.015625)"/>
      <path id="Cmr10-6e" d="M 191 0 
L 191 225 
Q 409 225 550 259 
Q 691 294 691 428 
L 691 2175 
Q 691 2347 639 2423 
Q 588 2500 491 2517 
Q 394 2534 191 2534 
L 191 2759 
L 1119 2828 
L 1119 2203 
Q 1247 2478 1498 2653 
Q 1750 2828 2047 2828 
Q 2491 2828 2714 2615 
Q 2938 2403 2938 1966 
L 2938 428 
Q 2938 294 3078 259 
Q 3219 225 3438 225 
L 3438 0 
L 1972 0 
L 1972 225 
Q 2191 225 2331 259 
Q 2472 294 2472 428 
L 2472 1947 
Q 2472 2259 2381 2461 
Q 2291 2663 2009 2663 
Q 1638 2663 1398 2366 
Q 1159 2069 1159 1691 
L 1159 428 
Q 1159 294 1300 259 
Q 1441 225 1656 225 
L 1656 0 
L 191 0 
z
" transform="scale(0.015625)"/>
      <path id="Cmr10-67" d="M 178 -500 
Q 178 -272 343 -101 
Q 509 69 738 141 
Q 609 238 542 384 
Q 475 531 475 697 
Q 475 997 666 1228 
Q 372 1516 372 1888 
Q 372 2088 458 2263 
Q 544 2438 697 2566 
Q 850 2694 1037 2761 
Q 1225 2828 1422 2828 
Q 1803 2828 2106 2606 
Q 2238 2747 2417 2823 
Q 2597 2900 2791 2900 
Q 2928 2900 3015 2801 
Q 3103 2703 3103 2566 
Q 3103 2488 3043 2428 
Q 2984 2369 2906 2369 
Q 2825 2369 2765 2428 
Q 2706 2488 2706 2566 
Q 2706 2684 2784 2731 
Q 2453 2731 2216 2503 
Q 2331 2388 2401 2220 
Q 2472 2053 2472 1888 
Q 2472 1616 2322 1398 
Q 2172 1181 1926 1061 
Q 1681 941 1422 941 
Q 1072 941 781 1131 
Q 691 1006 691 850 
Q 691 681 802 554 
Q 913 428 1081 428 
L 1606 428 
Q 1988 428 2294 359 
Q 2600 291 2808 84 
Q 3016 -122 3016 -500 
Q 3016 -781 2778 -967 
Q 2541 -1153 2211 -1236 
Q 1881 -1319 1600 -1319 
Q 1316 -1319 984 -1236 
Q 653 -1153 415 -967 
Q 178 -781 178 -500 
z
M 538 -500 
Q 538 -716 713 -861 
Q 888 -1006 1134 -1076 
Q 1381 -1147 1600 -1147 
Q 1816 -1147 2062 -1076 
Q 2309 -1006 2482 -861 
Q 2656 -716 2656 -500 
Q 2656 -166 2350 -67 
Q 2044 31 1606 31 
L 1081 31 
Q 934 31 811 -39 
Q 688 -109 613 -236 
Q 538 -363 538 -500 
z
M 1422 1113 
Q 1966 1113 1966 1888 
Q 1966 2222 1850 2439 
Q 1734 2656 1422 2656 
Q 1109 2656 993 2439 
Q 878 2222 878 1888 
Q 878 1675 922 1503 
Q 966 1331 1084 1222 
Q 1203 1113 1422 1113 
z
" transform="scale(0.015625)"/>
      <path id="Cmr10-20" transform="scale(0.015625)"/>
      <path id="Cmr10-75" d="M 691 763 
L 691 2175 
Q 691 2347 639 2423 
Q 588 2500 491 2517 
Q 394 2534 191 2534 
L 191 2759 
L 1159 2828 
L 1159 763 
Q 1159 513 1195 373 
Q 1231 234 1348 165 
Q 1466 97 1722 97 
Q 2066 97 2269 384 
Q 2472 672 2472 1038 
L 2472 2175 
Q 2472 2347 2419 2423 
Q 2366 2500 2270 2517 
Q 2175 2534 1972 2534 
L 1972 2759 
L 2938 2828 
L 2938 581 
Q 2938 413 2989 336 
Q 3041 259 3137 242 
Q 3234 225 3438 225 
L 3438 0 
L 2491 -72 
L 2491 469 
Q 2372 228 2159 78 
Q 1947 -72 1691 -72 
Q 1231 -72 961 123 
Q 691 319 691 763 
z
" transform="scale(0.015625)"/>
      <path id="Cmr10-76" d="M 1563 0 
L 628 2350 
Q 569 2469 445 2501 
Q 322 2534 122 2534 
L 122 2759 
L 1466 2759 
L 1466 2534 
Q 1106 2534 1106 2381 
Q 1106 2356 1113 2344 
L 1831 538 
L 2478 2169 
Q 2497 2219 2497 2272 
Q 2497 2394 2405 2464 
Q 2313 2534 2188 2534 
L 2188 2759 
L 3250 2759 
L 3250 2534 
Q 3053 2534 2904 2443 
Q 2756 2353 2675 2175 
L 1813 0 
Q 1788 -72 1709 -72 
L 1663 -72 
Q 1584 -72 1563 0 
z
" transform="scale(0.015625)"/>
     </defs>
     <use xlink:href="#Cmr10-4c"/>
     <use xlink:href="#Cmr10-65" x="62.5"/>
     <use xlink:href="#Cmr10-61" x="106.884766"/>
     <use xlink:href="#Cmr10-72" x="156.884766"/>
     <use xlink:href="#Cmr10-6e" x="195.996094"/>
     <use xlink:href="#Cmr10-69" x="251.513672"/>
     <use xlink:href="#Cmr10-6e" x="279.199219"/>
     <use xlink:href="#Cmr10-67" x="334.716797"/>
     <use xlink:href="#Cmr10-20" x="384.716797"/>
     <use xlink:href="#Cmr10-63" x="418.017578"/>
     <use xlink:href="#Cmr10-75" x="462.402344"/>
     <use xlink:href="#Cmr10-72" x="517.919922"/>
     <use xlink:href="#Cmr10-76" x="557.03125"/>
     <use xlink:href="#Cmr10-65" x="609.716797"/>
     <use xlink:href="#Cmr10-20" x="654.101562"/>
     <use xlink:href="#Cmr10-53" x="687.402344"/>
     <use xlink:href="#Cmr10-75" x="742.919922"/>
     <use xlink:href="#Cmr10-70" x="798.4375"/>
     <use xlink:href="#Cmr10-65" x="853.955078"/>
     <use xlink:href="#Cmr10-72" x="898.339844"/>
     <use xlink:href="#Cmr10-76" x="937.451172"/>
     <use xlink:href="#Cmr10-69" x="990.136719"/>
     <use xlink:href="#Cmr10-73" x="1017.822266"/>
     <use xlink:href="#Cmr10-65" x="1057.226562"/>
     <use xlink:href="#Cmr10-64" x="1101.611328"/>
    </g>
   </g>
   <g id="legend_1">
    <g id="patch_7">
     <path d="M 221.8875 298.185 
L 442.3 298.185 
Q 444.5 298.185 444.5 295.985 
L 444.5 266.111406 
Q 444.5 263.911406 442.3 263.911406 
L 221.8875 263.911406 
Q 219.6875 263.911406 219.6875 266.111406 
L 219.6875 295.985 
Q 219.6875 298.185 221.8875 298.185 
z
" style="fill: #ffffff; opacity: 0.8; stroke: #cccccc; stroke-linejoin: miter"/>
    </g>
    <g id="text_15">
     <!-- Average episodes until HN convergence: 25.2 -->
     <g transform="translate(224.0875 276.185)scale(0.11 -0.11)">
      <defs>
       <path id="Cmr10-41" d="M 206 0 
L 206 225 
Q 778 225 909 603 
L 2253 4513 
Q 2272 4581 2356 4581 
L 2438 4581 
Q 2522 4581 2541 4513 
L 3944 428 
Q 4003 294 4170 259 
Q 4338 225 4588 225 
L 4588 0 
L 2803 0 
L 2803 225 
Q 3334 225 3334 397 
L 3334 428 
L 2988 1428 
L 1434 1428 
L 1147 603 
Q 1141 581 1141 538 
Q 1141 378 1292 301 
Q 1444 225 1619 225 
L 1619 0 
L 206 0 
z
M 1509 1650 
L 2913 1650 
L 2209 3694 
L 1509 1650 
z
" transform="scale(0.015625)"/>
       <path id="Cmr10-74" d="M 653 769 
L 653 2534 
L 122 2534 
L 122 2700 
Q 541 2700 737 3090 
Q 934 3481 934 3938 
L 1119 3938 
L 1119 2759 
L 2022 2759 
L 2022 2534 
L 1119 2534 
L 1119 781 
Q 1119 516 1208 316 
Q 1297 116 1528 116 
Q 1747 116 1844 327 
Q 1941 538 1941 781 
L 1941 1159 
L 2125 1159 
L 2125 769 
Q 2125 569 2051 373 
Q 1978 178 1834 53 
Q 1691 -72 1484 -72 
Q 1100 -72 876 158 
Q 653 388 653 769 
z
" transform="scale(0.015625)"/>
       <path id="Cmr10-6c" d="M 197 0 
L 197 225 
Q 416 225 556 259 
Q 697 294 697 428 
L 697 3788 
Q 697 3959 645 4036 
Q 594 4113 497 4130 
Q 400 4147 197 4147 
L 197 4372 
L 1147 4441 
L 1147 428 
Q 1147 294 1287 259 
Q 1428 225 1644 225 
L 1644 0 
L 197 0 
z
" transform="scale(0.015625)"/>
       <path id="Cmr10-48" d="M 197 0 
L 197 225 
Q 856 225 856 428 
L 856 3944 
Q 856 4147 197 4147 
L 197 4372 
L 2113 4372 
L 2113 4147 
Q 1453 4147 1453 3944 
L 1453 2388 
L 3341 2388 
L 3341 3944 
Q 3341 4147 2681 4147 
L 2681 4372 
L 4594 4372 
L 4594 4147 
Q 3938 4147 3938 3944 
L 3938 428 
Q 3938 225 4594 225 
L 4594 0 
L 2681 0 
L 2681 225 
Q 3341 225 3341 428 
L 3341 2163 
L 1453 2163 
L 1453 428 
Q 1453 225 2113 225 
L 2113 0 
L 197 0 
z
" transform="scale(0.015625)"/>
       <path id="Cmr10-4e" d="M 197 0 
L 197 225 
Q 856 225 856 603 
L 856 4109 
Q 647 4147 197 4147 
L 197 4372 
L 1422 4372 
Q 1453 4372 1466 4347 
L 3731 1013 
L 3731 3769 
Q 3731 4147 3072 4147 
L 3072 4372 
L 4594 4372 
L 4594 4147 
Q 3938 4147 3938 3769 
L 3938 56 
Q 3938 38 3913 19 
Q 3888 0 3872 0 
L 3794 0 
Q 3763 0 3750 25 
L 1063 3981 
L 1063 603 
Q 1063 225 1722 225 
L 1722 0 
L 197 0 
z
" transform="scale(0.015625)"/>
       <path id="Cmr10-3a" d="M 538 353 
Q 538 497 644 600 
Q 750 703 891 703 
Q 978 703 1062 656 
Q 1147 609 1194 525 
Q 1241 441 1241 353 
Q 1241 213 1137 106 
Q 1034 0 891 0 
Q 750 0 644 106 
Q 538 213 538 353 
z
M 538 2406 
Q 538 2497 584 2578 
Q 631 2659 714 2709 
Q 797 2759 891 2759 
Q 981 2759 1064 2709 
Q 1147 2659 1194 2578 
Q 1241 2497 1241 2406 
Q 1241 2263 1139 2158 
Q 1038 2053 891 2053 
Q 747 2053 642 2158 
Q 538 2263 538 2406 
z
" transform="scale(0.015625)"/>
       <path id="Cmr10-2e" d="M 538 353 
Q 538 497 644 600 
Q 750 703 891 703 
Q 978 703 1062 656 
Q 1147 609 1194 525 
Q 1241 441 1241 353 
Q 1241 213 1137 106 
Q 1034 0 891 0 
Q 750 0 644 106 
Q 538 213 538 353 
z
" transform="scale(0.015625)"/>
      </defs>
      <use xlink:href="#Cmr10-41"/>
      <use xlink:href="#Cmr10-76" x="75"/>
      <use xlink:href="#Cmr10-65" x="127.685547"/>
      <use xlink:href="#Cmr10-72" x="172.070312"/>
      <use xlink:href="#Cmr10-61" x="211.181641"/>
      <use xlink:href="#Cmr10-67" x="261.181641"/>
      <use xlink:href="#Cmr10-65" x="311.181641"/>
      <use xlink:href="#Cmr10-20" x="355.566406"/>
      <use xlink:href="#Cmr10-65" x="388.867188"/>
      <use xlink:href="#Cmr10-70" x="433.251953"/>
      <use xlink:href="#Cmr10-69" x="488.769531"/>
      <use xlink:href="#Cmr10-73" x="516.455078"/>
      <use xlink:href="#Cmr10-6f" x="555.859375"/>
      <use xlink:href="#Cmr10-64" x="605.859375"/>
      <use xlink:href="#Cmr10-65" x="661.376953"/>
      <use xlink:href="#Cmr10-73" x="705.761719"/>
      <use xlink:href="#Cmr10-20" x="745.166016"/>
      <use xlink:href="#Cmr10-75" x="778.466797"/>
      <use xlink:href="#Cmr10-6e" x="833.984375"/>
      <use xlink:href="#Cmr10-74" x="889.501953"/>
      <use xlink:href="#Cmr10-69" x="928.320312"/>
      <use xlink:href="#Cmr10-6c" x="956.005859"/>
      <use xlink:href="#Cmr10-20" x="983.691406"/>
      <use xlink:href="#Cmr10-48" x="1016.992188"/>
      <use xlink:href="#Cmr10-4e" x="1091.992188"/>
      <use xlink:href="#Cmr10-20" x="1166.992188"/>
      <use xlink:href="#Cmr10-63" x="1200.292969"/>
      <use xlink:href="#Cmr10-6f" x="1244.677734"/>
      <use xlink:href="#Cmr10-6e" x="1294.677734"/>
      <use xlink:href="#Cmr10-76" x="1350.195312"/>
      <use xlink:href="#Cmr10-65" x="1402.880859"/>
      <use xlink:href="#Cmr10-72" x="1447.265625"/>
      <use xlink:href="#Cmr10-67" x="1486.376953"/>
      <use xlink:href="#Cmr10-65" x="1536.376953"/>
      <use xlink:href="#Cmr10-6e" x="1580.761719"/>
      <use xlink:href="#Cmr10-63" x="1636.279297"/>
      <use xlink:href="#Cmr10-65" x="1680.664062"/>
      <use xlink:href="#Cmr10-3a" x="1725.048828"/>
      <use xlink:href="#Cmr10-20" x="1752.734375"/>
      <use xlink:href="#Cmr10-32" x="1786.035156"/>
      <use xlink:href="#Cmr10-35" x="1836.035156"/>
      <use xlink:href="#Cmr10-2e" x="1886.035156"/>
      <use xlink:href="#Cmr10-32" x="1913.720703"/>
     </g>
    </g>
    <g id="line2d_24">
     <path d="M 242.379297 287.802031 
L 253.379297 287.802031 
L 264.379297 287.802031 
" style="fill: none; stroke: #111111; stroke-width: 1.5; stroke-linecap: square"/>
    </g>
    <g id="text_16">
     <!-- Performance Hebbian Network -->
     <g transform="translate(273.179297 291.652031)scale(0.11 -0.11)">
      <defs>
       <path id="Cmr10-50" d="M 213 0 
L 213 225 
Q 872 225 872 428 
L 872 3944 
Q 872 4147 213 4147 
L 213 4372 
L 2491 4372 
Q 2841 4372 3191 4228 
Q 3541 4084 3767 3809 
Q 3994 3534 3994 3169 
Q 3994 2813 3766 2544 
Q 3538 2275 3191 2136 
Q 2844 1997 2491 1997 
L 1466 1997 
L 1466 428 
Q 1466 225 2125 225 
L 2125 0 
L 213 0 
z
M 1447 2188 
L 2316 2188 
Q 2669 2188 2887 2289 
Q 3106 2391 3207 2605 
Q 3309 2819 3309 3169 
Q 3309 3691 3079 3919 
Q 2850 4147 2316 4147 
L 1772 4147 
Q 1656 4147 1592 4137 
Q 1528 4128 1487 4083 
Q 1447 4038 1447 3944 
L 1447 2188 
z
" transform="scale(0.015625)"/>
       <path id="Cmr10-66" d="M 206 0 
L 206 225 
Q 422 225 562 259 
Q 703 294 703 428 
L 703 2534 
L 213 2534 
L 213 2759 
L 703 2759 
L 703 3525 
Q 703 3731 789 3911 
Q 875 4091 1020 4225 
Q 1166 4359 1355 4436 
Q 1544 4513 1747 4513 
Q 1963 4513 2136 4384 
Q 2309 4256 2309 4044 
Q 2309 3922 2226 3839 
Q 2144 3756 2022 3756 
Q 1900 3756 1814 3839 
Q 1728 3922 1728 4044 
Q 1728 4244 1900 4313 
Q 1797 4347 1716 4347 
Q 1528 4347 1395 4214 
Q 1263 4081 1197 3890 
Q 1131 3700 1131 3513 
L 1131 2759 
L 1869 2759 
L 1869 2534 
L 1153 2534 
L 1153 428 
Q 1153 297 1340 261 
Q 1528 225 1772 225 
L 1772 0 
L 206 0 
z
" transform="scale(0.015625)"/>
       <path id="Cmr10-6d" d="M 191 0 
L 191 225 
Q 409 225 550 259 
Q 691 294 691 428 
L 691 2175 
Q 691 2347 639 2423 
Q 588 2500 491 2517 
Q 394 2534 191 2534 
L 191 2759 
L 1119 2828 
L 1119 2203 
Q 1247 2478 1498 2653 
Q 1750 2828 2047 2828 
Q 2784 2828 2913 2228 
Q 3041 2497 3287 2662 
Q 3534 2828 3828 2828 
Q 4119 2828 4317 2734 
Q 4516 2641 4616 2448 
Q 4716 2256 4716 1966 
L 4716 428 
Q 4716 294 4858 259 
Q 5000 225 5216 225 
L 5216 0 
L 3750 0 
L 3750 225 
Q 3969 225 4109 259 
Q 4250 294 4250 428 
L 4250 1947 
Q 4250 2269 4159 2466 
Q 4069 2663 3788 2663 
Q 3419 2663 3178 2366 
Q 2938 2069 2938 1691 
L 2938 428 
Q 2938 294 3078 259 
Q 3219 225 3438 225 
L 3438 0 
L 1972 0 
L 1972 225 
Q 2191 225 2331 259 
Q 2472 294 2472 428 
L 2472 1947 
Q 2472 2259 2381 2461 
Q 2291 2663 2009 2663 
Q 1638 2663 1398 2366 
Q 1159 2069 1159 1691 
L 1159 428 
Q 1159 294 1300 259 
Q 1441 225 1656 225 
L 1656 0 
L 191 0 
z
" transform="scale(0.015625)"/>
       <path id="Cmr10-62" d="M 666 0 
L 666 3788 
Q 666 3959 614 4036 
Q 563 4113 466 4130 
Q 369 4147 166 4147 
L 166 4372 
L 1113 4441 
L 1113 2438 
Q 1219 2556 1361 2645 
Q 1503 2734 1665 2781 
Q 1828 2828 1997 2828 
Q 2284 2828 2529 2712 
Q 2775 2597 2956 2394 
Q 3138 2191 3239 1927 
Q 3341 1663 3341 1381 
Q 3341 994 3152 659 
Q 2963 325 2636 126 
Q 2309 -72 1919 -72 
Q 1675 -72 1447 53 
Q 1219 178 1069 384 
L 850 0 
L 666 0 
z
M 1131 628 
Q 1238 394 1438 245 
Q 1638 97 1881 97 
Q 2213 97 2417 287 
Q 2622 478 2703 768 
Q 2784 1059 2784 1381 
Q 2784 1922 2644 2203 
Q 2581 2328 2473 2434 
Q 2366 2541 2233 2602 
Q 2100 2663 1953 2663 
Q 1697 2663 1478 2527 
Q 1259 2391 1131 2163 
L 1131 628 
z
" transform="scale(0.015625)"/>
       <path id="Cmr10-77" d="M 1416 0 
L 588 2328 
Q 531 2469 425 2501 
Q 319 2534 116 2534 
L 116 2759 
L 1434 2759 
L 1434 2534 
Q 1056 2534 1056 2375 
Q 1059 2366 1061 2356 
Q 1063 2347 1063 2328 
L 1678 603 
L 2209 2106 
L 2125 2328 
Q 2075 2469 1965 2501 
Q 1856 2534 1656 2534 
L 1656 2759 
L 2919 2759 
L 2919 2534 
Q 2541 2534 2541 2375 
Q 2541 2350 2547 2328 
L 3188 525 
L 3769 2156 
Q 3781 2206 3781 2247 
Q 3781 2381 3667 2457 
Q 3553 2534 3413 2534 
L 3413 2759 
L 4500 2759 
L 4500 2534 
Q 4306 2534 4167 2432 
Q 4028 2331 3963 2156 
L 3200 0 
Q 3178 -72 3103 -72 
L 3053 -72 
Q 2978 -72 2956 0 
L 2309 1825 
L 1663 0 
Q 1631 -72 1563 -72 
L 1516 -72 
Q 1438 -72 1416 0 
z
" transform="scale(0.015625)"/>
       <path id="Cmr10-6b" d="M 166 0 
L 166 225 
Q 384 225 525 259 
Q 666 294 666 428 
L 666 3788 
Q 666 3959 614 4036 
Q 563 4113 466 4130 
Q 369 4147 166 4147 
L 166 4372 
L 1113 4441 
L 1113 1403 
L 1972 2156 
Q 2100 2278 2100 2381 
Q 2100 2456 2047 2495 
Q 1994 2534 1919 2534 
L 1919 2759 
L 3122 2759 
L 3122 2534 
Q 2688 2534 2253 2156 
L 1797 1759 
L 2613 603 
Q 2781 363 2895 294 
Q 3009 225 3272 225 
L 3272 0 
L 1997 0 
L 1997 225 
Q 2216 225 2216 359 
Q 2216 456 2100 603 
L 1484 1478 
L 1094 1141 
L 1094 428 
Q 1094 294 1236 259 
Q 1378 225 1594 225 
L 1594 0 
L 166 0 
z
" transform="scale(0.015625)"/>
      </defs>
      <use xlink:href="#Cmr10-50"/>
      <use xlink:href="#Cmr10-65" x="68.017578"/>
      <use xlink:href="#Cmr10-72" x="112.402344"/>
      <use xlink:href="#Cmr10-66" x="151.513672"/>
      <use xlink:href="#Cmr10-6f" x="182.03125"/>
      <use xlink:href="#Cmr10-72" x="232.03125"/>
      <use xlink:href="#Cmr10-6d" x="271.142578"/>
      <use xlink:href="#Cmr10-61" x="354.443359"/>
      <use xlink:href="#Cmr10-6e" x="404.443359"/>
      <use xlink:href="#Cmr10-63" x="459.960938"/>
      <use xlink:href="#Cmr10-65" x="504.345703"/>
      <use xlink:href="#Cmr10-20" x="548.730469"/>
      <use xlink:href="#Cmr10-48" x="582.03125"/>
      <use xlink:href="#Cmr10-65" x="657.03125"/>
      <use xlink:href="#Cmr10-62" x="701.416016"/>
      <use xlink:href="#Cmr10-62" x="756.933594"/>
      <use xlink:href="#Cmr10-69" x="812.451172"/>
      <use xlink:href="#Cmr10-61" x="840.136719"/>
      <use xlink:href="#Cmr10-6e" x="890.136719"/>
      <use xlink:href="#Cmr10-20" x="945.654297"/>
      <use xlink:href="#Cmr10-4e" x="978.955078"/>
      <use xlink:href="#Cmr10-65" x="1053.955078"/>
      <use xlink:href="#Cmr10-74" x="1098.339844"/>
      <use xlink:href="#Cmr10-77" x="1137.158203"/>
      <use xlink:href="#Cmr10-6f" x="1209.375"/>
      <use xlink:href="#Cmr10-72" x="1259.375"/>
      <use xlink:href="#Cmr10-6b" x="1298.486328"/>
     </g>
    </g>
   </g>
  </g>
 </g>
 <defs>
  <clipPath id="p253bb1d568">
   <rect x="47.86625" y="26.025" width="402.13375" height="277.66"/>
  </clipPath>
 </defs>
</svg>
